<svg version="1.1" xmlns="http://www.w3.org/2000/svg" xmlns:xlink="http://www.w3.org/1999/xlink" width="2725.17" height="1198.54" viewBox="-1.33333 -138.942 2725.17 1198.54">
	<g transform="translate(-425.678,1207.89) scale(1,-1) ">
		<line x1="1446.15" y1="149.619" x2="2013.08" y2="149.619" stroke="rgb(255,0,0)" stroke-width="7.04134" ev-style="Wheel Cutting" ev-style-annotation="false"/>
		<line x1="2013.08" y1="1207.89" x2="1446.15" y2="1207.89" stroke="rgb(255,0,0)" stroke-width="7.04134" ev-style="Wheel Cutting" ev-style-annotation="false"/>
		<line x1="2013.08" y1="1207.89" x2="2202.06" y2="1207.89" stroke="rgb(255,0,0)" stroke-width="7.04134" ev-style="Wheel Cutting" ev-style-annotation="false"/>
		<line x1="2202.06" y1="149.619" x2="2013.08" y2="149.619" stroke="rgb(255,0,0)" stroke-width="7.04134" ev-style="Wheel Cutting" ev-style-annotation="false"/>
		<line x1="2013.08" y1="149.619" x2="2013.08" y2="1207.89" stroke="rgb(0,255,0)" stroke-width="7.04134" ev-style="Wheel Creasing" ev-style-annotation="false"/>
		<line x1="1446.15" y1="149.619" x2="1257.17" y2="149.619" stroke="rgb(255,0,0)" stroke-width="7.04134" ev-style="Wheel Cutting" ev-style-annotation="false"/>
		<line x1="1257.17" y1="1207.89" x2="1446.15" y2="1207.89" stroke="rgb(255,0,0)" stroke-width="7.04134" ev-style="Wheel Cutting" ev-style-annotation="false"/>
		<line x1="1446.15" y1="1207.89" x2="1446.15" y2="149.619" stroke="rgb(0,255,0)" stroke-width="7.04134" ev-style="Wheel Creasing" ev-style-annotation="false"/>
		<line x1="2202.06" y1="1207.89" x2="2580.01" y2="1207.89" stroke="rgb(255,0,0)" stroke-width="7.04134" ev-style="Wheel Cutting" ev-style-annotation="false"/>
		<line x1="2580.01" y1="149.619" x2="2202.06" y2="149.619" stroke="rgb(255,0,0)" stroke-width="7.04134" ev-style="Wheel Cutting" ev-style-annotation="false"/>
		<line x1="2202.06" y1="149.619" x2="2202.06" y2="1207.89" stroke="rgb(0,255,0)" stroke-width="7.04134" ev-style="Wheel Creasing" ev-style-annotation="false"/>
		<line x1="1257.17" y1="149.619" x2="879.221" y2="149.619" stroke="rgb(255,0,0)" stroke-width="7.04134" ev-style="Wheel Cutting" ev-style-annotation="false"/>
		<line x1="879.221" y1="1207.89" x2="1257.17" y2="1207.89" stroke="rgb(255,0,0)" stroke-width="7.04134" ev-style="Wheel Cutting" ev-style-annotation="false"/>
		<line x1="1257.17" y1="1207.89" x2="1257.17" y2="149.619" stroke="rgb(0,255,0)" stroke-width="7.04134" ev-style="Wheel Creasing" ev-style-annotation="false"/>
		<line x1="2580.01" y1="1207.89" x2="2768.98" y2="1207.89" stroke="rgb(255,0,0)" stroke-width="7.04134" ev-style="Wheel Cutting" ev-style-annotation="false"/>
		<line x1="2768.98" y1="149.619" x2="2580.01" y2="149.619" stroke="rgb(255,0,0)" stroke-width="7.04134" ev-style="Wheel Cutting" ev-style-annotation="false"/>
		<line x1="2580.01" y1="149.619" x2="2580.01" y2="1207.89" stroke="rgb(0,255,0)" stroke-width="7.04134" ev-style="Wheel Creasing" ev-style-annotation="false"/>
		<line x1="879.221" y1="149.619" x2="690.245" y2="149.619" stroke="rgb(255,0,0)" stroke-width="7.04134" ev-style="Wheel Cutting" ev-style-annotation="false"/>
		<line x1="690.245" y1="1207.89" x2="879.221" y2="1207.89" stroke="rgb(255,0,0)" stroke-width="7.04134" ev-style="Wheel Cutting" ev-style-annotation="false"/>
		<line x1="879.221" y1="1207.89" x2="879.221" y2="149.619" stroke="rgb(0,255,0)" stroke-width="7.04134" ev-style="Wheel Creasing" ev-style-annotation="false"/>
		<line x1="2768.98" y1="1207.89" x2="3033.55" y2="1207.89" stroke="rgb(255,0,0)" stroke-width="7.04134" ev-style="Wheel Cutting" ev-style-annotation="false"/>
		<line x1="3033.55" y1="1207.89" x2="3033.55" y2="149.619" stroke="rgb(255,0,0)" stroke-width="7.04134" ev-style="Gilotine Cutting" ev-style-annotation="false"/>
		<line x1="3033.55" y1="149.619" x2="2768.98" y2="149.619" stroke="rgb(255,0,0)" stroke-width="7.04134" ev-style="Wheel Cutting" ev-style-annotation="false"/>
		<line x1="2768.98" y1="149.619" x2="2768.98" y2="1207.89" stroke="rgb(0,255,0)" stroke-width="7.04134" ev-style="Wheel Creasing" ev-style-annotation="false"/>
		<line x1="690.245" y1="149.619" x2="425.678" y2="149.619" stroke="rgb(255,0,0)" stroke-width="7.04134" ev-style="Wheel Cutting" ev-style-annotation="false"/>
		<line x1="425.678" y1="149.619" x2="425.678" y2="1207.89" stroke="rgb(255,0,0)" stroke-width="7.04134" ev-style="Gilotine Cutting" ev-style-annotation="false"/>
		<line x1="425.678" y1="1207.89" x2="690.245" y2="1207.89" stroke="rgb(255,0,0)" stroke-width="7.04134" ev-style="Wheel Cutting" ev-style-annotation="false"/>
		<line x1="690.245" y1="1207.89" x2="690.245" y2="149.619" stroke="rgb(0,255,0)" stroke-width="7.04134" ev-style="Wheel Creasing" ev-style-annotation="false"/>
		<line x1="1729.61" y1="386.273" x2="1729.61" y2="281.902" stroke="rgb(64,128,128)" stroke-width="0"/>
		<line x1="1761.68" y1="316.693" x2="1761.68" y2="281.902" stroke="rgb(64,128,128)" stroke-width="0"/>
		<line x1="1745.65" y1="351.483" x2="1745.65" y2="281.902" stroke="rgb(64,128,128)" stroke-width="0"/>
		<line x1="1713.58" y1="421.063" x2="1713.58" y2="281.902" stroke="rgb(64,128,128)" stroke-width="0"/>
		<line x1="1697.55" y1="455.854" x2="1697.55" y2="281.902" stroke="rgb(64,128,128)" stroke-width="0"/>
		<line x1="1681.52" y1="490.644" x2="1681.52" y2="281.902" stroke="rgb(64,128,128)" stroke-width="0"/>
		<line x1="1777.71" y1="281.902" x2="1681.52" y2="281.902" stroke="rgb(64,128,128)" stroke-width="0"/>
		<line x1="1681.52" y1="490.644" x2="1788.38" y2="383.616" stroke="rgb(64,128,128)" stroke-width="0"/>
		<path d="M1788.38,383.616 a100.552 100.552 0 0 1 -10.668,-101.714" fill="none" stroke="rgb(64,128,128)" stroke-width="0"/>
		<line x1="1777.71" y1="281.902" x2="1681.52" y2="490.644" stroke="rgb(64,128,128)" stroke-width="0"/>
		<g id="evml.1" stroke="rgb(128,0,128)" stroke-width="2.81654" fill="rgb(128,0,128)" ev-style="Dimensions" ev-style-annotation="true">
			<g transform="translate(3118.43,630.168) rotate(90) scale(1,-1) ">
				<text x="0" y="0" font-size="31.686" font-weight="400" font-family="Arial" text-anchor="start" dominant-baseline="baseline">280.00</text>
			</g>
			<line x1="3129.55" y1="1207.89" x2="3126.03" y2="1187.93"/>
			<line x1="3126.03" y1="1187.93" x2="3133.07" y2="1187.93"/>
			<line x1="3133.07" y1="1187.93" x2="3129.55" y2="1207.89"/>
			<line x1="3129.55" y1="149.619" x2="3133.07" y2="169.579"/>
			<line x1="3133.07" y1="169.579" x2="3126.03" y2="169.579"/>
			<line x1="3126.03" y1="169.579" x2="3129.55" y2="149.619"/>
			<line x1="3129.55" y1="1207.89" x2="3129.55" y2="149.619"/>
			<line x1="3044.49" y1="1207.89" x2="3149.51" y2="1207.89"/>
			<line x1="3044.49" y1="149.619" x2="3149.51" y2="149.619"/>
		</g>
		<g id="evml.2" stroke="rgb(128,0,128)" stroke-width="2.81654" fill="rgb(128,0,128)" ev-style="Dimensions" ev-style-annotation="true">
			<g transform="translate(1681.03,1315.01) rotate(0) scale(1,-1) ">
				<text x="0" y="0" font-size="31.686" font-weight="400" font-family="Arial" text-anchor="start" dominant-baseline="baseline">690.00</text>
			</g>
			<line x1="425.678" y1="1303.89" x2="445.638" y2="1300.37"/>
			<line x1="445.638" y1="1300.37" x2="445.638" y2="1307.41"/>
			<line x1="445.638" y1="1307.41" x2="425.678" y2="1303.89"/>
			<line x1="3033.55" y1="1303.89" x2="3013.59" y2="1307.41"/>
			<line x1="3013.59" y1="1307.41" x2="3013.59" y2="1300.37"/>
			<line x1="3013.59" y1="1300.37" x2="3033.55" y2="1303.89"/>
			<line x1="425.678" y1="1303.89" x2="3033.55" y2="1303.89"/>
			<line x1="425.678" y1="1218.83" x2="425.678" y2="1323.85"/>
			<line x1="3033.55" y1="1218.83" x2="3033.55" y2="1323.85"/>
		</g>
		<g id="evml.2.1" stroke="rgb(128,0,128)" stroke-width="2.81654" fill="rgb(128,0,128)" ev-style="Dimensions" ev-style-annotation="true">
			<g transform="translate(1562.05,1129.37) rotate(0) scale(1,-1) ">
				<text x="0" y="0" font-size="31.686" font-weight="400" font-family="Arial" text-anchor="start" dominant-baseline="baseline">PW [150.00]</text>
			</g>
			<line x1="1446.15" y1="1118.25" x2="1466.11" y2="1114.73"/>
			<line x1="1466.11" y1="1114.73" x2="1466.11" y2="1121.77"/>
			<line x1="1466.11" y1="1121.77" x2="1446.15" y2="1118.25"/>
			<line x1="2013.08" y1="1118.25" x2="1993.12" y2="1121.77"/>
			<line x1="1993.12" y1="1121.77" x2="1993.12" y2="1114.73"/>
			<line x1="1993.12" y1="1114.73" x2="2013.08" y2="1118.25"/>
			<line x1="1446.15" y1="1118.25" x2="2013.08" y2="1118.25"/>
		</g>
		<g id="evml.2.2" stroke="rgb(128,0,128)" stroke-width="2.81654" fill="rgb(128,0,128)" ev-style="Dimensions" ev-style-annotation="true">
			<g transform="translate(1911.32,519.409) rotate(90) scale(1,-1) ">
				<text x="0" y="0" font-size="31.686" font-weight="400" font-family="Arial" text-anchor="start" dominant-baseline="baseline">LPad [280.00]</text>
			</g>
			<line x1="1922.44" y1="149.619" x2="1925.96" y2="169.579"/>
			<line x1="1925.96" y1="169.579" x2="1918.92" y2="169.579"/>
			<line x1="1918.92" y1="169.579" x2="1922.44" y2="149.619"/>
			<line x1="1922.44" y1="1207.89" x2="1918.92" y2="1187.93"/>
			<line x1="1918.92" y1="1187.93" x2="1925.96" y2="1187.93"/>
			<line x1="1925.96" y1="1187.93" x2="1922.44" y2="1207.89"/>
			<line x1="1922.44" y1="149.619" x2="1922.44" y2="1207.89"/>
		</g>
		<g id="evml.3.2" stroke="rgb(128,0,128)" stroke-width="2.81654" fill="rgb(128,0,128)" ev-style="Dimensions" ev-style-annotation="true">
			<g transform="translate(2049.01,1127.22) rotate(0) scale(1,-1) ">
				<text x="0" y="0" font-size="31.686" font-weight="400" font-family="Arial" text-anchor="start" dominant-baseline="baseline">PH [50.00]</text>
			</g>
			<line x1="2202.06" y1="1116.09" x2="2182.1" y2="1119.61"/>
			<line x1="2182.1" y1="1119.61" x2="2182.1" y2="1112.57"/>
			<line x1="2182.1" y1="1112.57" x2="2202.06" y2="1116.09"/>
			<line x1="2013.08" y1="1116.09" x2="2033.04" y2="1112.57"/>
			<line x1="2033.04" y1="1112.57" x2="2033.04" y2="1119.61"/>
			<line x1="2033.04" y1="1119.61" x2="2013.08" y2="1116.09"/>
			<line x1="2202.06" y1="1116.09" x2="2013.08" y2="1116.09"/>
		</g>
		<g id="evml.5.2" stroke="rgb(128,0,128)" stroke-width="2.81654" fill="rgb(128,0,128)" ev-style="Dimensions" ev-style-annotation="true">
			<g transform="translate(2299.99,1127.55) rotate(0) scale(1,-1) ">
				<text x="0" y="0" font-size="31.686" font-weight="400" font-family="Arial" text-anchor="start" dominant-baseline="baseline">PW1 [100.00]</text>
			</g>
			<line x1="2580.01" y1="1116.43" x2="2560.05" y2="1119.95"/>
			<line x1="2560.05" y1="1119.95" x2="2560.05" y2="1112.91"/>
			<line x1="2560.05" y1="1112.91" x2="2580.01" y2="1116.43"/>
			<line x1="2202.06" y1="1116.43" x2="2222.02" y2="1112.91"/>
			<line x1="2222.02" y1="1112.91" x2="2222.02" y2="1119.95"/>
			<line x1="2222.02" y1="1119.95" x2="2202.06" y2="1116.43"/>
			<line x1="2580.01" y1="1116.43" x2="2202.06" y2="1116.43"/>
		</g>
		<g id="evml.7.2" stroke="rgb(128,0,128)" stroke-width="2.81654" fill="rgb(128,0,128)" ev-style="Dimensions" ev-style-annotation="true">
			<g transform="translate(2591.81,1124.92) rotate(0) scale(1,-1) ">
				<text x="0" y="0" font-size="31.686" font-weight="400" font-family="Arial" text-anchor="start" dominant-baseline="baseline">PH [50.00]</text>
			</g>
			<line x1="2768.98" y1="1113.8" x2="2749.03" y2="1117.32"/>
			<line x1="2749.03" y1="1117.32" x2="2749.03" y2="1110.28"/>
			<line x1="2749.03" y1="1110.28" x2="2768.98" y2="1113.8"/>
			<line x1="2580.01" y1="1113.8" x2="2599.97" y2="1110.28"/>
			<line x1="2599.97" y1="1110.28" x2="2599.97" y2="1117.32"/>
			<line x1="2599.97" y1="1117.32" x2="2580.01" y2="1113.8"/>
			<line x1="2768.98" y1="1113.8" x2="2580.01" y2="1113.8"/>
		</g>
		<g id="evml.9.2" stroke="rgb(128,0,128)" stroke-width="2.81654" fill="rgb(128,0,128)" ev-style="Dimensions" ev-style-annotation="true">
			<g transform="translate(2818.46,1120.75) rotate(0) scale(1,-1) ">
				<text x="0" y="0" font-size="31.686" font-weight="400" font-family="Arial" text-anchor="start" dominant-baseline="baseline">PW2 [70.00]</text>
			</g>
			<line x1="3033.55" y1="1109.63" x2="3013.59" y2="1113.15"/>
			<line x1="3013.59" y1="1113.15" x2="3013.59" y2="1106.11"/>
			<line x1="3013.59" y1="1106.11" x2="3033.55" y2="1109.63"/>
			<line x1="2768.98" y1="1109.63" x2="2788.94" y2="1106.11"/>
			<line x1="2788.94" y1="1106.11" x2="2788.94" y2="1113.15"/>
			<line x1="2788.94" y1="1113.15" x2="2768.98" y2="1109.63"/>
			<line x1="3033.55" y1="1109.63" x2="2768.98" y2="1109.63"/>
		</g>
	</g>
</svg>