<svg version="1.1" xmlns="http://www.w3.org/2000/svg" xmlns:xlink="http://www.w3.org/1999/xlink" width="1976.75" height="1403.77" viewBox="-74.3148 -94.7191 1976.75 1403.77">
	<g transform="translate(-330.676,1725.08) scale(1,-1) ">
		<line x1="1662.01" y1="1603.19" x2="1662.01" y2="1603.19" stroke="rgb(255,0,0)" stroke-width="5.16274" ev-style="Cutting" ev-style-annotation="false"/>
		<line x1="2231.78" y1="1603.19" x2="2231.78" y2="539.256" stroke="rgb(255,0,0)" stroke-width="5.16274" ev-style="Cutting" ev-style-annotation="false"/>
		<line x1="1662.01" y1="539.256" x2="1662.01" y2="539.256" stroke="rgb(255,0,0)" stroke-width="5.16274" ev-style="Cutting" ev-style-annotation="false"/>
		<line x1="1662.01" y1="1603.19" x2="1662.01" y2="539.256" stroke="rgb(0,255,0)" stroke-width="5.16274" ev-style="Creasing" ev-style-annotation="false"/>
		<line x1="900.44" y1="539.256" x2="900.44" y2="539.256" stroke="rgb(255,0,0)" stroke-width="5.16274" ev-style="Cutting" ev-style-annotation="false"/>
		<line x1="330.676" y1="539.256" x2="330.676" y2="1603.19" stroke="rgb(255,0,0)" stroke-width="5.16274" ev-style="Cutting" ev-style-annotation="false"/>
		<line x1="900.44" y1="1603.19" x2="900.44" y2="1603.19" stroke="rgb(255,0,0)" stroke-width="5.16274" ev-style="Cutting" ev-style-annotation="false"/>
		<line x1="900.44" y1="539.256" x2="900.44" y2="1603.19" stroke="rgb(0,255,0)" stroke-width="5.16274" ev-style="Creasing" ev-style-annotation="false"/>
		<line x1="1662.01" y1="1603.19" x2="1667.68" y2="1603.19" stroke="rgb(255,0,0)" stroke-width="5.16274" ev-style="Cutting" ev-style-annotation="false"/>
		<line x1="1667.68" y1="1603.19" x2="1679.02" y2="1725.08" stroke="rgb(255,0,0)" stroke-width="5.16274" ev-style="Cutting" ev-style-annotation="false"/>
		<line x1="1679.02" y1="1725.08" x2="1778.23" y2="1725.08" stroke="rgb(255,0,0)" stroke-width="5.16274" ev-style="Cutting" ev-style-annotation="false"/>
		<line x1="1778.23" y1="1725.08" x2="2231.78" y2="1633.67" stroke="rgb(255,0,0)" stroke-width="5.16274" ev-style="Cutting" ev-style-annotation="false"/>
		<line x1="2231.78" y1="1633.67" x2="2231.78" y2="1603.19" stroke="rgb(255,0,0)" stroke-width="5.16274" ev-style="Cutting" ev-style-annotation="false"/>
		<line x1="2231.78" y1="1603.19" x2="1667.68" y2="1603.19" stroke="rgb(0,255,0)" stroke-width="5.16274" ev-style="Creasing" ev-style-annotation="false"/>
		<line x1="1662.01" y1="539.256" x2="1667.68" y2="539.256" stroke="rgb(255,0,0)" stroke-width="5.16274" ev-style="Cutting" ev-style-annotation="false"/>
		<line x1="1667.68" y1="539.256" x2="1679.02" y2="417.367" stroke="rgb(255,0,0)" stroke-width="5.16274" ev-style="Cutting" ev-style-annotation="false"/>
		<line x1="1679.02" y1="417.367" x2="1778.23" y2="417.367" stroke="rgb(255,0,0)" stroke-width="5.16274" ev-style="Cutting" ev-style-annotation="false"/>
		<line x1="1778.23" y1="417.367" x2="2231.78" y2="508.784" stroke="rgb(255,0,0)" stroke-width="5.16274" ev-style="Cutting" ev-style-annotation="false"/>
		<line x1="2231.78" y1="508.784" x2="2231.78" y2="539.256" stroke="rgb(255,0,0)" stroke-width="5.16274" ev-style="Cutting" ev-style-annotation="false"/>
		<line x1="2231.78" y1="539.256" x2="1667.68" y2="539.256" stroke="rgb(0,255,0)" stroke-width="5.16274" ev-style="Creasing" ev-style-annotation="false"/>
		<line x1="900.44" y1="1603.19" x2="894.77" y2="1603.19" stroke="rgb(255,0,0)" stroke-width="5.16274" ev-style="Cutting" ev-style-annotation="false"/>
		<line x1="894.77" y1="1603.19" x2="883.432" y2="1725.08" stroke="rgb(255,0,0)" stroke-width="5.16274" ev-style="Cutting" ev-style-annotation="false"/>
		<line x1="883.432" y1="1725.08" x2="784.219" y2="1725.08" stroke="rgb(255,0,0)" stroke-width="5.16274" ev-style="Cutting" ev-style-annotation="false"/>
		<line x1="784.219" y1="1725.08" x2="330.676" y2="1633.67" stroke="rgb(255,0,0)" stroke-width="5.16274" ev-style="Cutting" ev-style-annotation="false"/>
		<line x1="330.676" y1="1633.67" x2="330.676" y2="1603.19" stroke="rgb(255,0,0)" stroke-width="5.16274" ev-style="Cutting" ev-style-annotation="false"/>
		<line x1="330.676" y1="1603.19" x2="894.77" y2="1603.19" stroke="rgb(0,255,0)" stroke-width="5.16274" ev-style="Creasing" ev-style-annotation="false"/>
		<line x1="900.44" y1="539.256" x2="894.77" y2="539.256" stroke="rgb(255,0,0)" stroke-width="5.16274" ev-style="Cutting" ev-style-annotation="false"/>
		<line x1="894.77" y1="539.256" x2="883.432" y2="417.367" stroke="rgb(255,0,0)" stroke-width="5.16274" ev-style="Cutting" ev-style-annotation="false"/>
		<line x1="883.432" y1="417.367" x2="784.219" y2="417.367" stroke="rgb(255,0,0)" stroke-width="5.16274" ev-style="Cutting" ev-style-annotation="false"/>
		<line x1="784.219" y1="417.367" x2="330.676" y2="508.784" stroke="rgb(255,0,0)" stroke-width="5.16274" ev-style="Cutting" ev-style-annotation="false"/>
		<line x1="330.676" y1="508.784" x2="330.676" y2="539.256" stroke="rgb(255,0,0)" stroke-width="5.16274" ev-style="Cutting" ev-style-annotation="false"/>
		<line x1="330.676" y1="539.256" x2="894.77" y2="539.256" stroke="rgb(0,255,0)" stroke-width="5.16274" ev-style="Creasing" ev-style-annotation="false"/>
		<line x1="900.44" y1="1603.19" x2="906.109" y2="1603.19" stroke="rgb(255,0,0)" stroke-width="5.16274" ev-style="Cutting" ev-style-annotation="false"/>
		<line x1="906.109" y1="1603.19" x2="917.448" y2="1725.08" stroke="rgb(255,0,0)" stroke-width="5.16274" ev-style="Cutting" ev-style-annotation="false"/>
		<line x1="917.448" y1="1725.08" x2="1645.01" y2="1725.08" stroke="rgb(255,0,0)" stroke-width="5.16274" ev-style="Cutting" ev-style-annotation="false"/>
		<line x1="1645.01" y1="1725.08" x2="1656.35" y2="1603.19" stroke="rgb(255,0,0)" stroke-width="5.16274" ev-style="Cutting" ev-style-annotation="false"/>
		<line x1="1656.35" y1="1603.19" x2="1662.01" y2="1603.19" stroke="rgb(255,0,0)" stroke-width="5.16274" ev-style="Cutting" ev-style-annotation="false"/>
		<line x1="906.636" y1="1608.86" x2="1655.82" y2="1608.86" stroke="rgb(0,255,0)" stroke-width="5.16274" ev-style="Creasing" ev-style-annotation="false"/>
		<line x1="900.44" y1="539.256" x2="906.109" y2="539.256" stroke="rgb(255,0,0)" stroke-width="5.16274" ev-style="Cutting" ev-style-annotation="false"/>
		<line x1="906.109" y1="539.256" x2="917.448" y2="417.367" stroke="rgb(255,0,0)" stroke-width="5.16274" ev-style="Cutting" ev-style-annotation="false"/>
		<line x1="917.448" y1="417.367" x2="1645.01" y2="417.367" stroke="rgb(255,0,0)" stroke-width="5.16274" ev-style="Cutting" ev-style-annotation="false"/>
		<line x1="1645.01" y1="417.367" x2="1656.35" y2="539.256" stroke="rgb(255,0,0)" stroke-width="5.16274" ev-style="Cutting" ev-style-annotation="false"/>
		<line x1="1656.35" y1="539.256" x2="1662.01" y2="539.256" stroke="rgb(255,0,0)" stroke-width="5.16274" ev-style="Cutting" ev-style-annotation="false"/>
		<line x1="906.636" y1="533.587" x2="1655.82" y2="533.587" stroke="rgb(0,255,0)" stroke-width="5.16274" ev-style="Creasing" ev-style-annotation="false"/>
		<line x1="1281.23" y1="775.911" x2="1281.23" y2="671.54" stroke="rgb(64,128,128)" stroke-width="0"/>
		<line x1="1313.29" y1="706.33" x2="1313.29" y2="671.54" stroke="rgb(64,128,128)" stroke-width="0"/>
		<line x1="1297.26" y1="741.12" x2="1297.26" y2="671.54" stroke="rgb(64,128,128)" stroke-width="0"/>
		<line x1="1265.19" y1="810.701" x2="1265.19" y2="671.54" stroke="rgb(64,128,128)" stroke-width="0"/>
		<line x1="1249.16" y1="845.491" x2="1249.16" y2="671.54" stroke="rgb(64,128,128)" stroke-width="0"/>
		<line x1="1233.13" y1="880.282" x2="1233.13" y2="671.54" stroke="rgb(64,128,128)" stroke-width="0"/>
		<line x1="1329.33" y1="671.54" x2="1233.13" y2="671.54" stroke="rgb(64,128,128)" stroke-width="0"/>
		<line x1="1233.13" y1="880.282" x2="1339.99" y2="773.254" stroke="rgb(64,128,128)" stroke-width="0"/>
		<path d="M1339.99,773.254 a100.552 100.552 0 0 1 -10.668,-101.714" fill="none" stroke="rgb(64,128,128)" stroke-width="0"/>
		<line x1="1329.33" y1="671.54" x2="1233.13" y2="880.282" stroke="rgb(64,128,128)" stroke-width="0"/>
		<g id="evml.1.1" stroke="rgb(128,0,128)" stroke-width="2.0651" fill="rgb(128,0,128)" ev-style="Dimensions" ev-style-annotation="true">
			<g transform="translate(1769.24,857.714) rotate(90) scale(1,-1) ">
				<text x="0" y="0" font-size="23.2323" font-weight="400" font-family="Arial" text-anchor="start" dominant-baseline="baseline">Lss [281.50]</text>
			</g>
			<line x1="1779.41" y1="539.256" x2="1782" y2="553.891"/>
			<line x1="1782" y1="553.891" x2="1776.83" y2="553.891"/>
			<line x1="1776.83" y1="553.891" x2="1779.41" y2="539.256"/>
			<line x1="1779.41" y1="1603.19" x2="1776.83" y2="1588.56"/>
			<line x1="1776.83" y1="1588.56" x2="1782" y2="1588.56"/>
			<line x1="1782" y1="1588.56" x2="1779.41" y2="1603.19"/>
			<line x1="1779.41" y1="539.256" x2="1779.41" y2="1603.19"/>
			<line x1="1669.33" y1="539.256" x2="1794.05" y2="539.256"/>
			<line x1="1669.33" y1="1603.19" x2="1794.05" y2="1603.19"/>
		</g>
		<g id="evml.1.2" stroke="rgb(128,0,128)" stroke-width="2.0651" fill="rgb(128,0,128)" ev-style="Dimensions" ev-style-annotation="true">
			<g transform="translate(1038.93,1184.73) rotate(0) scale(1,-1) ">
				<text x="0" y="0" font-size="23.2323" font-weight="400" font-family="Arial" text-anchor="start" dominant-baseline="baseline">Wss [201.50]</text>
			</g>
			<line x1="1662.01" y1="1174.56" x2="1647.38" y2="1177.14"/>
			<line x1="1647.38" y1="1177.14" x2="1647.38" y2="1171.98"/>
			<line x1="1647.38" y1="1171.98" x2="1662.01" y2="1174.56"/>
			<line x1="900.44" y1="1174.56" x2="915.074" y2="1171.98"/>
			<line x1="915.074" y1="1171.98" x2="915.074" y2="1177.14"/>
			<line x1="915.074" y1="1177.14" x2="900.44" y2="1174.56"/>
			<line x1="1662.01" y1="1174.56" x2="900.44" y2="1174.56"/>
		</g>
		<g id="evml.2.11" stroke="rgb(128,0,128)" stroke-width="2.0651" fill="rgb(128,0,128)" ev-style="Dimensions" ev-style-annotation="true">
			<g transform="translate(2001.74,1184.73) rotate(0) scale(1,-1) ">
				<text x="0" y="0" font-size="23.2323" font-weight="400" font-family="Arial" text-anchor="start" dominant-baseline="baseline">Hss [150.75]</text>
			</g>
			<line x1="1662.01" y1="1174.56" x2="1676.65" y2="1171.98"/>
			<line x1="1676.65" y1="1171.98" x2="1676.65" y2="1177.14"/>
			<line x1="1676.65" y1="1177.14" x2="1662.01" y2="1174.56"/>
			<line x1="2231.78" y1="1174.56" x2="2217.14" y2="1177.14"/>
			<line x1="2217.14" y1="1177.14" x2="2217.14" y2="1171.98"/>
			<line x1="2217.14" y1="1171.98" x2="2231.78" y2="1174.56"/>
			<line x1="1662.01" y1="1174.56" x2="2231.78" y2="1174.56"/>
		</g>
		<g id="evml.4.5" stroke="rgb(128,0,128)" stroke-width="2.0651" fill="rgb(128,0,128)" ev-style="Dimensions" ev-style-annotation="true">
			<g transform="translate(1763.11,1787.15) rotate(0) scale(1,-1) ">
				<text x="0" y="0" font-size="23.2323" font-weight="400" font-family="Arial" text-anchor="start" dominant-baseline="baseline">DxPB1 [3.00]</text>
			</g>
			<line x1="1679.02" y1="1776.97" x2="1693.66" y2="1774.39"/>
			<line x1="1693.66" y1="1774.39" x2="1693.66" y2="1779.55"/>
			<line x1="1693.66" y1="1779.55" x2="1679.02" y2="1776.97"/>
			<line x1="1667.68" y1="1776.97" x2="1653.05" y2="1779.55"/>
			<line x1="1653.05" y1="1779.55" x2="1653.05" y2="1774.39"/>
			<line x1="1653.05" y1="1774.39" x2="1667.68" y2="1776.97"/>
			<line x1="1689.02" y1="1776.97" x2="1679.02" y2="1776.97"/>
			<line x1="1657.68" y1="1776.97" x2="1667.68" y2="1776.97"/>
			<line x1="1679.02" y1="1732.4" x2="1679.02" y2="1791.61"/>
			<line x1="1667.68" y1="1610.51" x2="1667.68" y2="1791.61"/>
			<line x1="1679.02" y1="1776.97" x2="1831.45" y2="1776.97"/>
		</g>
		<g id="evml.6.3" stroke="rgb(128,0,128)" stroke-width="2.0651" fill="rgb(128,0,128)" ev-style="Dimensions" ev-style-annotation="true">
			<g transform="translate(617.267,1525.09) rotate(0) scale(1,-1) ">
				<text x="0" y="0" font-size="23.2323" font-weight="400" font-family="Arial" text-anchor="start" dominant-baseline="baseline">PC [1.50]</text>
			</g>
			<line x1="900.44" y1="1514.92" x2="915.074" y2="1512.34"/>
			<line x1="915.074" y1="1512.34" x2="915.074" y2="1517.5"/>
			<line x1="915.074" y1="1517.5" x2="900.44" y2="1514.92"/>
			<line x1="894.77" y1="1514.92" x2="880.136" y2="1517.5"/>
			<line x1="880.136" y1="1517.5" x2="880.136" y2="1512.34"/>
			<line x1="880.136" y1="1512.34" x2="894.77" y2="1514.92"/>
			<line x1="910.44" y1="1514.92" x2="900.44" y2="1514.92"/>
			<line x1="884.77" y1="1514.92" x2="894.77" y2="1514.92"/>
			<line x1="900.44" y1="1595.88" x2="900.44" y2="1500.29"/>
			<line x1="894.77" y1="1595.88" x2="894.77" y2="1500.29"/>
			<line x1="894.77" y1="1514.92" x2="665.668" y2="1514.92"/>
		</g>
		<g id="evml.6.7" stroke="rgb(128,0,128)" stroke-width="2.0651" fill="rgb(128,0,128)" ev-style="Dimensions" ev-style-annotation="true">
			<g transform="translate(279.69,1638.88) rotate(90) scale(1,-1) ">
				<text x="0" y="0" font-size="23.2323" font-weight="400" font-family="Arial" text-anchor="start" dominant-baseline="baseline">BO [8.06]</text>
			</g>
			<line x1="289.863" y1="1603.19" x2="292.443" y2="1617.83"/>
			<line x1="292.443" y1="1617.83" x2="287.282" y2="1617.83"/>
			<line x1="287.282" y1="1617.83" x2="289.863" y2="1603.19"/>
			<line x1="289.863" y1="1633.67" x2="287.282" y2="1619.03"/>
			<line x1="287.282" y1="1619.03" x2="292.443" y2="1619.03"/>
			<line x1="292.443" y1="1619.03" x2="289.863" y2="1633.67"/>
			<line x1="289.863" y1="1603.19" x2="289.863" y2="1633.67"/>
			<line x1="323.359" y1="1603.19" x2="275.228" y2="1603.19"/>
			<line x1="323.359" y1="1633.67" x2="275.228" y2="1633.67"/>
			<line x1="289.863" y1="1633.67" x2="289.863" y2="1687.86"/>
		</g>
		<g id="evml.12.15" stroke="rgb(128,0,128)" stroke-width="2.0651" fill="rgb(128,0,128)" ev-style="Dimensions" ev-style-annotation="true">
			<g transform="translate(1435.08,1427.3) rotate(90) scale(1,-1) ">
				<text x="0" y="0" font-size="23.2323" font-weight="400" font-family="Arial" text-anchor="start" dominant-baseline="baseline">TPH [30.75]</text>
			</g>
			<line x1="1445.26" y1="1608.86" x2="1447.84" y2="1623.5"/>
			<line x1="1447.84" y1="1623.5" x2="1442.67" y2="1623.5"/>
			<line x1="1442.67" y1="1623.5" x2="1445.26" y2="1608.86"/>
			<line x1="1445.26" y1="1725.08" x2="1442.67" y2="1710.45"/>
			<line x1="1442.67" y1="1710.45" x2="1447.84" y2="1710.45"/>
			<line x1="1447.84" y1="1710.45" x2="1445.26" y2="1725.08"/>
			<line x1="1445.26" y1="1608.86" x2="1445.26" y2="1725.08"/>
			<line x1="1445.26" y1="1608.86" x2="1445.26" y2="1489.26"/>
		</g>
		<g id="evml.12.20" stroke="rgb(128,0,128)" stroke-width="2.0651" fill="rgb(128,0,128)" ev-style="Dimensions" ev-style-annotation="true">
			<g transform="translate(967.304,1796.47) rotate(0) scale(1,-1) ">
				<text x="0" y="0" font-size="23.2323" font-weight="400" font-family="Arial" text-anchor="start" dominant-baseline="baseline">DxTB1 [3.00]</text>
			</g>
			<line x1="917.448" y1="1786.3" x2="932.082" y2="1783.72"/>
			<line x1="932.082" y1="1783.72" x2="932.082" y2="1788.88"/>
			<line x1="932.082" y1="1788.88" x2="917.448" y2="1786.3"/>
			<line x1="906.109" y1="1786.3" x2="891.474" y2="1788.88"/>
			<line x1="891.474" y1="1788.88" x2="891.474" y2="1783.72"/>
			<line x1="891.474" y1="1783.72" x2="906.109" y2="1786.3"/>
			<line x1="927.448" y1="1786.3" x2="917.448" y2="1786.3"/>
			<line x1="896.109" y1="1786.3" x2="906.109" y2="1786.3"/>
			<line x1="917.448" y1="1732.4" x2="917.448" y2="1800.94"/>
			<line x1="906.109" y1="1610.51" x2="906.109" y2="1800.94"/>
			<line x1="917.448" y1="1786.3" x2="1034.97" y2="1786.3"/>
		</g>
		<g id="evml.12.21" stroke="rgb(128,0,128)" stroke-width="2.0651" fill="rgb(128,0,128)" ev-style="Dimensions" ev-style-annotation="true">
			<g transform="translate(1007.13,1559.65) rotate(0) scale(1,-1) ">
				<text x="0" y="0" font-size="23.2323" font-weight="400" font-family="Arial" text-anchor="start" dominant-baseline="baseline">CT1 [1.50]</text>
			</g>
			<line x1="906.109" y1="1549.48" x2="920.743" y2="1546.9"/>
			<line x1="920.743" y1="1546.9" x2="920.743" y2="1552.06"/>
			<line x1="920.743" y1="1552.06" x2="906.109" y2="1549.48"/>
			<line x1="900.44" y1="1549.48" x2="885.805" y2="1552.06"/>
			<line x1="885.805" y1="1552.06" x2="885.805" y2="1546.9"/>
			<line x1="885.805" y1="1546.9" x2="900.44" y2="1549.48"/>
			<line x1="916.109" y1="1549.48" x2="906.109" y2="1549.48"/>
			<line x1="890.44" y1="1549.48" x2="900.44" y2="1549.48"/>
			<line x1="906.109" y1="1595.88" x2="906.109" y2="1534.85"/>
			<line x1="900.44" y1="1595.88" x2="900.44" y2="1534.85"/>
			<line x1="906.109" y1="1549.48" x2="1061.34" y2="1549.48"/>
		</g>
	</g>
</svg>