<svg version="1.1" xmlns="http://www.w3.org/2000/svg" xmlns:xlink="http://www.w3.org/1999/xlink" width="3811.26" height="1274.19" viewBox="-1.33333 -153.05 3811.26 1274.19">
	<g transform="translate(-118.077,558.425) scale(1,-1) ">
		<line x1="843.747" y1="3.77953" x2="843.747" y2="558.425" stroke="rgb(0,255,0)" stroke-width="9.84897" ev-style="Creasing" ev-style-annotation="false"/>
		<line x1="843.747" y1="558.425" x2="118.077" y2="558.425" stroke="rgb(255,0,0)" stroke-width="9.84897" ev-style="Cutting" ev-style-annotation="false"/>
		<line x1="118.077" y1="558.425" x2="118.077" y2="0" stroke="rgb(255,0,0)" stroke-width="9.84897" ev-style="Cutting" ev-style-annotation="false"/>
		<line x1="1877.45" y1="558.425" x2="1877.45" y2="3.77953" stroke="rgb(0,255,0)" stroke-width="9.84897" ev-style="Creasing" ev-style-annotation="false"/>
		<line x1="843.747" y1="558.425" x2="1877.45" y2="558.425" stroke="rgb(255,0,0)" stroke-width="9.84897" ev-style="Cutting" ev-style-annotation="false"/>
		<line x1="2608.79" y1="3.77953" x2="2608.79" y2="558.425" stroke="rgb(0,255,0)" stroke-width="9.84897" ev-style="Creasing" ev-style-annotation="false"/>
		<line x1="2608.79" y1="558.425" x2="1877.45" y2="558.425" stroke="rgb(255,0,0)" stroke-width="9.84897" ev-style="Cutting" ev-style-annotation="false"/>
		<line x1="2608.79" y1="558.425" x2="3642.49" y2="558.425" stroke="rgb(255,0,0)" stroke-width="9.84897" ev-style="Cutting" ev-style-annotation="false"/>
		<line x1="1360.6" y1="198.859" x2="1360.6" y2="94.4882" stroke="rgb(64,128,128)" stroke-width="0"/>
		<line x1="1392.66" y1="129.278" x2="1392.66" y2="94.4882" stroke="rgb(64,128,128)" stroke-width="0"/>
		<line x1="1376.63" y1="164.069" x2="1376.63" y2="94.4882" stroke="rgb(64,128,128)" stroke-width="0"/>
		<line x1="1344.56" y1="233.649" x2="1344.56" y2="94.4882" stroke="rgb(64,128,128)" stroke-width="0"/>
		<line x1="1328.53" y1="268.44" x2="1328.53" y2="94.4882" stroke="rgb(64,128,128)" stroke-width="0"/>
		<line x1="1312.5" y1="303.23" x2="1312.5" y2="94.4882" stroke="rgb(64,128,128)" stroke-width="0"/>
		<line x1="1408.7" y1="94.4882" x2="1312.5" y2="94.4882" stroke="rgb(64,128,128)" stroke-width="0"/>
		<line x1="1312.5" y1="303.23" x2="1419.36" y2="196.202" stroke="rgb(64,128,128)" stroke-width="0"/>
		<path d="M1419.36,196.202 a100.552 100.552 0 0 1 -10.668,-101.714" fill="none" stroke="rgb(64,128,128)" stroke-width="0"/>
		<line x1="1408.7" y1="94.4882" x2="1312.5" y2="303.23" stroke="rgb(64,128,128)" stroke-width="0"/>
		<path d="M2608.79,3.77953 a7.55906 7.55906 0 0 1 -7.10319,-4.97371" fill="none" stroke="rgb(255,0,0)" stroke-width="9.84897" ev-style="Cutting" ev-style-annotation="false"/>
		<line x1="2601.68" y1="-1.19418" x2="2469.02" y2="-365.669" stroke="rgb(255,0,0)" stroke-width="9.84897" ev-style="Cutting" ev-style-annotation="false"/>
		<path d="M1877.45,3.77953 a7.55906 7.55906 0 0 0 5.34506,-2.214" fill="none" stroke="rgb(255,0,0)" stroke-width="9.84897" ev-style="Cutting" ev-style-annotation="false"/>
		<line x1="1882.79" y1="1.56553" x2="2250.03" y2="-365.669" stroke="rgb(255,0,0)" stroke-width="9.84897" ev-style="Cutting" ev-style-annotation="false"/>
		<line x1="2469.02" y1="-365.669" x2="2250.03" y2="-365.669" stroke="rgb(255,0,0)" stroke-width="9.84897" ev-style="Cutting" ev-style-annotation="false"/>
		<line x1="2602.24" y1="0" x2="1884.36" y2="0" stroke="rgb(0,255,0)" stroke-width="9.84897" ev-style="Creasing" ev-style-annotation="false"/>
		<path d="M843.747,3.77953 a7.55906 7.55906 0 0 1 -7.10319,-4.97371" fill="none" stroke="rgb(255,0,0)" stroke-width="9.84897" ev-style="Cutting" ev-style-annotation="false"/>
		<line x1="836.643" y1="-1.19418" x2="703.985" y2="-365.669" stroke="rgb(255,0,0)" stroke-width="9.84897" ev-style="Cutting" ev-style-annotation="false"/>
		<line x1="118.077" y1="0" x2="483.747" y2="-365.669" stroke="rgb(255,0,0)" stroke-width="9.84897" ev-style="Cutting" ev-style-annotation="false"/>
		<line x1="703.985" y1="-365.669" x2="483.747" y2="-365.669" stroke="rgb(255,0,0)" stroke-width="9.84897" ev-style="Cutting" ev-style-annotation="false"/>
		<line x1="837.2" y1="0" x2="118.077" y2="0" stroke="rgb(0,255,0)" stroke-width="9.84897" ev-style="Creasing" ev-style-annotation="false"/>
		<line x1="2616.35" y1="-95.8678" x2="2616.35" y2="-457.087" stroke="rgb(255,0,0)" stroke-width="9.84897" ev-style="Cutting" ev-style-annotation="false"/>
		<line x1="2616.35" y1="-457.087" x2="2883.04" y2="-457.087" stroke="rgb(255,0,0)" stroke-width="9.84897" ev-style="Cutting" ev-style-annotation="false"/>
		<line x1="2883.04" y1="-457.087" x2="2974.46" y2="-365.669" stroke="rgb(255,0,0)" stroke-width="9.84897" ev-style="Cutting" ev-style-annotation="false"/>
		<line x1="2974.46" y1="-365.669" x2="3125.64" y2="-365.669" stroke="rgb(255,0,0)" stroke-width="9.84897" ev-style="Cutting" ev-style-annotation="false"/>
		<line x1="3125.64" y1="-365.669" x2="3125.64" y2="-380.787" stroke="rgb(255,0,0)" stroke-width="9.84897" ev-style="Cutting" ev-style-annotation="false"/>
		<line x1="3125.64" y1="-380.787" x2="3201.94" y2="-457.087" stroke="rgb(255,0,0)" stroke-width="9.84897" ev-style="Cutting" ev-style-annotation="false"/>
		<line x1="3201.94" y1="-457.087" x2="3615.7" y2="-457.087" stroke="rgb(255,0,0)" stroke-width="9.84897" ev-style="Cutting" ev-style-annotation="false"/>
		<line x1="3639.65" y1="0" x2="3615.7" y2="-457.087" stroke="rgb(255,0,0)" stroke-width="9.84897" ev-style="Cutting" ev-style-annotation="false"/>
		<line x1="3639.65" y1="0" x2="2615.7" y2="0" stroke="rgb(0,255,0)" stroke-width="9.84897" ev-style="Creasing" ev-style-annotation="false"/>
		<line x1="2616.35" y1="-95.8678" x2="2663.95" y2="-48.2582" stroke="rgb(255,0,0)" stroke-width="9.84897" ev-style="Cutting" ev-style-annotation="false"/>
		<line x1="2614.13" y1="1.56553" x2="2663.95" y2="-48.2582" stroke="rgb(255,0,0)" stroke-width="9.84897" ev-style="Cutting" ev-style-annotation="false"/>
		<path d="M2608.79,3.77953 a7.55906 7.55906 0 0 0 5.34506,-2.214" fill="none" stroke="rgb(255,0,0)" stroke-width="9.84897" ev-style="Cutting" ev-style-annotation="false"/>
		<line x1="2974.46" y1="-365.669" x2="2660.5" y2="-51.7134" stroke="rgb(0,255,0)" stroke-width="9.84897" ev-style="Creasing" ev-style-annotation="false"/>
		<path d="M1877.45,3.77953 a7.55906 7.55906 0 0 1 -7.5487,-7.16344" fill="none" stroke="rgb(255,0,0)" stroke-width="9.84897" ev-style="Cutting" ev-style-annotation="false"/>
		<line x1="851.306" y1="-95.8678" x2="851.306" y2="-457.087" stroke="rgb(255,0,0)" stroke-width="9.84897" ev-style="Cutting" ev-style-annotation="false"/>
		<line x1="851.306" y1="-457.087" x2="1118" y2="-457.087" stroke="rgb(255,0,0)" stroke-width="9.84897" ev-style="Cutting" ev-style-annotation="false"/>
		<line x1="1118" y1="-457.087" x2="1209.42" y2="-365.669" stroke="rgb(255,0,0)" stroke-width="9.84897" ev-style="Cutting" ev-style-annotation="false"/>
		<line x1="1209.42" y1="-365.669" x2="1360.6" y2="-365.669" stroke="rgb(255,0,0)" stroke-width="9.84897" ev-style="Cutting" ev-style-annotation="false"/>
		<line x1="1360.6" y1="-365.669" x2="1360.6" y2="-380.787" stroke="rgb(255,0,0)" stroke-width="9.84897" ev-style="Cutting" ev-style-annotation="false"/>
		<line x1="1360.6" y1="-380.787" x2="1436.9" y2="-457.087" stroke="rgb(255,0,0)" stroke-width="9.84897" ev-style="Cutting" ev-style-annotation="false"/>
		<line x1="1436.9" y1="-457.087" x2="1846.12" y2="-457.087" stroke="rgb(255,0,0)" stroke-width="9.84897" ev-style="Cutting" ev-style-annotation="false"/>
		<line x1="1869.9" y1="-3.38392" x2="1846.12" y2="-457.087" stroke="rgb(255,0,0)" stroke-width="9.84897" ev-style="Cutting" ev-style-annotation="false"/>
		<line x1="1870.9" y1="0" x2="850.657" y2="0" stroke="rgb(0,255,0)" stroke-width="9.84897" ev-style="Creasing" ev-style-annotation="false"/>
		<line x1="851.306" y1="-95.8678" x2="898.915" y2="-48.2582" stroke="rgb(255,0,0)" stroke-width="9.84897" ev-style="Cutting" ev-style-annotation="false"/>
		<line x1="849.092" y1="1.56553" x2="898.915" y2="-48.2582" stroke="rgb(255,0,0)" stroke-width="9.84897" ev-style="Cutting" ev-style-annotation="false"/>
		<path d="M843.747,3.77953 a7.55906 7.55906 0 0 0 5.34506,-2.214" fill="none" stroke="rgb(255,0,0)" stroke-width="9.84897" ev-style="Cutting" ev-style-annotation="false"/>
		<line x1="1209.42" y1="-365.669" x2="895.46" y2="-51.7134" stroke="rgb(0,255,0)" stroke-width="9.84897" ev-style="Creasing" ev-style-annotation="false"/>
		<line x1="3642.49" y1="558.425" x2="3736.98" y2="558.425" stroke="rgb(255,0,0)" stroke-width="9.84897" ev-style="Cutting" ev-style-annotation="false"/>
		<line x1="3736.98" y1="558.425" x2="3736.98" y2="97.3228" stroke="rgb(255,0,0)" stroke-width="9.84897" ev-style="Cutting" ev-style-annotation="false"/>
		<line x1="3736.98" y1="97.3228" x2="3639.65" y2="0" stroke="rgb(255,0,0)" stroke-width="9.84897" ev-style="Cutting" ev-style-annotation="false"/>
		<line x1="3642.49" y1="558.425" x2="3642.49" y2="2.83465" stroke="rgb(0,255,0)" stroke-width="9.84897" ev-style="Creasing" ev-style-annotation="false"/>
		<g id="evml.1" stroke="rgb(128,0,128)" stroke-width="3.93959" fill="rgb(128,0,128)" ev-style="Dimensions" ev-style-annotation="true">
			<g transform="translate(3887.54,-17.2886) rotate(90) scale(1,-1) ">
				<text x="0" y="0" font-size="44.3204" font-weight="400" font-family="Arial" text-anchor="start" dominant-baseline="baseline">268.69</text>
			</g>
			<line x1="3900.08" y1="558.425" x2="3895.16" y2="530.507"/>
			<line x1="3895.16" y1="530.507" x2="3905.01" y2="530.507"/>
			<line x1="3905.01" y1="530.507" x2="3900.08" y2="558.425"/>
			<line x1="3900.08" y1="-457.087" x2="3905.01" y2="-429.168"/>
			<line x1="3905.01" y1="-429.168" x2="3895.16" y2="-429.168"/>
			<line x1="3895.16" y1="-429.168" x2="3900.08" y2="-457.087"/>
			<line x1="3900.08" y1="558.425" x2="3900.08" y2="-457.087"/>
			<line x1="3751.89" y1="558.425" x2="3928" y2="558.425"/>
			<line x1="3751.89" y1="-457.087" x2="3928" y2="-457.087"/>
		</g>
		<g id="evml.2" stroke="rgb(128,0,128)" stroke-width="3.93959" fill="rgb(128,0,128)" ev-style="Dimensions" ev-style-annotation="true">
			<g transform="translate(1859.57,666.97) rotate(0) scale(1,-1) ">
				<text x="0" y="0" font-size="44.3204" font-weight="400" font-family="Arial" text-anchor="start" dominant-baseline="baseline">957.50</text>
			</g>
			<line x1="118.077" y1="654.425" x2="145.996" y2="649.502"/>
			<line x1="145.996" y1="649.502" x2="145.996" y2="659.348"/>
			<line x1="145.996" y1="659.348" x2="118.077" y2="654.425"/>
			<line x1="3736.98" y1="654.425" x2="3709.06" y2="659.348"/>
			<line x1="3709.06" y1="659.348" x2="3709.06" y2="649.502"/>
			<line x1="3709.06" y1="649.502" x2="3736.98" y2="654.425"/>
			<line x1="118.077" y1="654.425" x2="3736.98" y2="654.425"/>
			<line x1="118.077" y1="573.344" x2="118.077" y2="682.344"/>
			<line x1="3736.98" y1="573.344" x2="3736.98" y2="682.344"/>
		</g>
		<g id="evml.7.35" stroke="rgb(128,0,128)" stroke-width="3.93959" fill="rgb(128,0,128)" ev-style="Dimensions" ev-style-annotation="true">
			<g transform="translate(301.117,378.067) rotate(0) scale(1,-1) ">
				<text x="0" y="0" font-size="44.3204" font-weight="400" font-family="Arial" text-anchor="start" dominant-baseline="baseline">Wss1 [192.00]</text>
			</g>
			<line x1="118.077" y1="365.522" x2="145.996" y2="360.599"/>
			<line x1="145.996" y1="360.599" x2="145.996" y2="370.445"/>
			<line x1="145.996" y1="370.445" x2="118.077" y2="365.522"/>
			<line x1="843.747" y1="365.522" x2="815.828" y2="370.445"/>
			<line x1="815.828" y1="370.445" x2="815.828" y2="360.599"/>
			<line x1="815.828" y1="360.599" x2="843.747" y2="365.522"/>
			<line x1="118.077" y1="365.522" x2="843.747" y2="365.522"/>
		</g>
		<g id="evml.7.36" stroke="rgb(128,0,128)" stroke-width="3.93959" fill="rgb(128,0,128)" ev-style="Dimensions" ev-style-annotation="true">
			<g transform="translate(2151.31,378.067) rotate(0) scale(1,-1) ">
				<text x="0" y="0" font-size="44.3204" font-weight="400" font-family="Arial" text-anchor="start" dominant-baseline="baseline">Wss [193.50]</text>
			</g>
			<line x1="1877.45" y1="365.522" x2="1905.37" y2="360.599"/>
			<line x1="1905.37" y1="360.599" x2="1905.37" y2="370.445"/>
			<line x1="1905.37" y1="370.445" x2="1877.45" y2="365.522"/>
			<line x1="2608.79" y1="365.522" x2="2580.87" y2="370.445"/>
			<line x1="2580.87" y1="370.445" x2="2580.87" y2="360.599"/>
			<line x1="2580.87" y1="360.599" x2="2608.79" y2="365.522"/>
			<line x1="1877.45" y1="365.522" x2="2608.79" y2="365.522"/>
		</g>
		<g id="evml.7.37" stroke="rgb(128,0,128)" stroke-width="3.93959" fill="rgb(128,0,128)" ev-style="Dimensions" ev-style-annotation="true">
			<g transform="translate(1199.67,378.067) rotate(0) scale(1,-1) ">
				<text x="0" y="0" font-size="44.3204" font-weight="400" font-family="Arial" text-anchor="start" dominant-baseline="baseline">Lss [273.50]</text>
			</g>
			<line x1="843.747" y1="365.522" x2="871.665" y2="360.599"/>
			<line x1="871.665" y1="360.599" x2="871.665" y2="370.445"/>
			<line x1="871.665" y1="370.445" x2="843.747" y2="365.522"/>
			<line x1="1877.45" y1="365.522" x2="1849.53" y2="370.445"/>
			<line x1="1849.53" y1="370.445" x2="1849.53" y2="360.599"/>
			<line x1="1849.53" y1="360.599" x2="1877.45" y2="365.522"/>
			<line x1="843.747" y1="365.522" x2="1877.45" y2="365.522"/>
		</g>
		<g id="evml.7.38" stroke="rgb(128,0,128)" stroke-width="3.93959" fill="rgb(128,0,128)" ev-style="Dimensions" ev-style-annotation="true">
			<g transform="translate(3539.74,62.1572) rotate(90) scale(1,-1) ">
				<text x="0" y="0" font-size="44.3204" font-weight="400" font-family="Arial" text-anchor="start" dominant-baseline="baseline">Hss [147.75]</text>
			</g>
			<line x1="3552.29" y1="558.425" x2="3547.36" y2="530.507"/>
			<line x1="3547.36" y1="530.507" x2="3557.21" y2="530.507"/>
			<line x1="3557.21" y1="530.507" x2="3552.29" y2="558.425"/>
			<line x1="3552.29" y1="0" x2="3557.21" y2="27.9183"/>
			<line x1="3557.21" y1="27.9183" x2="3547.36" y2="27.9183"/>
			<line x1="3547.36" y1="27.9183" x2="3552.29" y2="0"/>
			<line x1="3552.29" y1="558.425" x2="3552.29" y2="0"/>
			<line x1="1891.41" y1="558.425" x2="3580.2" y2="558.425"/>
			<line x1="1891.41" y1="0" x2="3580.2" y2="0"/>
		</g>
		<g id="evml.7.39" stroke="rgb(128,0,128)" stroke-width="3.93959" fill="rgb(128,0,128)" ev-style="Dimensions" ev-style-annotation="true">
			<g transform="translate(3034.45,378.067) rotate(0) scale(1,-1) ">
				<text x="0" y="0" font-size="44.3204" font-weight="400" font-family="Arial" text-anchor="start" dominant-baseline="baseline">Lss1 [273.50]</text>
			</g>
			<line x1="2608.79" y1="365.522" x2="2636.7" y2="360.599"/>
			<line x1="2636.7" y1="360.599" x2="2636.7" y2="370.445"/>
			<line x1="2636.7" y1="370.445" x2="2608.79" y2="365.522"/>
			<line x1="3642.49" y1="365.522" x2="3614.57" y2="370.445"/>
			<line x1="3614.57" y1="370.445" x2="3614.57" y2="360.599"/>
			<line x1="3614.57" y1="360.599" x2="3642.49" y2="365.522"/>
			<line x1="2608.79" y1="365.522" x2="3642.49" y2="365.522"/>
		</g>
		<g id="evml.81.10" stroke="rgb(128,0,128)" stroke-width="3.93959" fill="rgb(128,0,128)" ev-style="Dimensions" ev-style-annotation="true">
			<g transform="translate(3159.15,-420.568) rotate(90) scale(1,-1) ">
				<text x="0" y="0" font-size="44.3204" font-weight="400" font-family="Arial" text-anchor="start" dominant-baseline="baseline">CPL [4.00]</text>
			</g>
			<line x1="3171.69" y1="-380.787" x2="3166.77" y2="-408.706"/>
			<line x1="3166.77" y1="-408.706" x2="3176.62" y2="-408.706"/>
			<line x1="3176.62" y1="-408.706" x2="3171.69" y2="-380.787"/>
			<line x1="3171.69" y1="-365.669" x2="3176.62" y2="-337.751"/>
			<line x1="3176.62" y1="-337.751" x2="3166.77" y2="-337.751"/>
			<line x1="3166.77" y1="-337.751" x2="3171.69" y2="-365.669"/>
			<line x1="3171.69" y1="-390.787" x2="3171.69" y2="-380.787"/>
			<line x1="3171.69" y1="-355.669" x2="3171.69" y2="-365.669"/>
			<line x1="3139.6" y1="-380.787" x2="3199.61" y2="-380.787"/>
			<line x1="3139.6" y1="-365.669" x2="3199.61" y2="-365.669"/>
			<line x1="3171.69" y1="-365.669" x2="3171.69" y2="-315.861"/>
		</g>
		<g id="evml.81.14" stroke="rgb(128,0,128)" stroke-width="3.93959" fill="rgb(128,0,128)" ev-style="Dimensions" ev-style-annotation="true">
			<g transform="translate(3037.5,-562.717) rotate(90) scale(1,-1) ">
				<text x="0" y="0" font-size="44.3204" font-weight="400" font-family="Arial" text-anchor="start" dominant-baseline="baseline">Ext [24.19]</text>
			</g>
			<line x1="3050.05" y1="-457.087" x2="3054.97" y2="-429.168"/>
			<line x1="3054.97" y1="-429.168" x2="3045.12" y2="-429.168"/>
			<line x1="3045.12" y1="-429.168" x2="3050.05" y2="-457.087"/>
			<line x1="3050.05" y1="-365.669" x2="3045.12" y2="-393.588"/>
			<line x1="3045.12" y1="-393.588" x2="3054.97" y2="-393.588"/>
			<line x1="3054.97" y1="-393.588" x2="3050.05" y2="-365.669"/>
			<line x1="3050.05" y1="-457.087" x2="3050.05" y2="-365.669"/>
			<line x1="3187.98" y1="-457.087" x2="3022.13" y2="-457.087"/>
		</g>
		<g id="evml.82.2" stroke="rgb(128,0,128)" stroke-width="3.93959" fill="rgb(128,0,128)" ev-style="Dimensions" ev-style-annotation="true">
			<g transform="translate(1751.54,205.066) rotate(304) scale(1,-1) ">
				<text x="0" y="0" font-size="44.3204" font-weight="400" font-family="Arial" text-anchor="start" dominant-baseline="baseline">R </text>
			</g>
			<g transform="translate(1776.34,168.337) rotate(304) scale(1,-1) ">
				<text x="0" y="0" font-size="44.3204" font-weight="400" font-family="Arial" text-anchor="start" dominant-baseline="baseline">R1 [2.00]</text>
			</g>
			<line x1="1873.22" y1="2.48468" x2="1861.67" y2="28.3759"/>
			<line x1="1861.67" y1="28.3759" x2="1853.51" y2="22.8655"/>
			<line x1="1853.51" y1="22.8655" x2="1873.22" y2="2.48468"/>
			<line x1="1803.88" y1="105.152" x2="1873.22" y2="2.48468"/>
		</g>
		<g id="evml.82.3" stroke="rgb(128,0,128)" stroke-width="3.93959" fill="rgb(128,0,128)" ev-style="Dimensions" ev-style-annotation="true">
			<g transform="translate(1628.67,-58.1931) rotate(90) scale(1,-1) ">
				<text x="0" y="0" font-size="44.3204" font-weight="400" font-family="Arial" text-anchor="start" dominant-baseline="baseline">SE [1.00]</text>
			</g>
			<line x1="1641.21" y1="3.77953" x2="1646.13" y2="31.6979"/>
			<line x1="1646.13" y1="31.6979" x2="1636.29" y2="31.6979"/>
			<line x1="1636.29" y1="31.6979" x2="1641.21" y2="3.77953"/>
			<line x1="1641.21" y1="0" x2="1636.29" y2="-27.9183"/>
			<line x1="1636.29" y1="-27.9183" x2="1646.13" y2="-27.9183"/>
			<line x1="1646.13" y1="-27.9183" x2="1641.21" y2="0"/>
			<line x1="1641.21" y1="13.7795" x2="1641.21" y2="3.77953"/>
			<line x1="1641.21" y1="-10" x2="1641.21" y2="0"/>
			<line x1="1863.49" y1="3.77953" x2="1613.29" y2="3.77953"/>
			<line x1="1863.49" y1="0" x2="1613.29" y2="0"/>
			<line x1="1641.21" y1="3.77953" x2="1641.21" y2="32.8483"/>
		</g>
		<g id="evml.82.19" stroke="rgb(128,0,128)" stroke-width="3.93959" fill="rgb(128,0,128)" ev-style="Dimensions" ev-style-annotation="true">
			<g transform="translate(793.82,118.94) rotate(315) scale(1,-1) ">
				<text x="0" y="0" font-size="44.3204" font-weight="400" font-family="Arial" text-anchor="start" dominant-baseline="baseline">CB [19.35]</text>
			</g>
			<line x1="921.096" y1="-26.0773" x2="904.836" y2="-2.85518"/>
			<line x1="904.836" y1="-2.85518" x2="897.874" y2="-9.81701"/>
			<line x1="897.874" y1="-9.81701" x2="921.096" y2="-26.0773"/>
			<line x1="869.383" y1="25.6361" x2="885.643" y2="2.41393"/>
			<line x1="885.643" y1="2.41393" x2="892.605" y2="9.37576"/>
			<line x1="892.605" y1="9.37576" x2="869.383" y2="25.6361"/>
			<line x1="921.096" y1="-26.0773" x2="869.383" y2="25.6361"/>
			<line x1="908.786" y1="-38.3875" x2="940.837" y2="-6.33609"/>
			<line x1="853.617" y1="9.87063" x2="889.124" y2="45.3774"/>
			<line x1="869.383" y1="25.6361" x2="858.988" y2="36.0305"/>
		</g>
		<g id="evml.82.21" stroke="rgb(128,0,128)" stroke-width="3.93959" fill="rgb(128,0,128)" ev-style="Dimensions" ev-style-annotation="true">
			<g transform="translate(925.817,-353.677) rotate(45) scale(1,-1) ">
				<text x="0" y="0" font-size="44.3204" font-weight="400" font-family="Arial" text-anchor="start" dominant-baseline="baseline">CreaseOffset [0.00]</text>
			</g>
			<line x1="1070.49" y1="-226.746" x2="1047.27" y2="-243.006"/>
			<line x1="1047.27" y1="-243.006" x2="1054.23" y2="-249.968"/>
			<line x1="1054.23" y1="-249.968" x2="1070.49" y2="-226.746"/>
			<line x1="1070.49" y1="-226.743" x2="1093.71" y2="-210.483"/>
			<line x1="1093.71" y1="-210.483" x2="1086.75" y2="-203.521"/>
			<line x1="1086.75" y1="-203.521" x2="1070.49" y2="-226.743"/>
			<line x1="1063.42" y1="-233.817" x2="1070.49" y2="-226.746"/>
			<line x1="1077.56" y1="-219.672" x2="1070.49" y2="-226.743"/>
			<line x1="905.331" y1="-61.584" x2="1090.23" y2="-246.484"/>
		</g>
	</g>
</svg>