<svg version="1.1" xmlns="http://www.w3.org/2000/svg" xmlns:xlink="http://www.w3.org/1999/xlink" width="1285.95" height="1145.39" viewBox="-1.33333 -123.586 1285.95 1145.39">
	<g transform="translate(-69.1504,1062.56) scale(1,-1) ">
		<line x1="454.662" y1="268.858" x2="454.662" y2="833.897" stroke="rgb(0,255,0)" stroke-width="3.9854" ev-style="Creasing" ev-style-annotation="false"/>
		<line x1="681.434" y1="833.897" x2="681.434" y2="268.858" stroke="rgb(0,255,0)" stroke-width="3.9854" ev-style="Creasing" ev-style-annotation="false"/>
		<line x1="1021.59" y1="268.858" x2="1021.59" y2="833.897" stroke="rgb(0,255,0)" stroke-width="3.9854" ev-style="Creasing" ev-style-annotation="false"/>
		<line x1="1246.47" y1="833.897" x2="1246.47" y2="266.968" stroke="rgb(255,0,0)" stroke-width="3.9854" ev-style="Cutting" ev-style-annotation="false"/>
		<line x1="1246.47" y1="833.897" x2="1246.47" y2="833.897" stroke="rgb(255,0,0)" stroke-width="3.9854" ev-style="Cutting" ev-style-annotation="false"/>
		<line x1="1246.47" y1="833.897" x2="1246.47" y2="947.283" stroke="rgb(255,0,0)" stroke-width="3.9854" ev-style="Cutting" ev-style-annotation="false"/>
		<line x1="1021.59" y1="833.897" x2="1021.59" y2="833.897" stroke="rgb(255,0,0)" stroke-width="3.9854" ev-style="Cutting" ev-style-annotation="false"/>
		<line x1="1246.47" y1="833.897" x2="1021.59" y2="833.897" stroke="rgb(0,255,0)" stroke-width="3.9854" ev-style="Creasing" ev-style-annotation="false"/>
		<line x1="1021.59" y1="947.283" x2="1246.47" y2="947.283" stroke="rgb(255,0,0)" stroke-width="3.9854" ev-style="Cutting" ev-style-annotation="false"/>
		<line x1="681.434" y1="833.897" x2="681.434" y2="833.897" stroke="rgb(255,0,0)" stroke-width="3.9854" ev-style="Cutting" ev-style-annotation="false"/>
		<line x1="454.662" y1="833.897" x2="454.662" y2="833.897" stroke="rgb(255,0,0)" stroke-width="3.9854" ev-style="Cutting" ev-style-annotation="false"/>
		<line x1="681.434" y1="833.897" x2="454.662" y2="833.897" stroke="rgb(0,255,0)" stroke-width="3.9854" ev-style="Creasing" ev-style-annotation="false"/>
		<line x1="454.662" y1="947.283" x2="681.434" y2="947.283" stroke="rgb(255,0,0)" stroke-width="3.9854" ev-style="Cutting" ev-style-annotation="false"/>
		<line x1="1021.59" y1="833.897" x2="1021.59" y2="1062.56" stroke="rgb(255,0,0)" stroke-width="3.9854" ev-style="Cutting" ev-style-annotation="false"/>
		<line x1="1021.59" y1="1062.56" x2="681.434" y2="1062.56" stroke="rgb(255,0,0)" stroke-width="3.9854" ev-style="Cutting" ev-style-annotation="false"/>
		<line x1="681.434" y1="1062.56" x2="681.434" y2="833.897" stroke="rgb(255,0,0)" stroke-width="3.9854" ev-style="Cutting" ev-style-annotation="false"/>
		<line x1="681.434" y1="835.787" x2="1021.59" y2="835.787" stroke="rgb(0,255,0)" stroke-width="3.9854" ev-style="Creasing" ev-style-annotation="false"/>
		<line x1="454.662" y1="833.897" x2="454.662" y2="947.283" stroke="rgb(255,0,0)" stroke-width="3.9854" ev-style="Cutting" ev-style-annotation="false"/>
		<line x1="454.662" y1="947.283" x2="114.505" y2="947.283" stroke="rgb(255,0,0)" stroke-width="3.9854" ev-style="Cutting" ev-style-annotation="false"/>
		<line x1="114.505" y1="947.283" x2="114.505" y2="833.897" stroke="rgb(255,0,0)" stroke-width="3.9854" ev-style="Cutting" ev-style-annotation="false"/>
		<line x1="114.505" y1="835.787" x2="454.662" y2="835.787" stroke="rgb(0,255,0)" stroke-width="3.9854" ev-style="Creasing" ev-style-annotation="false"/>
		<line x1="568.048" y1="153.582" x2="568.048" y2="153.582" stroke="rgb(255,0,0)" stroke-width="3.9854" ev-style="Cutting" ev-style-annotation="false"/>
		<line x1="568.048" y1="153.582" x2="568.048" y2="153.582" stroke="rgb(255,0,0)" stroke-width="3.9854" ev-style="Cutting" ev-style-annotation="false"/>
		<line x1="568.048" y1="153.582" x2="462.221" y2="153.582" stroke="rgb(255,0,0)" stroke-width="3.9854" ev-style="Cutting" ev-style-annotation="false"/>
		<line x1="462.221" y1="153.582" x2="462.221" y2="231.767" stroke="rgb(255,0,0)" stroke-width="3.9854" ev-style="Cutting" ev-style-annotation="false"/>
		<path d="M454.662,268.858 a3.77953 3.77953 0 0 0 2.67253,-1.107" fill="none" stroke="rgb(255,0,0)" stroke-width="3.9854" ev-style="Cutting" ev-style-annotation="false"/>
		<line x1="678.721" y1="267.709" x2="568.048" y2="153.582" stroke="rgb(255,0,0)" stroke-width="3.9854" ev-style="Cutting" ev-style-annotation="false"/>
		<path d="M681.434,268.858 a3.77953 3.77953 0 0 1 -2.71328,-1.14838" fill="none" stroke="rgb(255,0,0)" stroke-width="3.9854" ev-style="Cutting" ev-style-annotation="false"/>
		<line x1="457.935" y1="266.968" x2="678.161" y2="266.968" stroke="rgb(0,255,0)" stroke-width="3.9854" ev-style="Creasing" ev-style-annotation="false"/>
		<line x1="457.335" y1="267.751" x2="477.77" y2="247.315" stroke="rgb(255,0,0)" stroke-width="3.9854" ev-style="Cutting" ev-style-annotation="false"/>
		<line x1="476.042" y1="245.588" x2="568.048" y2="153.582" stroke="rgb(0,255,0)" stroke-width="3.9854" ev-style="Creasing" ev-style-annotation="false"/>
		<line x1="462.221" y1="231.767" x2="477.77" y2="247.315" stroke="rgb(255,0,0)" stroke-width="3.9854" ev-style="Cutting" ev-style-annotation="false"/>
		<path d="M454.662,268.858 a3.77953 3.77953 0 0 1 -3.75331,-3.33511" fill="none" stroke="rgb(255,0,0)" stroke-width="3.9854" ev-style="Cutting" ev-style-annotation="false"/>
		<line x1="450.909" y1="265.523" x2="437.654" y2="153.582" stroke="rgb(255,0,0)" stroke-width="3.9854" ev-style="Cutting" ev-style-annotation="false"/>
		<line x1="114.505" y1="266.968" x2="114.505" y2="153.582" stroke="rgb(255,0,0)" stroke-width="3.9854" ev-style="Cutting" ev-style-annotation="false"/>
		<line x1="437.654" y1="153.582" x2="114.505" y2="153.582" stroke="rgb(255,0,0)" stroke-width="3.9854" ev-style="Cutting" ev-style-annotation="false"/>
		<line x1="451.389" y1="266.968" x2="114.505" y2="266.968" stroke="rgb(0,255,0)" stroke-width="3.9854" ev-style="Creasing" ev-style-annotation="false"/>
		<line x1="114.505" y1="266.968" x2="114.505" y2="266.968" stroke="rgb(255,0,0)" stroke-width="3.9854" ev-style="Cutting" ev-style-annotation="false"/>
		<line x1="1134.98" y1="153.582" x2="1134.98" y2="153.582" stroke="rgb(255,0,0)" stroke-width="3.9854" ev-style="Cutting" ev-style-annotation="false"/>
		<line x1="1134.98" y1="153.582" x2="1134.98" y2="153.582" stroke="rgb(255,0,0)" stroke-width="3.9854" ev-style="Cutting" ev-style-annotation="false"/>
		<line x1="1134.98" y1="153.582" x2="1029.15" y2="153.582" stroke="rgb(255,0,0)" stroke-width="3.9854" ev-style="Cutting" ev-style-annotation="false"/>
		<line x1="1029.15" y1="153.582" x2="1029.15" y2="231.767" stroke="rgb(255,0,0)" stroke-width="3.9854" ev-style="Cutting" ev-style-annotation="false"/>
		<path d="M1021.59,268.858 a3.77953 3.77953 0 0 0 2.67253,-1.107" fill="none" stroke="rgb(255,0,0)" stroke-width="3.9854" ev-style="Cutting" ev-style-annotation="false"/>
		<line x1="1246.47" y1="266.968" x2="1134.98" y2="153.582" stroke="rgb(255,0,0)" stroke-width="3.9854" ev-style="Cutting" ev-style-annotation="false"/>
		<line x1="1024.86" y1="266.968" x2="1246.47" y2="266.968" stroke="rgb(0,255,0)" stroke-width="3.9854" ev-style="Creasing" ev-style-annotation="false"/>
		<line x1="1246.47" y1="266.968" x2="1246.47" y2="266.968" stroke="rgb(255,0,0)" stroke-width="3.9854" ev-style="Cutting" ev-style-annotation="false"/>
		<line x1="1024.26" y1="267.751" x2="1044.7" y2="247.315" stroke="rgb(255,0,0)" stroke-width="3.9854" ev-style="Cutting" ev-style-annotation="false"/>
		<line x1="1042.97" y1="245.588" x2="1134.98" y2="153.582" stroke="rgb(0,255,0)" stroke-width="3.9854" ev-style="Creasing" ev-style-annotation="false"/>
		<line x1="1029.15" y1="231.767" x2="1044.7" y2="247.315" stroke="rgb(255,0,0)" stroke-width="3.9854" ev-style="Cutting" ev-style-annotation="false"/>
		<path d="M1021.59,268.858 a3.77953 3.77953 0 0 1 -3.74533,-3.27227" fill="none" stroke="rgb(255,0,0)" stroke-width="3.9854" ev-style="Cutting" ev-style-annotation="false"/>
		<line x1="1017.85" y1="265.585" x2="987.576" y2="42.0861" stroke="rgb(255,0,0)" stroke-width="3.9854" ev-style="Cutting" ev-style-annotation="false"/>
		<line x1="685.213" y1="265.078" x2="685.213" y2="42.0861" stroke="rgb(255,0,0)" stroke-width="3.9854" ev-style="Cutting" ev-style-annotation="false"/>
		<line x1="987.576" y1="42.0861" x2="685.213" y2="42.0861" stroke="rgb(255,0,0)" stroke-width="3.9854" ev-style="Cutting" ev-style-annotation="false"/>
		<line x1="1018.32" y1="266.968" x2="684.707" y2="266.968" stroke="rgb(0,255,0)" stroke-width="3.9854" ev-style="Creasing" ev-style-annotation="false"/>
		<path d="M681.434,268.858 a3.77953 3.77953 0 0 0 3.77953,-3.77953" fill="none" stroke="rgb(255,0,0)" stroke-width="3.9854" ev-style="Cutting" ev-style-annotation="false"/>
		<line x1="114.505" y1="833.897" x2="114.505" y2="266.968" stroke="rgb(0,255,0)" stroke-width="3.9854" ev-style="Creasing" ev-style-annotation="false"/>
		<line x1="114.505" y1="266.968" x2="69.1504" y2="312.322" stroke="rgb(255,0,0)" stroke-width="3.9854" ev-style="Cutting" ev-style-annotation="false"/>
		<line x1="69.1504" y1="312.322" x2="69.1504" y2="821.744" stroke="rgb(255,0,0)" stroke-width="3.9854" ev-style="Cutting" ev-style-annotation="false"/>
		<line x1="69.1504" y1="821.744" x2="114.505" y2="833.897" stroke="rgb(255,0,0)" stroke-width="3.9854" ev-style="Cutting" ev-style-annotation="false"/>
		<g id="evml.1" stroke="rgb(128,0,128)" stroke-width="1.59416" fill="rgb(128,0,128)" ev-style="Dimensions" ev-style-annotation="true">
			<g transform="translate(1332.9,524.823) rotate(90) scale(1,-1) ">
				<text x="0" y="0" font-size="17.9343" font-weight="400" font-family="Arial" text-anchor="start" dominant-baseline="baseline">270.00</text>
			</g>
			<line x1="1342.47" y1="1062.56" x2="1340.48" y2="1051.26"/>
			<line x1="1340.48" y1="1051.26" x2="1344.47" y2="1051.26"/>
			<line x1="1344.47" y1="1051.26" x2="1342.47" y2="1062.56"/>
			<line x1="1342.47" y1="42.0861" x2="1344.47" y2="53.3833"/>
			<line x1="1344.47" y1="53.3833" x2="1340.48" y2="53.3833"/>
			<line x1="1340.48" y1="53.3833" x2="1342.47" y2="42.0861"/>
			<line x1="1342.47" y1="1062.56" x2="1342.47" y2="42.0861"/>
			<line x1="1253.08" y1="1062.56" x2="1353.77" y2="1062.56"/>
			<line x1="1253.08" y1="42.0861" x2="1353.77" y2="42.0861"/>
		</g>
		<g id="evml.2" stroke="rgb(128,0,128)" stroke-width="1.59416" fill="rgb(128,0,128)" ev-style="Dimensions" ev-style-annotation="true">
			<g transform="translate(630.313,1168.14) rotate(0) scale(1,-1) ">
				<text x="0" y="0" font-size="17.9343" font-weight="400" font-family="Arial" text-anchor="start" dominant-baseline="baseline">311.50</text>
			</g>
			<line x1="69.1504" y1="1158.56" x2="80.4477" y2="1156.57"/>
			<line x1="80.4477" y1="1156.57" x2="80.4477" y2="1160.55"/>
			<line x1="80.4477" y1="1160.55" x2="69.1504" y2="1158.56"/>
			<line x1="1246.47" y1="1158.56" x2="1235.18" y2="1160.55"/>
			<line x1="1235.18" y1="1160.55" x2="1235.18" y2="1156.57"/>
			<line x1="1235.18" y1="1156.57" x2="1246.47" y2="1158.56"/>
			<line x1="69.1504" y1="1158.56" x2="1246.47" y2="1158.56"/>
			<line x1="69.1504" y1="1069.17" x2="69.1504" y2="1169.86"/>
			<line x1="1246.47" y1="1069.17" x2="1246.47" y2="1169.86"/>
		</g>
		<g id="evml.3" stroke="rgb(128,0,128)" stroke-width="1.59416" fill="rgb(128,0,128)" ev-style="Dimensions" ev-style-annotation="true">
			<g transform="translate(723.016,773.431) rotate(90) scale(1,-1) ">
				<text x="0" y="0" font-size="17.9343" font-weight="400" font-family="Arial" text-anchor="start" dominant-baseline="baseline">0.50</text>
			</g>
			<line x1="732.593" y1="835.787" x2="734.585" y2="847.084"/>
			<line x1="734.585" y1="847.084" x2="730.601" y2="847.084"/>
			<line x1="730.601" y1="847.084" x2="732.593" y2="835.787"/>
			<line x1="732.593" y1="833.897" x2="730.601" y2="822.6"/>
			<line x1="730.601" y1="822.6" x2="734.585" y2="822.6"/>
			<line x1="734.585" y1="822.6" x2="732.593" y2="833.897"/>
			<line x1="732.593" y1="845.787" x2="732.593" y2="835.787"/>
			<line x1="732.593" y1="823.897" x2="732.593" y2="833.897"/>
			<line x1="687.083" y1="833.897" x2="743.89" y2="833.897"/>
			<line x1="732.593" y1="833.897" x2="732.593" y2="790.917"/>
		</g>
		<g id="evml.1.1" stroke="rgb(128,0,128)" stroke-width="1.59416" fill="rgb(128,0,128)" ev-style="Dimensions" ev-style-annotation="true">
			<g transform="translate(279.72,427.185) rotate(0) scale(1,-1) ">
				<text x="0" y="0" font-size="17.9343" font-weight="400" font-family="Arial" text-anchor="start" dominant-baseline="baseline">A [90.00]</text>
			</g>
			<line x1="114.505" y1="417.609" x2="125.802" y2="415.617"/>
			<line x1="125.802" y1="415.617" x2="125.802" y2="419.601"/>
			<line x1="125.802" y1="419.601" x2="114.505" y2="417.609"/>
			<line x1="454.662" y1="417.609" x2="443.365" y2="419.601"/>
			<line x1="443.365" y1="419.601" x2="443.365" y2="415.617"/>
			<line x1="443.365" y1="415.617" x2="454.662" y2="417.609"/>
			<line x1="114.505" y1="417.609" x2="454.662" y2="417.609"/>
		</g>
		<g id="evml.1.2" stroke="rgb(128,0,128)" stroke-width="1.59416" fill="rgb(128,0,128)" ev-style="Dimensions" ev-style-annotation="true">
			<g transform="translate(528.717,427.132) rotate(0) scale(1,-1) ">
				<text x="0" y="0" font-size="17.9343" font-weight="400" font-family="Arial" text-anchor="start" dominant-baseline="baseline">B [60.00]</text>
			</g>
			<line x1="454.662" y1="417.555" x2="465.959" y2="415.563"/>
			<line x1="465.959" y1="415.563" x2="465.959" y2="419.547"/>
			<line x1="465.959" y1="419.547" x2="454.662" y2="417.555"/>
			<line x1="681.434" y1="417.555" x2="670.137" y2="419.547"/>
			<line x1="670.137" y1="419.547" x2="670.137" y2="415.563"/>
			<line x1="670.137" y1="415.563" x2="681.434" y2="417.555"/>
			<line x1="454.662" y1="417.555" x2="681.434" y2="417.555"/>
		</g>
		<g id="evml.1.3" stroke="rgb(128,0,128)" stroke-width="1.59416" fill="rgb(128,0,128)" ev-style="Dimensions" ev-style-annotation="true">
			<g transform="translate(802.275,427.132) rotate(0) scale(1,-1) ">
				<text x="0" y="0" font-size="17.9343" font-weight="400" font-family="Arial" text-anchor="start" dominant-baseline="baseline">A [90.00]</text>
			</g>
			<line x1="681.434" y1="417.555" x2="692.731" y2="415.563"/>
			<line x1="692.731" y1="415.563" x2="692.731" y2="419.547"/>
			<line x1="692.731" y1="419.547" x2="681.434" y2="417.555"/>
			<line x1="1021.59" y1="417.555" x2="1010.29" y2="419.547"/>
			<line x1="1010.29" y1="419.547" x2="1010.29" y2="415.563"/>
			<line x1="1010.29" y1="415.563" x2="1021.59" y2="417.555"/>
			<line x1="681.434" y1="417.555" x2="1021.59" y2="417.555"/>
		</g>
		<g id="evml.1.4" stroke="rgb(128,0,128)" stroke-width="1.59416" fill="rgb(128,0,128)" ev-style="Dimensions" ev-style-annotation="true">
			<g transform="translate(1081.12,427.132) rotate(0) scale(1,-1) ">
				<text x="0" y="0" font-size="17.9343" font-weight="400" font-family="Arial" text-anchor="start" dominant-baseline="baseline">B-GLC [59.50]</text>
			</g>
			<line x1="1021.59" y1="417.555" x2="1032.89" y2="415.563"/>
			<line x1="1032.89" y1="415.563" x2="1032.89" y2="419.547"/>
			<line x1="1032.89" y1="419.547" x2="1021.59" y2="417.555"/>
			<line x1="1246.47" y1="417.555" x2="1235.18" y2="419.547"/>
			<line x1="1235.18" y1="419.547" x2="1235.18" y2="415.563"/>
			<line x1="1235.18" y1="415.563" x2="1246.47" y2="417.555"/>
			<line x1="1021.59" y1="417.555" x2="1246.47" y2="417.555"/>
		</g>
		<g id="evml.1.5" stroke="rgb(128,0,128)" stroke-width="1.59416" fill="rgb(128,0,128)" ev-style="Dimensions" ev-style-annotation="true">
			<g transform="translate(924.057,577.599) rotate(90) scale(1,-1) ">
				<text x="0" y="0" font-size="17.9343" font-weight="400" font-family="Arial" text-anchor="start" dominant-baseline="baseline">H [150.00]</text>
			</g>
			<line x1="933.633" y1="266.968" x2="935.625" y2="278.265"/>
			<line x1="935.625" y1="278.265" x2="931.641" y2="278.265"/>
			<line x1="931.641" y1="278.265" x2="933.633" y2="266.968"/>
			<line x1="933.633" y1="833.897" x2="931.641" y2="822.6"/>
			<line x1="931.641" y1="822.6" x2="935.625" y2="822.6"/>
			<line x1="935.625" y1="822.6" x2="933.633" y2="833.897"/>
			<line x1="933.633" y1="266.968" x2="933.633" y2="833.897"/>
		</g>
		<g id="evml.7.6" stroke="rgb(128,0,128)" stroke-width="1.59416" fill="rgb(128,0,128)" ev-style="Dimensions" ev-style-annotation="true">
			<g transform="translate(1128.33,852.67) rotate(90) scale(1,-1) ">
				<text x="0" y="0" font-size="17.9343" font-weight="400" font-family="Arial" text-anchor="start" dominant-baseline="baseline">PH [30.00]</text>
			</g>
			<line x1="1137.91" y1="947.283" x2="1135.91" y2="935.986"/>
			<line x1="1135.91" y1="935.986" x2="1139.9" y2="935.986"/>
			<line x1="1139.9" y1="935.986" x2="1137.91" y2="947.283"/>
			<line x1="1137.91" y1="833.897" x2="1139.9" y2="845.194"/>
			<line x1="1139.9" y1="845.194" x2="1135.91" y2="845.194"/>
			<line x1="1135.91" y1="845.194" x2="1137.91" y2="833.897"/>
			<line x1="1137.91" y1="947.283" x2="1137.91" y2="833.897"/>
			<line x1="1027.24" y1="947.283" x2="1149.2" y2="947.283"/>
		</g>
		<g id="evml.9.2" stroke="rgb(128,0,128)" stroke-width="1.59416" fill="rgb(128,0,128)" ev-style="Dimensions" ev-style-annotation="true">
			<g transform="translate(923.97,900.219) rotate(90) scale(1,-1) ">
				<text x="0" y="0" font-size="17.9343" font-weight="400" font-family="Arial" text-anchor="start" dominant-baseline="baseline">PH [60.00]</text>
			</g>
			<line x1="933.546" y1="835.787" x2="935.538" y2="847.084"/>
			<line x1="935.538" y1="847.084" x2="931.554" y2="847.084"/>
			<line x1="931.554" y1="847.084" x2="933.546" y2="835.787"/>
			<line x1="933.546" y1="1062.56" x2="931.554" y2="1051.26"/>
			<line x1="931.554" y1="1051.26" x2="935.538" y2="1051.26"/>
			<line x1="935.538" y1="1051.26" x2="933.546" y2="1062.56"/>
			<line x1="933.546" y1="835.787" x2="933.546" y2="1062.56"/>
		</g>
	</g>
</svg>