<svg version="1.1" xmlns="http://www.w3.org/2000/svg" xmlns:xlink="http://www.w3.org/1999/xlink" width="1286.24" height="1206.97" viewBox="-1.33333 -124.094 1286.24 1206.97">
	<g transform="translate(-69.1504,1011.51) scale(1,-1) ">
		<line x1="454.662" y1="217.809" x2="454.662" y2="784.738" stroke="rgb(0,255,0)" stroke-width="4.08648" ev-style="Creasing" ev-style-annotation="false"/>
		<line x1="681.434" y1="784.738" x2="681.434" y2="217.809" stroke="rgb(0,255,0)" stroke-width="4.08648" ev-style="Creasing" ev-style-annotation="false"/>
		<line x1="454.662" y1="784.738" x2="681.434" y2="784.738" stroke="rgb(255,0,0)" stroke-width="4.08648" ev-style="Cutting" ev-style-annotation="false"/>
		<line x1="1021.59" y1="217.809" x2="1021.59" y2="784.738" stroke="rgb(0,255,0)" stroke-width="4.08648" ev-style="Creasing" ev-style-annotation="false"/>
		<line x1="1246.47" y1="784.738" x2="1246.47" y2="217.809" stroke="rgb(255,0,0)" stroke-width="4.08648" ev-style="Cutting" ev-style-annotation="false"/>
		<line x1="1021.59" y1="784.738" x2="1246.47" y2="784.738" stroke="rgb(255,0,0)" stroke-width="4.08648" ev-style="Cutting" ev-style-annotation="false"/>
		<line x1="117.339" y1="784.738" x2="117.339" y2="886.781" stroke="rgb(255,0,0)" stroke-width="4.08648" ev-style="Cutting" ev-style-annotation="false"/>
		<line x1="454.662" y1="784.738" x2="451.828" y2="784.738" stroke="rgb(255,0,0)" stroke-width="4.08648" ev-style="Cutting" ev-style-annotation="false"/>
		<line x1="451.828" y1="784.738" x2="451.828" y2="886.781" stroke="rgb(255,0,0)" stroke-width="4.08648" ev-style="Cutting" ev-style-annotation="false"/>
		<line x1="124.107" y1="905.075" x2="158.761" y2="945.505" stroke="rgb(255,0,0)" stroke-width="4.08648" ev-style="Cutting" ev-style-annotation="false"/>
		<line x1="165.528" y1="963.798" x2="165.528" y2="981.51" stroke="rgb(255,0,0)" stroke-width="4.08648" ev-style="Cutting" ev-style-annotation="false"/>
		<line x1="193.639" y1="1009.62" x2="375.528" y2="1009.62" stroke="rgb(255,0,0)" stroke-width="4.08648" ev-style="Cutting" ev-style-annotation="false"/>
		<line x1="403.639" y1="981.51" x2="403.639" y2="963.798" stroke="rgb(255,0,0)" stroke-width="4.08648" ev-style="Cutting" ev-style-annotation="false"/>
		<line x1="410.406" y1="945.505" x2="445.06" y2="905.075" stroke="rgb(255,0,0)" stroke-width="4.08648" ev-style="Cutting" ev-style-annotation="false"/>
		<line x1="117.339" y1="784.738" x2="451.828" y2="784.738" stroke="rgb(0,255,0)" stroke-width="4.08648" ev-style="Creasing" ev-style-annotation="false"/>
		<path d="M117.339,886.781 a28.1102 28.1102 0 0 0 6.76735,18.2939" fill="none" stroke="rgb(255,0,0)" stroke-width="4.08648" ev-style="Cutting" ev-style-annotation="false"/>
		<path d="M451.828,886.781 a28.1102 28.1102 0 0 1 -6.76735,18.2939" fill="none" stroke="rgb(255,0,0)" stroke-width="4.08648" ev-style="Cutting" ev-style-annotation="false"/>
		<path d="M158.761,945.505 a28.1102 28.1102 0 0 1 6.76735,18.2939" fill="none" stroke="rgb(255,0,0)" stroke-width="4.08648" ev-style="Cutting" ev-style-annotation="false"/>
		<path d="M403.639,963.798 a28.1102 28.1102 0 0 1 6.76735,-18.2939" fill="none" stroke="rgb(255,0,0)" stroke-width="4.08648" ev-style="Cutting" ev-style-annotation="false"/>
		<path d="M165.528,981.51 a28.1102 28.1102 0 0 0 28.1102,28.1102" fill="none" stroke="rgb(255,0,0)" stroke-width="4.08648" ev-style="Cutting" ev-style-annotation="false"/>
		<path d="M375.528,1009.62 a28.1102 28.1102 0 0 0 28.1102,-28.1102" fill="none" stroke="rgb(255,0,0)" stroke-width="4.08648" ev-style="Cutting" ev-style-annotation="false"/>
		<line x1="681.434" y1="784.738" x2="683.324" y2="784.738" stroke="rgb(255,0,0)" stroke-width="4.08648" ev-style="Cutting" ev-style-annotation="false"/>
		<line x1="683.324" y1="784.738" x2="683.324" y2="786.628" stroke="rgb(255,0,0)" stroke-width="4.08648" ev-style="Cutting" ev-style-annotation="false"/>
		<line x1="683.324" y1="1011.51" x2="1019.7" y2="1011.51" stroke="rgb(255,0,0)" stroke-width="4.08648" ev-style="Cutting" ev-style-annotation="false"/>
		<line x1="1019.7" y1="786.628" x2="1019.7" y2="784.738" stroke="rgb(255,0,0)" stroke-width="4.08648" ev-style="Cutting" ev-style-annotation="false"/>
		<line x1="1019.7" y1="784.738" x2="1021.59" y2="784.738" stroke="rgb(255,0,0)" stroke-width="4.08648" ev-style="Cutting" ev-style-annotation="false"/>
		<line x1="683.324" y1="786.628" x2="1019.7" y2="786.628" stroke="rgb(0,255,0)" stroke-width="4.08648" ev-style="Creasing" ev-style-annotation="false"/>
		<path d="M1019.7,1011.51 a82.5197 82.5197 0 0 0 74.9606,-48.0175" fill="none" stroke="rgb(255,0,0)" stroke-width="4.08648" ev-style="Cutting" ev-style-annotation="false"/>
		<line x1="1094.66" y1="963.493" x2="1094.66" y2="834.646" stroke="rgb(255,0,0)" stroke-width="4.08648" ev-style="Cutting" ev-style-annotation="false"/>
		<path d="M1094.66,834.646 a82.5197 82.5197 0 0 0 -74.9606,-48.0175" fill="none" stroke="rgb(255,0,0)" stroke-width="4.08648" ev-style="Cutting" ev-style-annotation="false"/>
		<line x1="1019.7" y1="1011.51" x2="1019.7" y2="1011.51" stroke="rgb(255,0,0)" stroke-width="4.08648" ev-style="Cutting" ev-style-annotation="false"/>
		<line x1="1019.7" y1="1011.51" x2="1019.7" y2="786.628" stroke="rgb(0,255,0)" stroke-width="4.08648" ev-style="Creasing" ev-style-annotation="false"/>
		<line x1="1019.7" y1="786.628" x2="1019.7" y2="786.628" stroke="rgb(255,0,0)" stroke-width="4.08648" ev-style="Cutting" ev-style-annotation="false"/>
		<path d="M683.324,786.628 a82.5197 82.5197 0 0 0 -74.9606,48.0175" fill="none" stroke="rgb(255,0,0)" stroke-width="4.08648" ev-style="Cutting" ev-style-annotation="false"/>
		<line x1="608.363" y1="834.646" x2="608.363" y2="963.493" stroke="rgb(255,0,0)" stroke-width="4.08648" ev-style="Cutting" ev-style-annotation="false"/>
		<path d="M608.363,963.493 a82.5197 82.5197 0 0 0 74.9606,48.0175" fill="none" stroke="rgb(255,0,0)" stroke-width="4.08648" ev-style="Cutting" ev-style-annotation="false"/>
		<line x1="683.324" y1="786.628" x2="683.324" y2="786.628" stroke="rgb(255,0,0)" stroke-width="4.08648" ev-style="Cutting" ev-style-annotation="false"/>
		<line x1="683.324" y1="786.628" x2="683.324" y2="1011.51" stroke="rgb(0,255,0)" stroke-width="4.08648" ev-style="Creasing" ev-style-annotation="false"/>
		<line x1="683.324" y1="1011.51" x2="683.324" y2="1011.51" stroke="rgb(255,0,0)" stroke-width="4.08648" ev-style="Cutting" ev-style-annotation="false"/>
		<line x1="114.505" y1="217.809" x2="69.1504" y2="229.962" stroke="rgb(255,0,0)" stroke-width="4.08648" ev-style="Cutting" ev-style-annotation="false"/>
		<line x1="69.1504" y1="229.962" x2="69.1504" y2="771.826" stroke="rgb(255,0,0)" stroke-width="4.08648" ev-style="Cutting" ev-style-annotation="false"/>
		<line x1="69.1504" y1="771.826" x2="117.339" y2="784.738" stroke="rgb(255,0,0)" stroke-width="4.08648" ev-style="Cutting" ev-style-annotation="false"/>
		<line x1="114.505" y1="217.809" x2="114.505" y2="783.979" stroke="rgb(0,255,0)" stroke-width="4.08648" ev-style="Creasing" ev-style-annotation="false"/>
		<line x1="1021.59" y1="-7.07261" x2="681.434" y2="-7.07261" stroke="rgb(255,0,0)" stroke-width="4.08648" ev-style="Cutting" ev-style-annotation="false"/>
		<line x1="681.434" y1="217.809" x2="1021.59" y2="217.809" stroke="rgb(0,255,0)" stroke-width="4.08648" ev-style="Creasing" ev-style-annotation="false"/>
		<line x1="454.662" y1="217.809" x2="458.442" y2="217.809" stroke="rgb(0,255,0)" stroke-width="4.08648" ev-style="Creasing" ev-style-annotation="false"/>
		<path d="M454.662,217.809 a3.77953 3.77953 0 0 0 3.77953,-3.77953" fill="none" stroke="rgb(255,0,0)" stroke-width="4.08648" ev-style="Cutting" ev-style-annotation="false"/>
		<line x1="1246.47" y1="217.809" x2="1242.69" y2="217.809" stroke="rgb(0,255,0)" stroke-width="4.08648" ev-style="Creasing" ev-style-annotation="false"/>
		<path d="M1246.47,217.809 a3.77953 3.77953 0 0 1 -3.77953,-3.77953" fill="none" stroke="rgb(255,0,0)" stroke-width="4.08648" ev-style="Cutting" ev-style-annotation="false"/>
		<line x1="681.434" y1="217.809" x2="681.434" y2="-7.07261" stroke="rgb(0,255,0)" stroke-width="4.08648" ev-style="Creasing" ev-style-annotation="false"/>
		<line x1="568.048" y1="104.423" x2="681.434" y2="217.809" stroke="rgb(0,255,0)" stroke-width="4.08648" ev-style="Creasing" ev-style-annotation="false"/>
		<line x1="458.442" y1="214.03" x2="458.442" y2="104.423" stroke="rgb(255,0,0)" stroke-width="4.08648" ev-style="Cutting" ev-style-annotation="false"/>
		<line x1="681.434" y1="-7.07261" x2="568.048" y2="-7.07261" stroke="rgb(255,0,0)" stroke-width="4.08648" ev-style="Cutting" ev-style-annotation="false"/>
		<line x1="568.048" y1="104.423" x2="458.442" y2="104.423" stroke="rgb(255,0,0)" stroke-width="4.08648" ev-style="Cutting" ev-style-annotation="false"/>
		<line x1="568.048" y1="-7.07261" x2="568.048" y2="104.423" stroke="rgb(255,0,0)" stroke-width="4.08648" ev-style="Cutting" ev-style-annotation="false"/>
		<line x1="681.434" y1="217.809" x2="458.442" y2="217.809" stroke="rgb(0,255,0)" stroke-width="4.08648" ev-style="Creasing" ev-style-annotation="false"/>
		<line x1="1021.59" y1="217.809" x2="1021.59" y2="-7.07261" stroke="rgb(0,255,0)" stroke-width="4.08648" ev-style="Creasing" ev-style-annotation="false"/>
		<line x1="1134.98" y1="104.423" x2="1021.59" y2="217.809" stroke="rgb(0,255,0)" stroke-width="4.08648" ev-style="Creasing" ev-style-annotation="false"/>
		<line x1="1242.69" y1="214.03" x2="1242.69" y2="104.423" stroke="rgb(255,0,0)" stroke-width="4.08648" ev-style="Cutting" ev-style-annotation="false"/>
		<line x1="1021.59" y1="-7.07261" x2="1134.98" y2="-7.07261" stroke="rgb(255,0,0)" stroke-width="4.08648" ev-style="Cutting" ev-style-annotation="false"/>
		<line x1="1134.98" y1="104.423" x2="1242.69" y2="104.423" stroke="rgb(255,0,0)" stroke-width="4.08648" ev-style="Cutting" ev-style-annotation="false"/>
		<line x1="1134.98" y1="-7.07261" x2="1134.98" y2="104.423" stroke="rgb(255,0,0)" stroke-width="4.08648" ev-style="Cutting" ev-style-annotation="false"/>
		<line x1="1021.59" y1="217.809" x2="1242.69" y2="217.809" stroke="rgb(0,255,0)" stroke-width="4.08648" ev-style="Creasing" ev-style-annotation="false"/>
		<line x1="451.012" y1="215.008" x2="394.246" y2="3.15443" stroke="rgb(255,0,0)" stroke-width="4.08648" ev-style="Cutting" ev-style-annotation="false"/>
		<line x1="375.992" y1="-10.8521" x2="193.175" y2="-10.8521" stroke="rgb(255,0,0)" stroke-width="4.08648" ev-style="Cutting" ev-style-annotation="false"/>
		<line x1="174.922" y1="3.15443" x2="118.156" y2="215.008" stroke="rgb(255,0,0)" stroke-width="4.08648" ev-style="Cutting" ev-style-annotation="false"/>
		<path d="M451.012,215.008 a3.77953 3.77953 0 0 0 3.65074,2.80131" fill="none" stroke="rgb(255,0,0)" stroke-width="4.08648" ev-style="Cutting" ev-style-annotation="false"/>
		<path d="M118.156,215.008 a3.77953 3.77953 0 0 1 -3.65074,2.80131" fill="none" stroke="rgb(255,0,0)" stroke-width="4.08648" ev-style="Cutting" ev-style-annotation="false"/>
		<path d="M394.246,3.15443 a18.8976 18.8976 0 0 0 -18.2537,-14.0066" fill="none" stroke="rgb(255,0,0)" stroke-width="4.08648" ev-style="Cutting" ev-style-annotation="false"/>
		<path d="M193.175,-10.8521 a18.8976 18.8976 0 0 0 -18.2537,14.0066" fill="none" stroke="rgb(255,0,0)" stroke-width="4.08648" ev-style="Cutting" ev-style-annotation="false"/>
		<line x1="451.389" y1="215.92" x2="117.778" y2="215.92" stroke="rgb(0,255,0)" stroke-width="4.08648" ev-style="Creasing" ev-style-annotation="false"/>
		<g id="evml.1" stroke="rgb(128,0,128)" stroke-width="1.63459" fill="rgb(128,0,128)" ev-style="Dimensions" ev-style-annotation="true">
			<g transform="translate(1332.85,472.132) rotate(90) scale(1,-1) ">
				<text x="0" y="0" font-size="18.3892" font-weight="400" font-family="Arial" text-anchor="start" dominant-baseline="baseline">270.50</text>
			</g>
			<line x1="1342.47" y1="1011.51" x2="1340.43" y2="999.926"/>
			<line x1="1340.43" y1="999.926" x2="1344.52" y2="999.926"/>
			<line x1="1344.52" y1="999.926" x2="1342.47" y2="1011.51"/>
			<line x1="1342.47" y1="-10.8521" x2="1344.52" y2="0.731594"/>
			<line x1="1344.52" y1="0.731594" x2="1340.43" y2="0.731594"/>
			<line x1="1340.43" y1="0.731594" x2="1342.47" y2="-10.8521"/>
			<line x1="1342.47" y1="1011.51" x2="1342.47" y2="-10.8521"/>
			<line x1="1253.23" y1="1011.51" x2="1354.06" y2="1011.51"/>
			<line x1="1253.23" y1="-10.8521" x2="1354.06" y2="-10.8521"/>
		</g>
		<g id="evml.2" stroke="rgb(128,0,128)" stroke-width="1.63459" fill="rgb(128,0,128)" ev-style="Dimensions" ev-style-annotation="true">
			<g transform="translate(629.615,1117.14) rotate(0) scale(1,-1) ">
				<text x="0" y="0" font-size="18.3892" font-weight="400" font-family="Arial" text-anchor="start" dominant-baseline="baseline">311.50</text>
			</g>
			<line x1="69.1504" y1="1107.51" x2="80.7342" y2="1105.47"/>
			<line x1="80.7342" y1="1105.47" x2="80.7342" y2="1109.55"/>
			<line x1="80.7342" y1="1109.55" x2="69.1504" y2="1107.51"/>
			<line x1="1246.47" y1="1107.51" x2="1234.89" y2="1109.55"/>
			<line x1="1234.89" y1="1109.55" x2="1234.89" y2="1105.47"/>
			<line x1="1234.89" y1="1105.47" x2="1246.47" y2="1107.51"/>
			<line x1="69.1504" y1="1107.51" x2="1246.47" y2="1107.51"/>
			<line x1="69.1504" y1="1018.26" x2="69.1504" y2="1119.09"/>
			<line x1="1246.47" y1="1018.26" x2="1246.47" y2="1119.09"/>
		</g>
		<g id="evml.1.1" stroke="rgb(128,0,128)" stroke-width="1.63459" fill="rgb(128,0,128)" ev-style="Dimensions" ev-style-annotation="true">
			<g transform="translate(278.811,327.794) rotate(0) scale(1,-1) ">
				<text x="0" y="0" font-size="18.3892" font-weight="400" font-family="Arial" text-anchor="start" dominant-baseline="baseline">A [90.00]</text>
			</g>
			<line x1="114.505" y1="318.166" x2="126.089" y2="316.124"/>
			<line x1="126.089" y1="316.124" x2="126.089" y2="320.209"/>
			<line x1="126.089" y1="320.209" x2="114.505" y2="318.166"/>
			<line x1="454.662" y1="318.166" x2="443.079" y2="320.209"/>
			<line x1="443.079" y1="320.209" x2="443.079" y2="316.124"/>
			<line x1="443.079" y1="316.124" x2="454.662" y2="318.166"/>
			<line x1="114.505" y1="318.166" x2="454.662" y2="318.166"/>
		</g>
		<g id="evml.1.2" stroke="rgb(128,0,128)" stroke-width="1.63459" fill="rgb(128,0,128)" ev-style="Dimensions" ev-style-annotation="true">
			<g transform="translate(527.807,327.794) rotate(0) scale(1,-1) ">
				<text x="0" y="0" font-size="18.3892" font-weight="400" font-family="Arial" text-anchor="start" dominant-baseline="baseline">B [60.00]</text>
			</g>
			<line x1="454.662" y1="318.166" x2="466.246" y2="316.124"/>
			<line x1="466.246" y1="316.124" x2="466.246" y2="320.209"/>
			<line x1="466.246" y1="320.209" x2="454.662" y2="318.166"/>
			<line x1="681.434" y1="318.166" x2="669.85" y2="320.209"/>
			<line x1="669.85" y1="320.209" x2="669.85" y2="316.124"/>
			<line x1="669.85" y1="316.124" x2="681.434" y2="318.166"/>
			<line x1="454.662" y1="318.166" x2="681.434" y2="318.166"/>
		</g>
		<g id="evml.1.3" stroke="rgb(128,0,128)" stroke-width="1.63459" fill="rgb(128,0,128)" ev-style="Dimensions" ev-style-annotation="true">
			<g transform="translate(801.365,327.794) rotate(0) scale(1,-1) ">
				<text x="0" y="0" font-size="18.3892" font-weight="400" font-family="Arial" text-anchor="start" dominant-baseline="baseline">A [90.00]</text>
			</g>
			<line x1="681.434" y1="318.166" x2="693.018" y2="316.124"/>
			<line x1="693.018" y1="316.124" x2="693.018" y2="320.209"/>
			<line x1="693.018" y1="320.209" x2="681.434" y2="318.166"/>
			<line x1="1021.59" y1="318.166" x2="1010.01" y2="320.209"/>
			<line x1="1010.01" y1="320.209" x2="1010.01" y2="316.124"/>
			<line x1="1010.01" y1="316.124" x2="1021.59" y2="318.166"/>
			<line x1="681.434" y1="318.166" x2="1021.59" y2="318.166"/>
		</g>
		<g id="evml.1.4" stroke="rgb(128,0,128)" stroke-width="1.63459" fill="rgb(128,0,128)" ev-style="Dimensions" ev-style-annotation="true">
			<g transform="translate(1079.67,327.794) rotate(0) scale(1,-1) ">
				<text x="0" y="0" font-size="18.3892" font-weight="400" font-family="Arial" text-anchor="start" dominant-baseline="baseline">B-GLC [59.50]</text>
			</g>
			<line x1="1021.59" y1="318.166" x2="1033.18" y2="316.124"/>
			<line x1="1033.18" y1="316.124" x2="1033.18" y2="320.209"/>
			<line x1="1033.18" y1="320.209" x2="1021.59" y2="318.166"/>
			<line x1="1246.47" y1="318.166" x2="1234.89" y2="320.209"/>
			<line x1="1234.89" y1="320.209" x2="1234.89" y2="316.124"/>
			<line x1="1234.89" y1="316.124" x2="1246.47" y2="318.166"/>
			<line x1="1021.59" y1="318.166" x2="1246.47" y2="318.166"/>
		</g>
		<g id="evml.1.5" stroke="rgb(128,0,128)" stroke-width="1.63459" fill="rgb(128,0,128)" ev-style="Dimensions" ev-style-annotation="true">
			<g transform="translate(953.738,527.391) rotate(90) scale(1,-1) ">
				<text x="0" y="0" font-size="18.3892" font-weight="400" font-family="Arial" text-anchor="start" dominant-baseline="baseline">H [150.00]</text>
			</g>
			<line x1="963.366" y1="217.809" x2="965.409" y2="229.393"/>
			<line x1="965.409" y1="229.393" x2="961.323" y2="229.393"/>
			<line x1="961.323" y1="229.393" x2="963.366" y2="217.809"/>
			<line x1="963.366" y1="784.738" x2="961.323" y2="773.155"/>
			<line x1="961.323" y1="773.155" x2="965.409" y2="773.155"/>
			<line x1="965.409" y1="773.155" x2="963.366" y2="784.738"/>
			<line x1="963.366" y1="217.809" x2="963.366" y2="784.738"/>
		</g>
		<g id="evml.16.3" stroke="rgb(128,0,128)" stroke-width="1.63459" fill="rgb(128,0,128)" ev-style="Dimensions" ev-style-annotation="true">
			<g transform="translate(202.535,856.65) rotate(90) scale(1,-1) ">
				<text x="0" y="0" font-size="18.3892" font-weight="400" font-family="Arial" text-anchor="start" dominant-baseline="baseline">IPH [59.50]</text>
			</g>
			<line x1="212.163" y1="784.738" x2="214.205" y2="796.322"/>
			<line x1="214.205" y1="796.322" x2="210.12" y2="796.322"/>
			<line x1="210.12" y1="796.322" x2="212.163" y2="784.738"/>
			<line x1="212.163" y1="1009.62" x2="210.12" y2="998.037"/>
			<line x1="210.12" y1="998.037" x2="214.205" y2="998.037"/>
			<line x1="214.205" y1="998.037" x2="212.163" y2="1009.62"/>
			<line x1="212.163" y1="784.738" x2="212.163" y2="1009.62"/>
		</g>
		<g id="evml.16.5" stroke="rgb(128,0,128)" stroke-width="1.63459" fill="rgb(128,0,128)" ev-style="Dimensions" ev-style-annotation="true">
			<g transform="translate(136.649,936.808) rotate(90) scale(1,-1) ">
				<text x="0" y="0" font-size="18.3892" font-weight="400" font-family="Arial" text-anchor="start" dominant-baseline="baseline">TH [14.88]</text>
			</g>
			<line x1="146.277" y1="953.4" x2="148.32" y2="964.984"/>
			<line x1="148.32" y1="964.984" x2="144.235" y2="964.984"/>
			<line x1="144.235" y1="964.984" x2="146.277" y2="953.4"/>
			<line x1="146.277" y1="1009.62" x2="144.235" y2="998.037"/>
			<line x1="144.235" y1="998.037" x2="148.32" y2="998.037"/>
			<line x1="148.32" y1="998.037" x2="146.277" y2="1009.62"/>
			<line x1="146.277" y1="953.4" x2="146.277" y2="1009.62"/>
			<line x1="159.737" y1="953.4" x2="134.693" y2="953.4"/>
			<line x1="187.847" y1="1009.62" x2="134.693" y2="1009.62"/>
		</g>
		<g id="evml.16.7" stroke="rgb(128,0,128)" stroke-width="1.63459" fill="rgb(128,0,128)" ev-style="Dimensions" ev-style-annotation="true">
			<g transform="translate(408.829,809.854) rotate(90) scale(1,-1) ">
				<text x="0" y="0" font-size="18.3892" font-weight="400" font-family="Arial" text-anchor="start" dominant-baseline="baseline">IPH1 [29.75]</text>
			</g>
			<line x1="418.457" y1="897.179" x2="416.414" y2="885.596"/>
			<line x1="416.414" y1="885.596" x2="420.5" y2="885.596"/>
			<line x1="420.5" y1="885.596" x2="418.457" y2="897.179"/>
			<line x1="418.457" y1="784.738" x2="420.5" y2="796.322"/>
			<line x1="420.5" y1="796.322" x2="416.414" y2="796.322"/>
			<line x1="416.414" y1="796.322" x2="418.457" y2="784.738"/>
			<line x1="418.457" y1="897.179" x2="418.457" y2="784.738"/>
			<line x1="446.036" y1="897.179" x2="406.873" y2="897.179"/>
		</g>
		<g id="evml.16.10" stroke="rgb(128,0,128)" stroke-width="1.63459" fill="rgb(128,0,128)" ev-style="Dimensions" ev-style-annotation="true">
			<g transform="translate(252.68,1056.05) rotate(0) scale(1,-1) ">
				<text x="0" y="0" font-size="18.3892" font-weight="400" font-family="Arial" text-anchor="start" dominant-baseline="baseline">TW [63.00]</text>
			</g>
			<line x1="165.528" y1="1046.42" x2="177.112" y2="1044.38"/>
			<line x1="177.112" y1="1044.38" x2="177.112" y2="1048.47"/>
			<line x1="177.112" y1="1048.47" x2="165.528" y2="1046.42"/>
			<line x1="403.639" y1="1046.42" x2="392.055" y2="1048.47"/>
			<line x1="392.055" y1="1048.47" x2="392.055" y2="1044.38"/>
			<line x1="392.055" y1="1044.38" x2="403.639" y2="1046.42"/>
			<line x1="165.528" y1="1046.42" x2="403.639" y2="1046.42"/>
			<line x1="165.528" y1="987.302" x2="165.528" y2="1058.01"/>
			<line x1="403.639" y1="987.302" x2="403.639" y2="1058.01"/>
		</g>
		<g id="evml.16.12" stroke="rgb(128,0,128)" stroke-width="1.63459" fill="rgb(128,0,128)" ev-style="Dimensions" ev-style-annotation="true">
			<g transform="translate(179.679,749.956) rotate(0) scale(1,-1) ">
				<text x="0" y="0" font-size="18.3892" font-weight="400" font-family="Arial" text-anchor="start" dominant-baseline="baseline">IPC1 [0.75]</text>
			</g>
			<line x1="114.505" y1="740.328" x2="102.921" y2="742.37"/>
			<line x1="102.921" y1="742.37" x2="102.921" y2="738.285"/>
			<line x1="102.921" y1="738.285" x2="114.505" y2="740.328"/>
			<line x1="117.339" y1="740.328" x2="128.923" y2="738.285"/>
			<line x1="128.923" y1="738.285" x2="128.923" y2="742.37"/>
			<line x1="128.923" y1="742.37" x2="117.339" y2="740.328"/>
			<line x1="104.505" y1="740.328" x2="114.505" y2="740.328"/>
			<line x1="127.339" y1="740.328" x2="117.339" y2="740.328"/>
			<line x1="114.505" y1="778.947" x2="114.505" y2="728.744"/>
			<line x1="117.339" y1="778.947" x2="117.339" y2="728.744"/>
			<line x1="117.339" y1="740.328" x2="225.652" y2="740.328"/>
		</g>
		<g id="evml.16.13" stroke="rgb(128,0,128)" stroke-width="1.63459" fill="rgb(128,0,128)" ev-style="Dimensions" ev-style-annotation="true">
			<g transform="translate(338.25,748.326) rotate(0) scale(1,-1) ">
				<text x="0" y="0" font-size="18.3892" font-weight="400" font-family="Arial" text-anchor="start" dominant-baseline="baseline">IPC2 [0.75]</text>
			</g>
			<line x1="451.828" y1="738.698" x2="440.244" y2="740.74"/>
			<line x1="440.244" y1="740.74" x2="440.244" y2="736.655"/>
			<line x1="440.244" y1="736.655" x2="451.828" y2="738.698"/>
			<line x1="454.662" y1="738.698" x2="466.246" y2="736.655"/>
			<line x1="466.246" y1="736.655" x2="466.246" y2="740.74"/>
			<line x1="466.246" y1="740.74" x2="454.662" y2="738.698"/>
			<line x1="441.828" y1="738.698" x2="451.828" y2="738.698"/>
			<line x1="464.662" y1="738.698" x2="454.662" y2="738.698"/>
			<line x1="451.828" y1="778.947" x2="451.828" y2="727.114"/>
			<line x1="454.662" y1="778.947" x2="454.662" y2="727.114"/>
			<line x1="451.828" y1="738.698" x2="384.223" y2="738.698"/>
		</g>
		<g id="evml.17.6" stroke="rgb(128,0,128)" stroke-width="1.63459" fill="rgb(128,0,128)" ev-style="Dimensions" ev-style-annotation="true">
			<g transform="translate(1051.22,750.246) rotate(0) scale(1,-1) ">
				<text x="0" y="0" font-size="18.3892" font-weight="400" font-family="Arial" text-anchor="start" dominant-baseline="baseline">PC2 [0.50]</text>
			</g>
			<line x1="1019.7" y1="740.618" x2="1008.12" y2="742.66"/>
			<line x1="1008.12" y1="742.66" x2="1008.12" y2="738.575"/>
			<line x1="1008.12" y1="738.575" x2="1019.7" y2="740.618"/>
			<line x1="1021.59" y1="740.618" x2="1033.18" y2="738.575"/>
			<line x1="1033.18" y1="738.575" x2="1033.18" y2="742.66"/>
			<line x1="1033.18" y1="742.66" x2="1021.59" y2="740.618"/>
			<line x1="1009.7" y1="740.618" x2="1019.7" y2="740.618"/>
			<line x1="1031.59" y1="740.618" x2="1021.59" y2="740.618"/>
			<line x1="1019.7" y1="778.947" x2="1019.7" y2="729.034"/>
			<line x1="1021.59" y1="778.947" x2="1021.59" y2="729.034"/>
			<line x1="1021.59" y1="740.618" x2="1094.66" y2="740.618"/>
		</g>
		<g id="evml.17.7" stroke="rgb(128,0,128)" stroke-width="1.63459" fill="rgb(128,0,128)" ev-style="Dimensions" ev-style-annotation="true">
			<g transform="translate(953.738,854.044) rotate(90) scale(1,-1) ">
				<text x="0" y="0" font-size="18.3892" font-weight="400" font-family="Arial" text-anchor="start" dominant-baseline="baseline">PH1 [59.50]</text>
			</g>
			<line x1="963.366" y1="786.628" x2="965.409" y2="798.212"/>
			<line x1="965.409" y1="798.212" x2="961.323" y2="798.212"/>
			<line x1="961.323" y1="798.212" x2="963.366" y2="786.628"/>
			<line x1="963.366" y1="1011.51" x2="961.323" y2="999.926"/>
			<line x1="961.323" y1="999.926" x2="965.409" y2="999.926"/>
			<line x1="965.409" y1="999.926" x2="963.366" y2="1011.51"/>
			<line x1="963.366" y1="786.628" x2="963.366" y2="1011.51"/>
		</g>
		<g id="evml.17.9" stroke="rgb(128,0,128)" stroke-width="1.63459" fill="rgb(128,0,128)" ev-style="Dimensions" ev-style-annotation="true">
			<g transform="translate(712.922,711.559) rotate(90) scale(1,-1) ">
				<text x="0" y="0" font-size="18.3892" font-weight="400" font-family="Arial" text-anchor="start" dominant-baseline="baseline">0.50</text>
			</g>
			<line x1="722.55" y1="786.628" x2="724.592" y2="798.212"/>
			<line x1="724.592" y1="798.212" x2="720.507" y2="798.212"/>
			<line x1="720.507" y1="798.212" x2="722.55" y2="786.628"/>
			<line x1="722.55" y1="784.738" x2="720.507" y2="773.155"/>
			<line x1="720.507" y1="773.155" x2="724.592" y2="773.155"/>
			<line x1="724.592" y1="773.155" x2="722.55" y2="784.738"/>
			<line x1="722.55" y1="796.628" x2="722.55" y2="786.628"/>
			<line x1="722.55" y1="774.738" x2="722.55" y2="784.738"/>
			<line x1="689.116" y1="784.738" x2="734.134" y2="784.738"/>
			<line x1="722.55" y1="784.738" x2="722.55" y2="729.489"/>
		</g>
		<g id="evml.19.4" stroke="rgb(128,0,128)" stroke-width="1.63459" fill="rgb(128,0,128)" ev-style="Dimensions" ev-style-annotation="true">
			<g transform="translate(616.749,888.823) rotate(0) scale(1,-1) ">
				<text x="0" y="0" font-size="18.3892" font-weight="400" font-family="Arial" text-anchor="start" dominant-baseline="baseline">TEH [19.83]</text>
			</g>
			<line x1="608.363" y1="879.195" x2="619.947" y2="877.152"/>
			<line x1="619.947" y1="877.152" x2="619.947" y2="881.237"/>
			<line x1="619.947" y1="881.237" x2="608.363" y2="879.195"/>
			<line x1="683.324" y1="879.195" x2="671.74" y2="881.237"/>
			<line x1="671.74" y1="881.237" x2="671.74" y2="877.152"/>
			<line x1="671.74" y1="877.152" x2="683.324" y2="879.195"/>
			<line x1="608.363" y1="879.195" x2="683.324" y2="879.195"/>
			<line x1="683.324" y1="874.94" x2="683.324" y2="890.779"/>
		</g>
		<g id="evml.27.2" stroke="rgb(128,0,128)" stroke-width="1.63459" fill="rgb(128,0,128)" ev-style="Dimensions" ev-style-annotation="true">
			<g transform="translate(953.738,66.492) rotate(90) scale(1,-1) ">
				<text x="0" y="0" font-size="18.3892" font-weight="400" font-family="Arial" text-anchor="start" dominant-baseline="baseline">PH [59.50]</text>
			</g>
			<line x1="963.366" y1="-7.07261" x2="965.409" y2="4.51112"/>
			<line x1="965.409" y1="4.51112" x2="961.323" y2="4.51112"/>
			<line x1="961.323" y1="4.51112" x2="963.366" y2="-7.07261"/>
			<line x1="963.366" y1="217.809" x2="961.323" y2="206.226"/>
			<line x1="961.323" y1="206.226" x2="965.409" y2="206.226"/>
			<line x1="965.409" y1="206.226" x2="963.366" y2="217.809"/>
			<line x1="963.366" y1="-7.07261" x2="963.366" y2="217.809"/>
		</g>
		<g id="evml.28.2" stroke="rgb(128,0,128)" stroke-width="1.63459" fill="rgb(128,0,128)" ev-style="Dimensions" ev-style-annotation="true">
			<g transform="translate(462.695,243.291) rotate(56.2) scale(1,-1) ">
				<text x="0" y="0" font-size="18.3892" font-weight="400" font-family="Arial" text-anchor="start" dominant-baseline="baseline">R </text>
			</g>
			<g transform="translate(472.938,258.563) rotate(56.2) scale(1,-1) ">
				<text x="0" y="0" font-size="18.3892" font-weight="400" font-family="Arial" text-anchor="start" dominant-baseline="baseline">FR [1.00]</text>
			</g>
			<line x1="456.768" y1="217.169" x2="464.916" y2="225.651"/>
			<line x1="464.916" y1="225.651" x2="461.524" y2="227.927"/>
			<line x1="461.524" y1="227.927" x2="456.768" y2="217.169"/>
			<line x1="496.853" y1="276.936" x2="456.768" y2="217.169"/>
		</g>
		<g id="evml.31.7" stroke="rgb(128,0,128)" stroke-width="1.63459" fill="rgb(128,0,128)" ev-style="Dimensions" ev-style-annotation="true">
			<g transform="translate(1147.8,287.011) rotate(0) scale(1,-1) ">
				<text x="0" y="0" font-size="18.3892" font-weight="400" font-family="Arial" text-anchor="start" dominant-baseline="baseline">WFC [1.00]</text>
			</g>
			<line x1="1242.69" y1="277.383" x2="1231.11" y2="279.426"/>
			<line x1="1231.11" y1="279.426" x2="1231.11" y2="275.341"/>
			<line x1="1231.11" y1="275.341" x2="1242.69" y2="277.383"/>
			<line x1="1246.47" y1="277.383" x2="1258.06" y2="275.341"/>
			<line x1="1258.06" y1="275.341" x2="1258.06" y2="279.426"/>
			<line x1="1258.06" y1="279.426" x2="1246.47" y2="277.383"/>
			<line x1="1232.69" y1="277.383" x2="1242.69" y2="277.383"/>
			<line x1="1256.47" y1="277.383" x2="1246.47" y2="277.383"/>
			<line x1="1242.69" y1="223.601" x2="1242.69" y2="288.967"/>
			<line x1="1246.47" y1="223.601" x2="1246.47" y2="288.967"/>
			<line x1="1242.69" y1="277.383" x2="1194.47" y2="277.383"/>
		</g>
		<g id="evml.32.41" stroke="rgb(128,0,128)" stroke-width="1.63459" fill="rgb(128,0,128)" ev-style="Dimensions" ev-style-annotation="true">
			<g transform="translate(386.266,235.83) rotate(307.5) scale(1,-1) ">
				<text x="0" y="0" font-size="18.3892" font-weight="400" font-family="Arial" text-anchor="start" dominant-baseline="baseline">BAng1 [75.00]</text>
			</g>
			<g transform="translate(457.258,143.311) rotate(307.5) scale(1,-1) ">
				<text x="0" y="0" font-size="18.3892" font-weight="400" font-family="Symbol" text-anchor="start" dominant-baseline="baseline"></text>
			</g>
			<line x1="400.542" y1="217.809" x2="399.823" y2="206.069"/>
			<line x1="399.823" y1="206.069" x2="403.882" y2="206.531"/>
			<line x1="403.882" y1="206.531" x2="400.542" y2="217.809"/>
			<line x1="438.505" y1="168.335" x2="428.476" y2="174.479"/>
			<line x1="428.476" y1="174.479" x2="426.979" y2="170.678"/>
			<line x1="426.979" y1="170.678" x2="438.505" y2="168.335"/>
			<path d="M400.542,217.809 a51.2197 51.2197 0 0 1 37.9631,-49.4744" fill="none"/>
			<line x1="448.87" y1="217.809" x2="388.959" y2="217.809"/>
		</g>
		<g id="evml.32.45" stroke="rgb(128,0,128)" stroke-width="1.63459" fill="rgb(128,0,128)" ev-style="Dimensions" ev-style-annotation="true">
			<g transform="translate(370.383,31.1704) rotate(307.5) scale(1,-1) ">
				<text x="0" y="0" font-size="18.3892" font-weight="400" font-family="Arial" text-anchor="start" dominant-baseline="baseline">R </text>
			</g>
			<g transform="translate(381.578,16.5813) rotate(307.5) scale(1,-1) ">
				<text x="0" y="0" font-size="18.3892" font-weight="400" font-family="Arial" text-anchor="start" dominant-baseline="baseline">TPFR1 [5.00]</text>
			</g>
			<line x1="387.496" y1="-6.947" x2="392.927" y2="-17.3804"/>
			<line x1="392.927" y1="-17.3804" x2="396.168" y2="-14.8936"/>
			<line x1="396.168" y1="-14.8936" x2="387.496" y2="-6.947"/>
			<line x1="401.599" y1="-25.327" x2="387.496" y2="-6.947"/>
		</g>
		<g id="evml.32.47" stroke="rgb(128,0,128)" stroke-width="1.63459" fill="rgb(128,0,128)" ev-style="Dimensions" ev-style-annotation="true">
			<g transform="translate(279.945,72.0518) rotate(90) scale(1,-1) ">
				<text x="0" y="0" font-size="18.3892" font-weight="400" font-family="Arial" text-anchor="start" dominant-baseline="baseline">TPH [60.00]</text>
			</g>
			<line x1="289.573" y1="215.92" x2="287.531" y2="204.336"/>
			<line x1="287.531" y1="204.336" x2="291.616" y2="204.336"/>
			<line x1="291.616" y1="204.336" x2="289.573" y2="215.92"/>
			<line x1="289.573" y1="-10.8521" x2="291.616" y2="0.731594"/>
			<line x1="291.616" y1="0.731594" x2="287.531" y2="0.731594"/>
			<line x1="287.531" y1="0.731594" x2="289.573" y2="-10.8521"/>
			<line x1="289.573" y1="215.92" x2="289.573" y2="-10.8521"/>
		</g>
	</g>
</svg>