<svg version="1.1" xmlns="http://www.w3.org/2000/svg" xmlns:xlink="http://www.w3.org/1999/xlink" width="1286.68" height="1218.49" viewBox="-1.33333 -124.874 1286.68 1218.49">
	<g transform="translate(-69.1504,1011.51) scale(1,-1) ">
		<line x1="114.505" y1="217.809" x2="454.662" y2="217.809" stroke="rgb(255,0,0)" stroke-width="4.24174" ev-style="Cutting" ev-style-annotation="false"/>
		<line x1="454.662" y1="217.809" x2="454.662" y2="784.738" stroke="rgb(0,255,0)" stroke-width="4.24174" ev-style="Creasing" ev-style-annotation="false"/>
		<line x1="681.434" y1="784.738" x2="681.434" y2="217.809" stroke="rgb(0,255,0)" stroke-width="4.24174" ev-style="Creasing" ev-style-annotation="false"/>
		<line x1="454.662" y1="784.738" x2="681.434" y2="784.738" stroke="rgb(255,0,0)" stroke-width="4.24174" ev-style="Cutting" ev-style-annotation="false"/>
		<line x1="1021.59" y1="217.809" x2="1021.59" y2="784.738" stroke="rgb(0,255,0)" stroke-width="4.24174" ev-style="Creasing" ev-style-annotation="false"/>
		<line x1="681.434" y1="217.809" x2="1021.59" y2="217.809" stroke="rgb(255,0,0)" stroke-width="4.24174" ev-style="Cutting" ev-style-annotation="false"/>
		<line x1="1246.47" y1="784.738" x2="1246.47" y2="217.809" stroke="rgb(255,0,0)" stroke-width="4.24174" ev-style="Cutting" ev-style-annotation="false"/>
		<line x1="1021.59" y1="784.738" x2="1246.47" y2="784.738" stroke="rgb(255,0,0)" stroke-width="4.24174" ev-style="Cutting" ev-style-annotation="false"/>
		<line x1="117.339" y1="784.738" x2="117.339" y2="886.781" stroke="rgb(255,0,0)" stroke-width="4.24174" ev-style="Cutting" ev-style-annotation="false"/>
		<line x1="454.662" y1="784.738" x2="451.828" y2="784.738" stroke="rgb(255,0,0)" stroke-width="4.24174" ev-style="Cutting" ev-style-annotation="false"/>
		<line x1="451.828" y1="784.738" x2="451.828" y2="886.781" stroke="rgb(255,0,0)" stroke-width="4.24174" ev-style="Cutting" ev-style-annotation="false"/>
		<line x1="124.107" y1="905.075" x2="158.761" y2="945.505" stroke="rgb(255,0,0)" stroke-width="4.24174" ev-style="Cutting" ev-style-annotation="false"/>
		<line x1="165.528" y1="963.798" x2="165.528" y2="981.51" stroke="rgb(255,0,0)" stroke-width="4.24174" ev-style="Cutting" ev-style-annotation="false"/>
		<line x1="193.639" y1="1009.62" x2="375.528" y2="1009.62" stroke="rgb(255,0,0)" stroke-width="4.24174" ev-style="Cutting" ev-style-annotation="false"/>
		<line x1="403.639" y1="981.51" x2="403.639" y2="963.798" stroke="rgb(255,0,0)" stroke-width="4.24174" ev-style="Cutting" ev-style-annotation="false"/>
		<line x1="410.406" y1="945.505" x2="445.06" y2="905.075" stroke="rgb(255,0,0)" stroke-width="4.24174" ev-style="Cutting" ev-style-annotation="false"/>
		<line x1="117.339" y1="784.738" x2="451.828" y2="784.738" stroke="rgb(0,255,0)" stroke-width="4.24174" ev-style="Creasing" ev-style-annotation="false"/>
		<path d="M117.339,886.781 a28.1102 28.1102 0 0 0 6.76735,18.2939" fill="none" stroke="rgb(255,0,0)" stroke-width="4.24174" ev-style="Cutting" ev-style-annotation="false"/>
		<path d="M451.828,886.781 a28.1102 28.1102 0 0 1 -6.76735,18.2939" fill="none" stroke="rgb(255,0,0)" stroke-width="4.24174" ev-style="Cutting" ev-style-annotation="false"/>
		<path d="M158.761,945.505 a28.1102 28.1102 0 0 1 6.76735,18.2939" fill="none" stroke="rgb(255,0,0)" stroke-width="4.24174" ev-style="Cutting" ev-style-annotation="false"/>
		<path d="M403.639,963.798 a28.1102 28.1102 0 0 1 6.76735,-18.2939" fill="none" stroke="rgb(255,0,0)" stroke-width="4.24174" ev-style="Cutting" ev-style-annotation="false"/>
		<path d="M165.528,981.51 a28.1102 28.1102 0 0 0 28.1102,28.1102" fill="none" stroke="rgb(255,0,0)" stroke-width="4.24174" ev-style="Cutting" ev-style-annotation="false"/>
		<path d="M375.528,1009.62 a28.1102 28.1102 0 0 0 28.1102,-28.1102" fill="none" stroke="rgb(255,0,0)" stroke-width="4.24174" ev-style="Cutting" ev-style-annotation="false"/>
		<line x1="681.434" y1="784.738" x2="683.324" y2="784.738" stroke="rgb(255,0,0)" stroke-width="4.24174" ev-style="Cutting" ev-style-annotation="false"/>
		<line x1="683.324" y1="784.738" x2="683.324" y2="786.628" stroke="rgb(255,0,0)" stroke-width="4.24174" ev-style="Cutting" ev-style-annotation="false"/>
		<line x1="683.324" y1="1011.51" x2="1019.7" y2="1011.51" stroke="rgb(255,0,0)" stroke-width="4.24174" ev-style="Cutting" ev-style-annotation="false"/>
		<line x1="1019.7" y1="786.628" x2="1019.7" y2="784.738" stroke="rgb(255,0,0)" stroke-width="4.24174" ev-style="Cutting" ev-style-annotation="false"/>
		<line x1="1019.7" y1="784.738" x2="1021.59" y2="784.738" stroke="rgb(255,0,0)" stroke-width="4.24174" ev-style="Cutting" ev-style-annotation="false"/>
		<line x1="683.324" y1="786.628" x2="1019.7" y2="786.628" stroke="rgb(0,255,0)" stroke-width="4.24174" ev-style="Creasing" ev-style-annotation="false"/>
		<path d="M1019.7,1011.51 a82.5197 82.5197 0 0 0 74.9606,-48.0175" fill="none" stroke="rgb(255,0,0)" stroke-width="4.24174" ev-style="Cutting" ev-style-annotation="false"/>
		<line x1="1094.66" y1="963.493" x2="1094.66" y2="834.646" stroke="rgb(255,0,0)" stroke-width="4.24174" ev-style="Cutting" ev-style-annotation="false"/>
		<path d="M1094.66,834.646 a82.5197 82.5197 0 0 0 -74.9606,-48.0175" fill="none" stroke="rgb(255,0,0)" stroke-width="4.24174" ev-style="Cutting" ev-style-annotation="false"/>
		<line x1="1019.7" y1="1011.51" x2="1019.7" y2="1011.51" stroke="rgb(255,0,0)" stroke-width="4.24174" ev-style="Cutting" ev-style-annotation="false"/>
		<line x1="1019.7" y1="1011.51" x2="1019.7" y2="786.628" stroke="rgb(0,255,0)" stroke-width="4.24174" ev-style="Creasing" ev-style-annotation="false"/>
		<line x1="1019.7" y1="786.628" x2="1019.7" y2="786.628" stroke="rgb(255,0,0)" stroke-width="4.24174" ev-style="Cutting" ev-style-annotation="false"/>
		<path d="M683.324,786.628 a82.5197 82.5197 0 0 0 -74.9606,48.0175" fill="none" stroke="rgb(255,0,0)" stroke-width="4.24174" ev-style="Cutting" ev-style-annotation="false"/>
		<line x1="608.363" y1="834.646" x2="608.363" y2="963.493" stroke="rgb(255,0,0)" stroke-width="4.24174" ev-style="Cutting" ev-style-annotation="false"/>
		<path d="M608.363,963.493 a82.5197 82.5197 0 0 0 74.9606,48.0175" fill="none" stroke="rgb(255,0,0)" stroke-width="4.24174" ev-style="Cutting" ev-style-annotation="false"/>
		<line x1="683.324" y1="786.628" x2="683.324" y2="786.628" stroke="rgb(255,0,0)" stroke-width="4.24174" ev-style="Cutting" ev-style-annotation="false"/>
		<line x1="683.324" y1="786.628" x2="683.324" y2="1011.51" stroke="rgb(0,255,0)" stroke-width="4.24174" ev-style="Creasing" ev-style-annotation="false"/>
		<line x1="683.324" y1="1011.51" x2="683.324" y2="1011.51" stroke="rgb(255,0,0)" stroke-width="4.24174" ev-style="Cutting" ev-style-annotation="false"/>
		<line x1="114.505" y1="217.809" x2="69.1504" y2="229.962" stroke="rgb(255,0,0)" stroke-width="4.24174" ev-style="Cutting" ev-style-annotation="false"/>
		<line x1="69.1504" y1="229.962" x2="69.1504" y2="771.826" stroke="rgb(255,0,0)" stroke-width="4.24174" ev-style="Cutting" ev-style-annotation="false"/>
		<line x1="69.1504" y1="771.826" x2="117.339" y2="784.738" stroke="rgb(255,0,0)" stroke-width="4.24174" ev-style="Cutting" ev-style-annotation="false"/>
		<line x1="114.505" y1="217.809" x2="114.505" y2="783.979" stroke="rgb(0,255,0)" stroke-width="4.24174" ev-style="Creasing" ev-style-annotation="false"/>
		<line x1="1021.59" y1="217.809" x2="1032.93" y2="206.471" stroke="rgb(255,0,0)" stroke-width="4.24174" ev-style="Cutting" ev-style-annotation="false"/>
		<line x1="1032.93" y1="206.471" x2="1032.93" y2="104.423" stroke="rgb(255,0,0)" stroke-width="4.24174" ev-style="Cutting" ev-style-annotation="false"/>
		<line x1="1235.13" y1="104.423" x2="1235.13" y2="206.471" stroke="rgb(255,0,0)" stroke-width="4.24174" ev-style="Cutting" ev-style-annotation="false"/>
		<line x1="1235.13" y1="206.471" x2="1246.47" y2="217.809" stroke="rgb(255,0,0)" stroke-width="4.24174" ev-style="Cutting" ev-style-annotation="false"/>
		<line x1="1021.59" y1="217.809" x2="1246.47" y2="217.809" stroke="rgb(0,255,0)" stroke-width="4.24174" ev-style="Creasing" ev-style-annotation="false"/>
		<line x1="454.662" y1="217.809" x2="466.001" y2="206.471" stroke="rgb(255,0,0)" stroke-width="4.24174" ev-style="Cutting" ev-style-annotation="false"/>
		<line x1="466.001" y1="206.471" x2="466.001" y2="104.423" stroke="rgb(255,0,0)" stroke-width="4.24174" ev-style="Cutting" ev-style-annotation="false"/>
		<line x1="670.095" y1="104.423" x2="670.095" y2="206.471" stroke="rgb(255,0,0)" stroke-width="4.24174" ev-style="Cutting" ev-style-annotation="false"/>
		<line x1="670.095" y1="206.471" x2="681.434" y2="217.809" stroke="rgb(255,0,0)" stroke-width="4.24174" ev-style="Cutting" ev-style-annotation="false"/>
		<line x1="454.662" y1="217.809" x2="681.434" y2="217.809" stroke="rgb(0,255,0)" stroke-width="4.24174" ev-style="Creasing" ev-style-annotation="false"/>
		<line x1="1032.93" y1="104.423" x2="1032.93" y2="66.6282" stroke="rgb(255,0,0)" stroke-width="4.24174" ev-style="Cutting" ev-style-annotation="false"/>
		<line x1="1235.13" y1="66.6282" x2="1235.13" y2="104.423" stroke="rgb(255,0,0)" stroke-width="4.24174" ev-style="Cutting" ev-style-annotation="false"/>
		<line x1="1235.13" y1="104.423" x2="1032.93" y2="104.423" stroke="rgb(0,255,0)" stroke-width="4.24174" ev-style="Creasing" ev-style-annotation="false"/>
		<line x1="466.001" y1="104.423" x2="466.001" y2="66.6282" stroke="rgb(255,0,0)" stroke-width="4.24174" ev-style="Cutting" ev-style-annotation="false"/>
		<line x1="670.095" y1="66.6282" x2="670.095" y2="104.423" stroke="rgb(255,0,0)" stroke-width="4.24174" ev-style="Cutting" ev-style-annotation="false"/>
		<line x1="670.095" y1="104.423" x2="466.001" y2="104.423" stroke="rgb(0,255,0)" stroke-width="4.24174" ev-style="Creasing" ev-style-annotation="false"/>
		<line x1="1032.93" y1="66.6282" x2="1032.93" y2="-44.8679" stroke="rgb(255,0,0)" stroke-width="4.24174" ev-style="Cutting" ev-style-annotation="false"/>
		<line x1="1235.13" y1="-44.8679" x2="1235.13" y2="66.6282" stroke="rgb(255,0,0)" stroke-width="4.24174" ev-style="Cutting" ev-style-annotation="false"/>
		<line x1="1235.13" y1="66.6282" x2="1032.93" y2="66.6282" stroke="rgb(0,255,0)" stroke-width="4.24174" ev-style="Creasing" ev-style-annotation="false"/>
		<line x1="466.001" y1="66.6282" x2="466.001" y2="-44.8679" stroke="rgb(255,0,0)" stroke-width="4.24174" ev-style="Cutting" ev-style-annotation="false"/>
		<line x1="670.095" y1="-44.8679" x2="670.095" y2="66.6282" stroke="rgb(255,0,0)" stroke-width="4.24174" ev-style="Cutting" ev-style-annotation="false"/>
		<line x1="670.095" y1="66.6282" x2="466.001" y2="66.6282" stroke="rgb(0,255,0)" stroke-width="4.24174" ev-style="Creasing" ev-style-annotation="false"/>
		<line x1="1032.93" y1="-44.8679" x2="1235.13" y2="-44.8679" stroke="rgb(0,255,0)" stroke-width="4.24174" ev-style="Creasing" ev-style-annotation="false"/>
		<line x1="1235.13" y1="-44.8679" x2="1225.51" y2="-80.7734" stroke="rgb(255,0,0)" stroke-width="4.24174" ev-style="Cutting" ev-style-annotation="false"/>
		<line x1="1225.51" y1="-80.7734" x2="1042.55" y2="-80.7734" stroke="rgb(255,0,0)" stroke-width="4.24174" ev-style="Cutting" ev-style-annotation="false"/>
		<line x1="1042.55" y1="-80.7734" x2="1032.93" y2="-44.8679" stroke="rgb(255,0,0)" stroke-width="4.24174" ev-style="Cutting" ev-style-annotation="false"/>
		<line x1="466.001" y1="-44.8679" x2="670.095" y2="-44.8679" stroke="rgb(0,255,0)" stroke-width="4.24174" ev-style="Creasing" ev-style-annotation="false"/>
		<line x1="670.095" y1="-44.8679" x2="660.474" y2="-80.7734" stroke="rgb(255,0,0)" stroke-width="4.24174" ev-style="Cutting" ev-style-annotation="false"/>
		<line x1="660.474" y1="-80.7734" x2="475.622" y2="-80.7734" stroke="rgb(255,0,0)" stroke-width="4.24174" ev-style="Cutting" ev-style-annotation="false"/>
		<line x1="475.622" y1="-80.7734" x2="466.001" y2="-44.8679" stroke="rgb(255,0,0)" stroke-width="4.24174" ev-style="Cutting" ev-style-annotation="false"/>
		<g id="evml.1" stroke="rgb(128,0,128)" stroke-width="1.6967" fill="rgb(128,0,128)" ev-style="Dimensions" ev-style-annotation="true">
			<g transform="translate(1332.77,436.1) rotate(90) scale(1,-1) ">
				<text x="0" y="0" font-size="19.0878" font-weight="400" font-family="Arial" text-anchor="start" dominant-baseline="baseline">289.00</text>
			</g>
			<line x1="1342.47" y1="1011.51" x2="1340.35" y2="999.486"/>
			<line x1="1340.35" y1="999.486" x2="1344.59" y2="999.486"/>
			<line x1="1344.59" y1="999.486" x2="1342.47" y2="1011.51"/>
			<line x1="1342.47" y1="-80.7734" x2="1344.59" y2="-68.7496"/>
			<line x1="1344.59" y1="-68.7496" x2="1340.35" y2="-68.7496"/>
			<line x1="1340.35" y1="-68.7496" x2="1342.47" y2="-80.7734"/>
			<line x1="1342.47" y1="1011.51" x2="1342.47" y2="-80.7734"/>
			<line x1="1253.45" y1="1011.51" x2="1354.5" y2="1011.51"/>
			<line x1="1253.45" y1="-80.7734" x2="1354.5" y2="-80.7734"/>
		</g>
		<g id="evml.2" stroke="rgb(128,0,128)" stroke-width="1.6967" fill="rgb(128,0,128)" ev-style="Dimensions" ev-style-annotation="true">
			<g transform="translate(628.544,1117.22) rotate(0) scale(1,-1) ">
				<text x="0" y="0" font-size="19.0878" font-weight="400" font-family="Arial" text-anchor="start" dominant-baseline="baseline">311.50</text>
			</g>
			<line x1="69.1504" y1="1107.51" x2="81.1743" y2="1105.39"/>
			<line x1="81.1743" y1="1105.39" x2="81.1743" y2="1109.63"/>
			<line x1="81.1743" y1="1109.63" x2="69.1504" y2="1107.51"/>
			<line x1="1246.47" y1="1107.51" x2="1234.45" y2="1109.63"/>
			<line x1="1234.45" y1="1109.63" x2="1234.45" y2="1105.39"/>
			<line x1="1234.45" y1="1105.39" x2="1246.47" y2="1107.51"/>
			<line x1="69.1504" y1="1107.51" x2="1246.47" y2="1107.51"/>
			<line x1="69.1504" y1="1018.48" x2="69.1504" y2="1119.53"/>
			<line x1="1246.47" y1="1018.48" x2="1246.47" y2="1119.53"/>
		</g>
		<g id="evml.1.1" stroke="rgb(128,0,128)" stroke-width="1.6967" fill="rgb(128,0,128)" ev-style="Dimensions" ev-style-annotation="true">
			<g transform="translate(273.326,327.873) rotate(0) scale(1,-1) ">
				<text x="0" y="0" font-size="19.0878" font-weight="400" font-family="Arial" text-anchor="start" dominant-baseline="baseline">A [90.00]</text>
			</g>
			<line x1="114.505" y1="318.166" x2="126.529" y2="316.046"/>
			<line x1="126.529" y1="316.046" x2="126.529" y2="320.286"/>
			<line x1="126.529" y1="320.286" x2="114.505" y2="318.166"/>
			<line x1="454.662" y1="318.166" x2="442.638" y2="320.286"/>
			<line x1="442.638" y1="320.286" x2="442.638" y2="316.046"/>
			<line x1="442.638" y1="316.046" x2="454.662" y2="318.166"/>
			<line x1="114.505" y1="318.166" x2="454.662" y2="318.166"/>
		</g>
		<g id="evml.1.2" stroke="rgb(128,0,128)" stroke-width="1.6967" fill="rgb(128,0,128)" ev-style="Dimensions" ev-style-annotation="true">
			<g transform="translate(526.41,327.873) rotate(0) scale(1,-1) ">
				<text x="0" y="0" font-size="19.0878" font-weight="400" font-family="Arial" text-anchor="start" dominant-baseline="baseline">B [60.00]</text>
			</g>
			<line x1="454.662" y1="318.166" x2="466.686" y2="316.046"/>
			<line x1="466.686" y1="316.046" x2="466.686" y2="320.286"/>
			<line x1="466.686" y1="320.286" x2="454.662" y2="318.166"/>
			<line x1="681.434" y1="318.166" x2="669.41" y2="320.286"/>
			<line x1="669.41" y1="320.286" x2="669.41" y2="316.046"/>
			<line x1="669.41" y1="316.046" x2="681.434" y2="318.166"/>
			<line x1="454.662" y1="318.166" x2="681.434" y2="318.166"/>
		</g>
		<g id="evml.1.3" stroke="rgb(128,0,128)" stroke-width="1.6967" fill="rgb(128,0,128)" ev-style="Dimensions" ev-style-annotation="true">
			<g transform="translate(799.968,327.873) rotate(0) scale(1,-1) ">
				<text x="0" y="0" font-size="19.0878" font-weight="400" font-family="Arial" text-anchor="start" dominant-baseline="baseline">A [90.00]</text>
			</g>
			<line x1="681.434" y1="318.166" x2="693.458" y2="316.046"/>
			<line x1="693.458" y1="316.046" x2="693.458" y2="320.286"/>
			<line x1="693.458" y1="320.286" x2="681.434" y2="318.166"/>
			<line x1="1021.59" y1="318.166" x2="1009.57" y2="320.286"/>
			<line x1="1009.57" y1="320.286" x2="1009.57" y2="316.046"/>
			<line x1="1009.57" y1="316.046" x2="1021.59" y2="318.166"/>
			<line x1="681.434" y1="318.166" x2="1021.59" y2="318.166"/>
		</g>
		<g id="evml.1.4" stroke="rgb(128,0,128)" stroke-width="1.6967" fill="rgb(128,0,128)" ev-style="Dimensions" ev-style-annotation="true">
			<g transform="translate(1077.44,327.873) rotate(0) scale(1,-1) ">
				<text x="0" y="0" font-size="19.0878" font-weight="400" font-family="Arial" text-anchor="start" dominant-baseline="baseline">B-GLC [59.50]</text>
			</g>
			<line x1="1021.59" y1="318.166" x2="1033.62" y2="316.046"/>
			<line x1="1033.62" y1="316.046" x2="1033.62" y2="320.286"/>
			<line x1="1033.62" y1="320.286" x2="1021.59" y2="318.166"/>
			<line x1="1246.47" y1="318.166" x2="1234.45" y2="320.286"/>
			<line x1="1234.45" y1="320.286" x2="1234.45" y2="316.046"/>
			<line x1="1234.45" y1="316.046" x2="1246.47" y2="318.166"/>
			<line x1="1021.59" y1="318.166" x2="1246.47" y2="318.166"/>
		</g>
		<g id="evml.1.5" stroke="rgb(128,0,128)" stroke-width="1.6967" fill="rgb(128,0,128)" ev-style="Dimensions" ev-style-annotation="true">
			<g transform="translate(940.858,461.971) rotate(90) scale(1,-1) ">
				<text x="0" y="0" font-size="19.0878" font-weight="400" font-family="Arial" text-anchor="start" dominant-baseline="baseline">H [150.00]</text>
			</g>
			<line x1="950.564" y1="217.809" x2="952.684" y2="229.833"/>
			<line x1="952.684" y1="229.833" x2="948.444" y2="229.833"/>
			<line x1="948.444" y1="229.833" x2="950.564" y2="217.809"/>
			<line x1="950.564" y1="784.738" x2="948.444" y2="772.715"/>
			<line x1="948.444" y1="772.715" x2="952.684" y2="772.715"/>
			<line x1="952.684" y1="772.715" x2="950.564" y2="784.738"/>
			<line x1="950.564" y1="217.809" x2="950.564" y2="784.738"/>
		</g>
	</g>
</svg>