<svg version="1.1" xmlns="http://www.w3.org/2000/svg" xmlns:xlink="http://www.w3.org/1999/xlink" width="676.39" height="903.741" viewBox="-46.2112 -119.202 676.39 903.741">
	<g transform="translate(-113.736,799.037) scale(1,-1) ">
		<line x1="489.799" y1="591.163" x2="489.799" y2="591.163" stroke="rgb(255,0,0)" stroke-width="3.11309" ev-style="Cutting" ev-style-annotation="false"/>
		<line x1="639.091" y1="591.163" x2="639.091" y2="251.005" stroke="rgb(255,0,0)" stroke-width="3.11309" ev-style="Cutting" ev-style-annotation="false"/>
		<line x1="489.799" y1="251.005" x2="489.799" y2="251.005" stroke="rgb(255,0,0)" stroke-width="3.11309" ev-style="Cutting" ev-style-annotation="false"/>
		<line x1="489.799" y1="591.163" x2="489.799" y2="251.005" stroke="rgb(0,255,0)" stroke-width="3.11309" ev-style="Creasing" ev-style-annotation="false"/>
		<line x1="263.028" y1="591.163" x2="263.028" y2="591.163" stroke="rgb(255,0,0)" stroke-width="3.11309" ev-style="Cutting" ev-style-annotation="false"/>
		<line x1="113.736" y1="591.163" x2="113.736" y2="251.005" stroke="rgb(255,0,0)" stroke-width="3.11309" ev-style="Cutting" ev-style-annotation="false"/>
		<line x1="263.028" y1="251.005" x2="263.028" y2="251.005" stroke="rgb(255,0,0)" stroke-width="3.11309" ev-style="Cutting" ev-style-annotation="false"/>
		<line x1="263.028" y1="591.163" x2="263.028" y2="251.005" stroke="rgb(0,255,0)" stroke-width="3.11309" ev-style="Creasing" ev-style-annotation="false"/>
		<line x1="263.028" y1="591.163" x2="263.028" y2="742.344" stroke="rgb(255,0,0)" stroke-width="3.11309" ev-style="Cutting" ev-style-annotation="false"/>
		<line x1="489.799" y1="742.344" x2="489.799" y2="591.163" stroke="rgb(255,0,0)" stroke-width="3.11309" ev-style="Cutting" ev-style-annotation="false"/>
		<line x1="489.799" y1="591.163" x2="263.028" y2="591.163" stroke="rgb(0,255,0)" stroke-width="3.11309" ev-style="Creasing" ev-style-annotation="false"/>
		<line x1="263.028" y1="251.005" x2="263.028" y2="99.8243" stroke="rgb(255,0,0)" stroke-width="3.11309" ev-style="Cutting" ev-style-annotation="false"/>
		<line x1="489.799" y1="99.8243" x2="489.799" y2="251.005" stroke="rgb(255,0,0)" stroke-width="3.11309" ev-style="Cutting" ev-style-annotation="false"/>
		<line x1="489.799" y1="251.005" x2="263.028" y2="251.005" stroke="rgb(0,255,0)" stroke-width="3.11309" ev-style="Creasing" ev-style-annotation="false"/>
		<line x1="305.547" y1="591.163" x2="305.547" y2="761.242" stroke="rgb(255,0,0)" stroke-width="3.11309" ev-style="Cutting" ev-style-annotation="false"/>
		<line x1="447.28" y1="591.163" x2="447.28" y2="761.242" stroke="rgb(255,0,0)" stroke-width="3.11309" ev-style="Cutting" ev-style-annotation="false"/>
		<line x1="305.547" y1="251.005" x2="305.547" y2="80.9266" stroke="rgb(255,0,0)" stroke-width="3.11309" ev-style="Cutting" ev-style-annotation="false"/>
		<line x1="447.28" y1="251.005" x2="447.28" y2="80.9266" stroke="rgb(255,0,0)" stroke-width="3.11309" ev-style="Cutting" ev-style-annotation="false"/>
		<line x1="263.028" y1="742.344" x2="489.799" y2="742.344" stroke="rgb(0,255,0)" stroke-width="3.11309" ev-style="Creasing" ev-style-annotation="false"/>
		<line x1="489.799" y1="742.344" x2="474.609" y2="799.037" stroke="rgb(255,0,0)" stroke-width="3.11309" ev-style="Cutting" ev-style-annotation="false"/>
		<line x1="474.609" y1="799.037" x2="278.219" y2="799.037" stroke="rgb(255,0,0)" stroke-width="3.11309" ev-style="Cutting" ev-style-annotation="false"/>
		<line x1="278.219" y1="799.037" x2="263.028" y2="742.344" stroke="rgb(255,0,0)" stroke-width="3.11309" ev-style="Cutting" ev-style-annotation="false"/>
		<line x1="489.799" y1="99.8243" x2="263.028" y2="99.8243" stroke="rgb(0,255,0)" stroke-width="3.11309" ev-style="Creasing" ev-style-annotation="false"/>
		<line x1="263.028" y1="99.8243" x2="278.219" y2="43.1314" stroke="rgb(255,0,0)" stroke-width="3.11309" ev-style="Cutting" ev-style-annotation="false"/>
		<line x1="278.219" y1="43.1314" x2="474.609" y2="43.1314" stroke="rgb(255,0,0)" stroke-width="3.11309" ev-style="Cutting" ev-style-annotation="false"/>
		<line x1="474.609" y1="43.1314" x2="489.799" y2="99.8243" stroke="rgb(255,0,0)" stroke-width="3.11309" ev-style="Cutting" ev-style-annotation="false"/>
		<line x1="489.799" y1="591.163" x2="503.054" y2="640.63" stroke="rgb(255,0,0)" stroke-width="3.11309" ev-style="Cutting" ev-style-annotation="false"/>
		<line x1="539.562" y1="668.643" x2="589.327" y2="668.643" stroke="rgb(255,0,0)" stroke-width="3.11309" ev-style="Cutting" ev-style-annotation="false"/>
		<line x1="589.327" y1="668.643" x2="639.091" y2="630.848" stroke="rgb(255,0,0)" stroke-width="3.11309" ev-style="Cutting" ev-style-annotation="false"/>
		<line x1="639.091" y1="630.848" x2="639.091" y2="591.163" stroke="rgb(255,0,0)" stroke-width="3.11309" ev-style="Cutting" ev-style-annotation="false"/>
		<line x1="490.306" y1="593.053" x2="639.091" y2="593.053" stroke="rgb(0,255,0)" stroke-width="3.11309" ev-style="Creasing" ev-style-annotation="false"/>
		<line x1="489.799" y1="251.005" x2="503.054" y2="201.538" stroke="rgb(255,0,0)" stroke-width="3.11309" ev-style="Cutting" ev-style-annotation="false"/>
		<line x1="539.562" y1="173.525" x2="589.327" y2="173.525" stroke="rgb(255,0,0)" stroke-width="3.11309" ev-style="Cutting" ev-style-annotation="false"/>
		<line x1="589.327" y1="173.525" x2="639.091" y2="211.32" stroke="rgb(255,0,0)" stroke-width="3.11309" ev-style="Cutting" ev-style-annotation="false"/>
		<line x1="639.091" y1="211.32" x2="639.091" y2="251.005" stroke="rgb(255,0,0)" stroke-width="3.11309" ev-style="Cutting" ev-style-annotation="false"/>
		<line x1="490.306" y1="249.116" x2="639.091" y2="249.116" stroke="rgb(0,255,0)" stroke-width="3.11309" ev-style="Creasing" ev-style-annotation="false"/>
		<line x1="263.028" y1="251.005" x2="249.773" y2="201.538" stroke="rgb(255,0,0)" stroke-width="3.11309" ev-style="Cutting" ev-style-annotation="false"/>
		<line x1="213.266" y1="173.525" x2="163.5" y2="173.525" stroke="rgb(255,0,0)" stroke-width="3.11309" ev-style="Cutting" ev-style-annotation="false"/>
		<line x1="163.5" y1="173.525" x2="113.736" y2="211.32" stroke="rgb(255,0,0)" stroke-width="3.11309" ev-style="Cutting" ev-style-annotation="false"/>
		<line x1="113.736" y1="211.32" x2="113.736" y2="251.005" stroke="rgb(255,0,0)" stroke-width="3.11309" ev-style="Cutting" ev-style-annotation="false"/>
		<line x1="262.521" y1="249.116" x2="113.736" y2="249.116" stroke="rgb(0,255,0)" stroke-width="3.11309" ev-style="Creasing" ev-style-annotation="false"/>
		<line x1="263.028" y1="591.163" x2="249.773" y2="640.63" stroke="rgb(255,0,0)" stroke-width="3.11309" ev-style="Cutting" ev-style-annotation="false"/>
		<line x1="213.266" y1="668.643" x2="163.5" y2="668.643" stroke="rgb(255,0,0)" stroke-width="3.11309" ev-style="Cutting" ev-style-annotation="false"/>
		<line x1="163.5" y1="668.643" x2="113.736" y2="630.848" stroke="rgb(255,0,0)" stroke-width="3.11309" ev-style="Cutting" ev-style-annotation="false"/>
		<line x1="113.736" y1="630.848" x2="113.736" y2="591.163" stroke="rgb(255,0,0)" stroke-width="3.11309" ev-style="Cutting" ev-style-annotation="false"/>
		<line x1="262.521" y1="593.053" x2="113.736" y2="593.053" stroke="rgb(0,255,0)" stroke-width="3.11309" ev-style="Creasing" ev-style-annotation="false"/>
		<path d="M503.054,640.63 a37.7953 37.7953 0 0 0 36.5074,28.0131" fill="none" stroke="rgb(255,0,0)" stroke-width="3.11309" ev-style="Cutting" ev-style-annotation="false"/>
		<path d="M249.773,640.63 a37.7953 37.7953 0 0 1 -36.5074,28.0131" fill="none" stroke="rgb(255,0,0)" stroke-width="3.11309" ev-style="Cutting" ev-style-annotation="false"/>
		<path d="M249.773,201.538 a37.7953 37.7953 0 0 0 -36.5074,-28.0131" fill="none" stroke="rgb(255,0,0)" stroke-width="3.11309" ev-style="Cutting" ev-style-annotation="false"/>
		<path d="M503.054,201.538 a37.7953 37.7953 0 0 1 36.5074,-28.0131" fill="none" stroke="rgb(255,0,0)" stroke-width="3.11309" ev-style="Cutting" ev-style-annotation="false"/>
		<line x1="150.02" y1="636.037" x2="166.434" y2="636.245" stroke="rgb(255,0,0)" stroke-width="3.11309" ev-style="Cutting" ev-style-annotation="false"/>
		<line x1="171.806" y1="634.099" x2="182.631" y2="623.546" stroke="rgb(255,0,0)" stroke-width="3.11309" ev-style="Cutting" ev-style-annotation="false"/>
		<line x1="193.321" y1="623.682" x2="203.874" y2="634.507" stroke="rgb(255,0,0)" stroke-width="3.11309" ev-style="Cutting" ev-style-annotation="false"/>
		<line x1="209.191" y1="636.788" x2="225.604" y2="636.997" stroke="rgb(255,0,0)" stroke-width="3.11309" ev-style="Cutting" ev-style-annotation="false"/>
		<path d="M182.631,623.546 a7.55906 7.55906 0 0 1 10.6893,0.135768" fill="none" stroke="rgb(255,0,0)" stroke-width="3.11309" ev-style="Cutting" ev-style-annotation="false"/>
		<path d="M166.434,636.245 a7.55906 7.55906 0 0 0 5.37275,-2.14593" fill="none" stroke="rgb(255,0,0)" stroke-width="3.11309" ev-style="Cutting" ev-style-annotation="false"/>
		<path d="M203.874,634.507 a7.55906 7.55906 0 0 0 5.31651,2.2817" fill="none" stroke="rgb(255,0,0)" stroke-width="3.11309" ev-style="Cutting" ev-style-annotation="false"/>
		<line x1="602.24" y1="637.462" x2="585.825" y2="637.462" stroke="rgb(255,0,0)" stroke-width="3.11309" ev-style="Cutting" ev-style-annotation="false"/>
		<line x1="580.48" y1="635.248" x2="569.79" y2="624.558" stroke="rgb(255,0,0)" stroke-width="3.11309" ev-style="Cutting" ev-style-annotation="false"/>
		<line x1="559.1" y1="624.558" x2="548.41" y2="635.248" stroke="rgb(255,0,0)" stroke-width="3.11309" ev-style="Cutting" ev-style-annotation="false"/>
		<line x1="543.065" y1="637.462" x2="526.65" y2="637.462" stroke="rgb(255,0,0)" stroke-width="3.11309" ev-style="Cutting" ev-style-annotation="false"/>
		<path d="M569.79,624.558 a7.55906 7.55906 0 0 0 -10.6901,0" fill="none" stroke="rgb(255,0,0)" stroke-width="3.11309" ev-style="Cutting" ev-style-annotation="false"/>
		<path d="M585.825,637.462 a7.55906 7.55906 0 0 1 -5.34506,-2.214" fill="none" stroke="rgb(255,0,0)" stroke-width="3.11309" ev-style="Cutting" ev-style-annotation="false"/>
		<path d="M548.41,635.248 a7.55906 7.55906 0 0 1 -5.34506,2.214" fill="none" stroke="rgb(255,0,0)" stroke-width="3.11309" ev-style="Cutting" ev-style-annotation="false"/>
		<line x1="150.587" y1="204.706" x2="167.002" y2="204.706" stroke="rgb(255,0,0)" stroke-width="3.11309" ev-style="Cutting" ev-style-annotation="false"/>
		<line x1="172.347" y1="206.92" x2="183.037" y2="217.61" stroke="rgb(255,0,0)" stroke-width="3.11309" ev-style="Cutting" ev-style-annotation="false"/>
		<line x1="193.727" y1="217.61" x2="204.417" y2="206.92" stroke="rgb(255,0,0)" stroke-width="3.11309" ev-style="Cutting" ev-style-annotation="false"/>
		<line x1="209.762" y1="204.706" x2="226.177" y2="204.706" stroke="rgb(255,0,0)" stroke-width="3.11309" ev-style="Cutting" ev-style-annotation="false"/>
		<path d="M183.037,217.61 a7.55906 7.55906 0 0 0 10.6901,0" fill="none" stroke="rgb(255,0,0)" stroke-width="3.11309" ev-style="Cutting" ev-style-annotation="false"/>
		<path d="M167.002,204.706 a7.55906 7.55906 0 0 1 5.34506,2.214" fill="none" stroke="rgb(255,0,0)" stroke-width="3.11309" ev-style="Cutting" ev-style-annotation="false"/>
		<path d="M204.417,206.92 a7.55906 7.55906 0 0 1 5.34506,-2.214" fill="none" stroke="rgb(255,0,0)" stroke-width="3.11309" ev-style="Cutting" ev-style-annotation="false"/>
		<line x1="602.24" y1="204.706" x2="585.825" y2="204.706" stroke="rgb(255,0,0)" stroke-width="3.11309" ev-style="Cutting" ev-style-annotation="false"/>
		<line x1="580.48" y1="206.92" x2="569.79" y2="217.61" stroke="rgb(255,0,0)" stroke-width="3.11309" ev-style="Cutting" ev-style-annotation="false"/>
		<line x1="559.1" y1="217.61" x2="548.41" y2="206.92" stroke="rgb(255,0,0)" stroke-width="3.11309" ev-style="Cutting" ev-style-annotation="false"/>
		<line x1="543.065" y1="204.706" x2="526.65" y2="204.706" stroke="rgb(255,0,0)" stroke-width="3.11309" ev-style="Cutting" ev-style-annotation="false"/>
		<path d="M569.79,217.61 a7.55906 7.55906 0 0 1 -10.6901,0" fill="none" stroke="rgb(255,0,0)" stroke-width="3.11309" ev-style="Cutting" ev-style-annotation="false"/>
		<path d="M585.825,204.706 a7.55906 7.55906 0 0 0 -5.34506,2.214" fill="none" stroke="rgb(255,0,0)" stroke-width="3.11309" ev-style="Cutting" ev-style-annotation="false"/>
		<path d="M548.41,206.92 a7.55906 7.55906 0 0 0 -5.34506,-2.214" fill="none" stroke="rgb(255,0,0)" stroke-width="3.11309" ev-style="Cutting" ev-style-annotation="false"/>
		<g id="evml.1" stroke="rgb(128,0,128)" stroke-width="1.24524" fill="rgb(128,0,128)" ev-style="Dimensions" ev-style-annotation="true">
			<g transform="translate(725.956,399.604) rotate(90) scale(1,-1) ">
				<text x="0" y="0" font-size="14.0089" font-weight="400" font-family="Arial" text-anchor="start" dominant-baseline="baseline">200.00</text>
			</g>
			<line x1="735.091" y1="799.037" x2="733.535" y2="790.212"/>
			<line x1="733.535" y1="790.212" x2="736.647" y2="790.212"/>
			<line x1="736.647" y1="790.212" x2="735.091" y2="799.037"/>
			<line x1="735.091" y1="43.1314" x2="736.647" y2="51.9559"/>
			<line x1="736.647" y1="51.9559" x2="733.535" y2="51.9559"/>
			<line x1="733.535" y1="51.9559" x2="735.091" y2="43.1314"/>
			<line x1="735.091" y1="799.037" x2="735.091" y2="43.1314"/>
			<line x1="644.463" y1="799.037" x2="743.915" y2="799.037"/>
			<line x1="644.463" y1="43.1314" x2="743.915" y2="43.1314"/>
		</g>
		<g id="evml.2" stroke="rgb(128,0,128)" stroke-width="1.24524" fill="rgb(128,0,128)" ev-style="Dimensions" ev-style-annotation="true">
			<g transform="translate(354.933,904.172) rotate(0) scale(1,-1) ">
				<text x="0" y="0" font-size="14.0089" font-weight="400" font-family="Arial" text-anchor="start" dominant-baseline="baseline">139.00</text>
			</g>
			<line x1="113.736" y1="895.037" x2="122.561" y2="893.481"/>
			<line x1="122.561" y1="893.481" x2="122.561" y2="896.593"/>
			<line x1="122.561" y1="896.593" x2="113.736" y2="895.037"/>
			<line x1="639.091" y1="895.037" x2="630.266" y2="896.593"/>
			<line x1="630.266" y1="896.593" x2="630.266" y2="893.481"/>
			<line x1="630.266" y1="893.481" x2="639.091" y2="895.037"/>
			<line x1="113.736" y1="895.037" x2="639.091" y2="895.037"/>
			<line x1="113.736" y1="804.409" x2="113.736" y2="903.861"/>
			<line x1="639.091" y1="804.409" x2="639.091" y2="903.861"/>
		</g>
		<g id="evml.1.1" stroke="rgb(128,0,128)" stroke-width="1.24524" fill="rgb(128,0,128)" ev-style="Dimensions" ev-style-annotation="true">
			<g transform="translate(316.381,344.742) rotate(0) scale(1,-1) ">
				<text x="0" y="0" font-size="14.0089" font-weight="400" font-family="Arial" text-anchor="start" dominant-baseline="baseline">B [60.00]</text>
			</g>
			<line x1="263.028" y1="335.607" x2="271.852" y2="334.051"/>
			<line x1="271.852" y1="334.051" x2="271.852" y2="337.163"/>
			<line x1="271.852" y1="337.163" x2="263.028" y2="335.607"/>
			<line x1="489.799" y1="335.607" x2="480.975" y2="337.163"/>
			<line x1="480.975" y1="337.163" x2="480.975" y2="334.051"/>
			<line x1="480.975" y1="334.051" x2="489.799" y2="335.607"/>
			<line x1="263.028" y1="335.607" x2="489.799" y2="335.607"/>
		</g>
		<g id="evml.1.2" stroke="rgb(128,0,128)" stroke-width="1.24524" fill="rgb(128,0,128)" ev-style="Dimensions" ev-style-annotation="true">
			<g transform="translate(422.192,416.766) rotate(90) scale(1,-1) ">
				<text x="0" y="0" font-size="14.0089" font-weight="400" font-family="Arial" text-anchor="start" dominant-baseline="baseline">A [90.00]</text>
			</g>
			<line x1="431.327" y1="251.005" x2="432.883" y2="259.83"/>
			<line x1="432.883" y1="259.83" x2="429.771" y2="259.83"/>
			<line x1="429.771" y1="259.83" x2="431.327" y2="251.005"/>
			<line x1="431.327" y1="591.163" x2="429.771" y2="582.338"/>
			<line x1="429.771" y1="582.338" x2="432.883" y2="582.338"/>
			<line x1="432.883" y1="582.338" x2="431.327" y2="591.163"/>
			<line x1="431.327" y1="251.005" x2="431.327" y2="591.163"/>
		</g>
		<g id="evml.2.11" stroke="rgb(128,0,128)" stroke-width="1.24524" fill="rgb(128,0,128)" ev-style="Dimensions" ev-style-annotation="true">
			<g transform="translate(529.178,344.742) rotate(0) scale(1,-1) ">
				<text x="0" y="0" font-size="14.0089" font-weight="400" font-family="Arial" text-anchor="start" dominant-baseline="baseline">H1 [39.50]</text>
			</g>
			<line x1="489.799" y1="335.607" x2="498.624" y2="334.051"/>
			<line x1="498.624" y1="334.051" x2="498.624" y2="337.163"/>
			<line x1="498.624" y1="337.163" x2="489.799" y2="335.607"/>
			<line x1="639.091" y1="335.607" x2="630.266" y2="337.163"/>
			<line x1="630.266" y1="337.163" x2="630.266" y2="334.051"/>
			<line x1="630.266" y1="334.051" x2="639.091" y2="335.607"/>
			<line x1="489.799" y1="335.607" x2="639.091" y2="335.607"/>
		</g>
		<g id="evml.4.2" stroke="rgb(128,0,128)" stroke-width="1.24524" fill="rgb(128,0,128)" ev-style="Dimensions" ev-style-annotation="true">
			<g transform="translate(358.773,631.307) rotate(90) scale(1,-1) ">
				<text x="0" y="0" font-size="14.0089" font-weight="400" font-family="Arial" text-anchor="start" dominant-baseline="baseline">H [40.00]</text>
			</g>
			<line x1="367.908" y1="742.344" x2="366.352" y2="733.519"/>
			<line x1="366.352" y1="733.519" x2="369.464" y2="733.519"/>
			<line x1="369.464" y1="733.519" x2="367.908" y2="742.344"/>
			<line x1="367.908" y1="591.163" x2="369.464" y2="599.987"/>
			<line x1="369.464" y1="599.987" x2="366.352" y2="599.987"/>
			<line x1="366.352" y1="599.987" x2="367.908" y2="591.163"/>
			<line x1="367.908" y1="742.344" x2="367.908" y2="591.163"/>
		</g>
		<g id="evml.20.3" stroke="rgb(128,0,128)" stroke-width="1.24524" fill="rgb(128,0,128)" ev-style="Dimensions" ev-style-annotation="true">
			<g transform="translate(300.075,565.597) rotate(0) scale(1,-1) ">
				<text x="0" y="0" font-size="14.0089" font-weight="400" font-family="Arial" text-anchor="start" dominant-baseline="baseline">VCO [11.25]</text>
			</g>
			<line x1="305.547" y1="556.462" x2="296.723" y2="558.018"/>
			<line x1="296.723" y1="558.018" x2="296.723" y2="554.906"/>
			<line x1="296.723" y1="554.906" x2="305.547" y2="556.462"/>
			<line x1="263.028" y1="556.462" x2="271.852" y2="554.906"/>
			<line x1="271.852" y1="554.906" x2="271.852" y2="558.018"/>
			<line x1="271.852" y1="558.018" x2="263.028" y2="556.462"/>
			<line x1="305.547" y1="556.462" x2="263.028" y2="556.462"/>
			<line x1="305.547" y1="586.751" x2="305.547" y2="547.638"/>
			<line x1="263.028" y1="586.751" x2="263.028" y2="547.638"/>
			<line x1="305.547" y1="556.462" x2="338.599" y2="556.462"/>
		</g>
		<g id="evml.22.2" stroke="rgb(128,0,128)" stroke-width="1.24524" fill="rgb(128,0,128)" ev-style="Dimensions" ev-style-annotation="true">
			<g transform="translate(339.988,116.007) rotate(90) scale(1,-1) ">
				<text x="0" y="0" font-size="14.0089" font-weight="400" font-family="Arial" text-anchor="start" dominant-baseline="baseline">CL1 [45.00]</text>
			</g>
			<line x1="349.123" y1="251.005" x2="347.567" y2="242.181"/>
			<line x1="347.567" y1="242.181" x2="350.679" y2="242.181"/>
			<line x1="350.679" y1="242.181" x2="349.123" y2="251.005"/>
			<line x1="349.123" y1="80.9266" x2="350.679" y2="89.7511"/>
			<line x1="350.679" y1="89.7511" x2="347.567" y2="89.7511"/>
			<line x1="347.567" y1="89.7511" x2="349.123" y2="80.9266"/>
			<line x1="349.123" y1="251.005" x2="349.123" y2="80.9266"/>
			<line x1="309.96" y1="251.005" x2="357.948" y2="251.005"/>
			<line x1="309.96" y1="80.9266" x2="357.948" y2="80.9266"/>
		</g>
		<g id="evml.28.2" stroke="rgb(128,0,128)" stroke-width="1.24524" fill="rgb(128,0,128)" ev-style="Dimensions" ev-style-annotation="true">
			<g transform="translate(358.773,728.718) rotate(90) scale(1,-1) ">
				<text x="0" y="0" font-size="14.0089" font-weight="400" font-family="Arial" text-anchor="start" dominant-baseline="baseline">TPH [15.00]</text>
			</g>
			<line x1="367.908" y1="799.037" x2="366.352" y2="790.212"/>
			<line x1="366.352" y1="790.212" x2="369.464" y2="790.212"/>
			<line x1="369.464" y1="790.212" x2="367.908" y2="799.037"/>
			<line x1="367.908" y1="742.344" x2="369.464" y2="751.168"/>
			<line x1="369.464" y1="751.168" x2="366.352" y2="751.168"/>
			<line x1="366.352" y1="751.168" x2="367.908" y2="742.344"/>
			<line x1="367.908" y1="799.037" x2="367.908" y2="742.344"/>
		</g>
		<g id="evml.29.4" stroke="rgb(128,0,128)" stroke-width="1.24524" fill="rgb(128,0,128)" ev-style="Dimensions" ev-style-annotation="true">
			<g transform="translate(407.218,91.8453) rotate(307.5) scale(1,-1) ">
				<text x="0" y="0" font-size="14.0089" font-weight="400" font-family="Arial" text-anchor="start" dominant-baseline="baseline">BAng [75.00]</text>
			</g>
			<g transform="translate(456.539,27.5692) rotate(307.5) scale(1,-1) ">
				<text x="0" y="0" font-size="14.0089" font-weight="400" font-family="Symbol" text-anchor="start" dominant-baseline="baseline"></text>
			</g>
			<line x1="410.288" y1="99.8243" x2="409.224" y2="90.927"/>
			<line x1="409.224" y1="90.927" x2="412.331" y2="91.0997"/>
			<line x1="412.331" y1="91.0997" x2="410.288" y2="99.8243"/>
			<line x1="469.22" y1="23.0223" x2="461.322" y2="27.2541"/>
			<line x1="461.322" y1="27.2541" x2="460.351" y2="24.2974"/>
			<line x1="460.351" y1="24.2974" x2="469.22" y2="23.0223"/>
			<path d="M410.288,99.8243 a79.5112 79.5112 0 0 1 58.9322,-76.802" fill="none"/>
			<line x1="473.467" y1="38.8694" x2="466.936" y2="14.4985"/>
		</g>
		<g id="evml.31.4" stroke="rgb(128,0,128)" stroke-width="1.24524" fill="rgb(128,0,128)" ev-style="Dimensions" ev-style-annotation="true">
			<g transform="translate(534.866,140.373) rotate(0) scale(1,-1) ">
				<text x="0" y="0" font-size="14.0089" font-weight="400" font-family="Arial" text-anchor="start" dominant-baseline="baseline">DxT [13.17]</text>
			</g>
			<line x1="589.327" y1="131.238" x2="598.151" y2="129.682"/>
			<line x1="598.151" y1="129.682" x2="598.151" y2="132.794"/>
			<line x1="598.151" y1="132.794" x2="589.327" y2="131.238"/>
			<line x1="639.091" y1="131.238" x2="630.266" y2="132.794"/>
			<line x1="630.266" y1="132.794" x2="630.266" y2="129.682"/>
			<line x1="630.266" y1="129.682" x2="639.091" y2="131.238"/>
			<line x1="589.327" y1="131.238" x2="639.091" y2="131.238"/>
			<line x1="589.327" y1="169.113" x2="589.327" y2="122.413"/>
			<line x1="639.091" y1="206.908" x2="639.091" y2="122.413"/>
			<line x1="589.327" y1="131.238" x2="570.997" y2="131.238"/>
		</g>
		<g id="evml.33.2" stroke="rgb(128,0,128)" stroke-width="1.24524" fill="rgb(128,0,128)" ev-style="Dimensions" ev-style-annotation="true">
			<g transform="translate(81.5925,590.416) rotate(90) scale(1,-1) ">
				<text x="0" y="0" font-size="14.0089" font-weight="400" font-family="Arial" text-anchor="start" dominant-baseline="baseline">FH [20.00]</text>
			</g>
			<line x1="90.7276" y1="668.643" x2="89.1716" y2="659.819"/>
			<line x1="89.1716" y1="659.819" x2="92.2836" y2="659.819"/>
			<line x1="92.2836" y1="659.819" x2="90.7276" y2="668.643"/>
			<line x1="90.7276" y1="593.053" x2="92.2836" y2="601.877"/>
			<line x1="92.2836" y1="601.877" x2="89.1716" y2="601.877"/>
			<line x1="89.1716" y1="601.877" x2="90.7276" y2="593.053"/>
			<line x1="90.7276" y1="668.643" x2="90.7276" y2="593.053"/>
			<line x1="159.088" y1="668.643" x2="81.9031" y2="668.643"/>
			<line x1="109.324" y1="593.053" x2="81.9031" y2="593.053"/>
		</g>
	</g>
</svg>