<svg version="1.1" xmlns="http://www.w3.org/2000/svg" xmlns:xlink="http://www.w3.org/1999/xlink" width="2585.86" height="4238.25" viewBox="-1.33333 -178.086 2585.86 4238.25">
	<g transform="translate(-771.896,4680.7) scale(1,-1) ">
		<line x1="1275.33" y1="3473.71" x2="2714.95" y2="3473.71" stroke="rgb(0,255,0)" stroke-width="14.8313" ev-style="Creasing" ev-style-annotation="false"/>
		<line x1="1243.01" y1="2267.66" x2="862.983" y2="2267.66" stroke="rgb(255,0,0)" stroke-width="14.8313" ev-style="Cutting" ev-style-annotation="false"/>
		<line x1="844.085" y1="2286.56" x2="844.085" y2="3469.93" stroke="rgb(255,0,0)" stroke-width="14.8313" ev-style="Cutting" ev-style-annotation="false"/>
		<line x1="1277.03" y1="3469.93" x2="1277.03" y2="3469.93" stroke="rgb(255,0,0)" stroke-width="14.8313" ev-style="Cutting" ev-style-annotation="false"/>
		<line x1="1277.03" y1="2267.66" x2="1277.03" y2="2467.81" stroke="rgb(0,255,0)" stroke-width="14.8313" ev-style="Creasing" ev-style-annotation="false"/>
		<line x1="1277.03" y1="3272.24" x2="1277.03" y2="3469.93" stroke="rgb(0,255,0)" stroke-width="14.8313" ev-style="Creasing" ev-style-annotation="false"/>
		<line x1="2747.27" y1="2267.66" x2="3127.3" y2="2267.66" stroke="rgb(255,0,0)" stroke-width="14.8313" ev-style="Cutting" ev-style-annotation="false"/>
		<line x1="3146.2" y1="2286.56" x2="3146.2" y2="3469.93" stroke="rgb(255,0,0)" stroke-width="14.8313" ev-style="Cutting" ev-style-annotation="false"/>
		<line x1="2713.25" y1="3469.93" x2="2713.25" y2="3469.93" stroke="rgb(255,0,0)" stroke-width="14.8313" ev-style="Cutting" ev-style-annotation="false"/>
		<line x1="2713.25" y1="2267.66" x2="2713.25" y2="2467.81" stroke="rgb(0,255,0)" stroke-width="14.8313" ev-style="Creasing" ev-style-annotation="false"/>
		<line x1="2713.25" y1="3272.24" x2="2713.25" y2="3469.93" stroke="rgb(0,255,0)" stroke-width="14.8313" ev-style="Creasing" ev-style-annotation="false"/>
		<line x1="844.085" y1="3469.93" x2="844.085" y2="3469.93" stroke="rgb(255,0,0)" stroke-width="14.8313" ev-style="Cutting" ev-style-annotation="false"/>
		<line x1="844.085" y1="3469.93" x2="844.085" y2="4655" stroke="rgb(255,0,0)" stroke-width="14.8313" ev-style="Cutting" ev-style-annotation="false"/>
		<line x1="862.983" y1="4673.9" x2="1001.31" y2="4673.9" stroke="rgb(255,0,0)" stroke-width="14.8313" ev-style="Cutting" ev-style-annotation="false"/>
		<line x1="1114.7" y1="4673.9" x2="1253.03" y2="4673.9" stroke="rgb(255,0,0)" stroke-width="14.8313" ev-style="Cutting" ev-style-annotation="false"/>
		<line x1="844.085" y1="3469.93" x2="1277.03" y2="3469.93" stroke="rgb(0,255,0)" stroke-width="14.8313" ev-style="Creasing" ev-style-annotation="false"/>
		<line x1="1271.93" y1="4655" x2="1271.93" y2="4296.01" stroke="rgb(255,0,0)" stroke-width="14.8313" ev-style="Cutting" ev-style-annotation="false"/>
		<line x1="1271.93" y1="3911.76" x2="1271.93" y2="3481.27" stroke="rgb(255,0,0)" stroke-width="14.8313" ev-style="Cutting" ev-style-annotation="false"/>
		<line x1="1271.93" y1="3481.27" x2="1277.03" y2="3469.93" stroke="rgb(255,0,0)" stroke-width="14.8313" ev-style="Cutting" ev-style-annotation="false"/>
		<line x1="3146.2" y1="3469.93" x2="3146.2" y2="3469.93" stroke="rgb(255,0,0)" stroke-width="14.8313" ev-style="Cutting" ev-style-annotation="false"/>
		<line x1="3146.2" y1="3469.93" x2="3146.2" y2="4655" stroke="rgb(255,0,0)" stroke-width="14.8313" ev-style="Cutting" ev-style-annotation="false"/>
		<line x1="3127.3" y1="4673.9" x2="2988.97" y2="4673.9" stroke="rgb(255,0,0)" stroke-width="14.8313" ev-style="Cutting" ev-style-annotation="false"/>
		<line x1="2875.58" y1="4673.9" x2="2737.25" y2="4673.9" stroke="rgb(255,0,0)" stroke-width="14.8313" ev-style="Cutting" ev-style-annotation="false"/>
		<line x1="3146.2" y1="3469.93" x2="2713.25" y2="3469.93" stroke="rgb(0,255,0)" stroke-width="14.8313" ev-style="Creasing" ev-style-annotation="false"/>
		<line x1="2718.35" y1="4655" x2="2718.35" y2="4296.01" stroke="rgb(255,0,0)" stroke-width="14.8313" ev-style="Cutting" ev-style-annotation="false"/>
		<line x1="2718.35" y1="3911.76" x2="2718.35" y2="3481.27" stroke="rgb(255,0,0)" stroke-width="14.8313" ev-style="Cutting" ev-style-annotation="false"/>
		<line x1="2718.35" y1="3481.27" x2="2713.25" y2="3469.93" stroke="rgb(255,0,0)" stroke-width="14.8313" ev-style="Cutting" ev-style-annotation="false"/>
		<line x1="2985.57" y1="4680.7" x2="2988.97" y2="4673.9" stroke="rgb(255,0,0)" stroke-width="14.8313" ev-style="Cutting" ev-style-annotation="false"/>
		<line x1="2878.98" y1="4680.7" x2="2985.57" y2="4680.7" stroke="rgb(255,0,0)" stroke-width="14.8313" ev-style="Cutting" ev-style-annotation="false"/>
		<line x1="2875.58" y1="4673.9" x2="2878.98" y2="4680.7" stroke="rgb(255,0,0)" stroke-width="14.8313" ev-style="Cutting" ev-style-annotation="false"/>
		<line x1="1004.71" y1="4680.7" x2="1001.31" y2="4673.9" stroke="rgb(255,0,0)" stroke-width="14.8313" ev-style="Cutting" ev-style-annotation="false"/>
		<line x1="1111.3" y1="4680.7" x2="1004.71" y2="4680.7" stroke="rgb(255,0,0)" stroke-width="14.8313" ev-style="Cutting" ev-style-annotation="false"/>
		<line x1="1114.7" y1="4673.9" x2="1111.3" y2="4680.7" stroke="rgb(255,0,0)" stroke-width="14.8313" ev-style="Cutting" ev-style-annotation="false"/>
		<path d="M3127.3,4673.9 a18.8976 18.8976 0 0 0 18.8976,-18.8976" fill="none" stroke="rgb(255,0,0)" stroke-width="14.8313" ev-style="Cutting" ev-style-annotation="false"/>
		<path d="M2737.25,4673.9 a18.8976 18.8976 0 0 1 -18.8976,-18.8976" fill="none" stroke="rgb(255,0,0)" stroke-width="14.8313" ev-style="Cutting" ev-style-annotation="false"/>
		<path d="M1253.03,4673.9 a18.8976 18.8976 0 0 0 18.8976,-18.8976" fill="none" stroke="rgb(255,0,0)" stroke-width="14.8313" ev-style="Cutting" ev-style-annotation="false"/>
		<path d="M862.983,4673.9 a18.8976 18.8976 0 0 1 -18.8976,-18.8976" fill="none" stroke="rgb(255,0,0)" stroke-width="14.8313" ev-style="Cutting" ev-style-annotation="false"/>
		<path d="M862.983,2267.66 a18.8976 18.8976 0 0 0 -18.8976,18.8976" fill="none" stroke="rgb(255,0,0)" stroke-width="14.8313" ev-style="Cutting" ev-style-annotation="false"/>
		<path d="M3127.3,2267.66 a18.8976 18.8976 0 0 1 18.8976,18.8976" fill="none" stroke="rgb(255,0,0)" stroke-width="14.8313" ev-style="Cutting" ev-style-annotation="false"/>
		<line x1="2702.67" y1="2109.49" x2="2705.31" y2="2109.49" stroke="rgb(255,0,0)" stroke-width="14.8313" ev-style="Cutting" ev-style-annotation="false"/>
		<line x1="2712.87" y1="2101.93" x2="2712.87" y2="1988.54" stroke="rgb(255,0,0)" stroke-width="14.8313" ev-style="Cutting" ev-style-annotation="false"/>
		<line x1="2705.31" y1="1980.98" x2="2702.67" y2="1980.98" stroke="rgb(255,0,0)" stroke-width="14.8313" ev-style="Cutting" ev-style-annotation="false"/>
		<line x1="2702.67" y1="1980.98" x2="2702.67" y2="2109.49" stroke="rgb(255,0,0)" stroke-width="14.8313" ev-style="Cutting" ev-style-annotation="false"/>
		<line x1="2702.67" y1="2109.49" x2="2664.87" y2="2109.49" stroke="rgb(255,0,0)" stroke-width="14.8313" ev-style="Cutting" ev-style-annotation="false"/>
		<line x1="2702.67" y1="1980.98" x2="2664.87" y2="1980.98" stroke="rgb(255,0,0)" stroke-width="14.8313" ev-style="Cutting" ev-style-annotation="false"/>
		<path d="M2705.31,2109.49 a7.55906 7.55906 0 0 0 7.55906,-7.55906" fill="none" stroke="rgb(255,0,0)" stroke-width="14.8313" ev-style="Cutting" ev-style-annotation="false"/>
		<path d="M2712.87,1988.54 a7.55906 7.55906 0 0 0 -7.55906,-7.55906" fill="none" stroke="rgb(255,0,0)" stroke-width="14.8313" ev-style="Cutting" ev-style-annotation="false"/>
		<line x1="1287.61" y1="2109.49" x2="1284.97" y2="2109.49" stroke="rgb(255,0,0)" stroke-width="14.8313" ev-style="Cutting" ev-style-annotation="false"/>
		<line x1="1277.41" y1="2101.93" x2="1277.41" y2="1988.54" stroke="rgb(255,0,0)" stroke-width="14.8313" ev-style="Cutting" ev-style-annotation="false"/>
		<line x1="1284.97" y1="1980.98" x2="1287.61" y2="1980.98" stroke="rgb(255,0,0)" stroke-width="14.8313" ev-style="Cutting" ev-style-annotation="false"/>
		<line x1="1287.61" y1="1980.98" x2="1287.61" y2="2109.49" stroke="rgb(255,0,0)" stroke-width="14.8313" ev-style="Cutting" ev-style-annotation="false"/>
		<line x1="1287.61" y1="2109.49" x2="1325.41" y2="2109.49" stroke="rgb(255,0,0)" stroke-width="14.8313" ev-style="Cutting" ev-style-annotation="false"/>
		<line x1="1287.61" y1="1980.98" x2="1325.41" y2="1980.98" stroke="rgb(255,0,0)" stroke-width="14.8313" ev-style="Cutting" ev-style-annotation="false"/>
		<path d="M1284.97,2109.49 a7.55906 7.55906 0 0 1 -7.55906,-7.55906" fill="none" stroke="rgb(255,0,0)" stroke-width="14.8313" ev-style="Cutting" ev-style-annotation="false"/>
		<path d="M1277.41,1988.54 a7.55906 7.55906 0 0 1 7.55906,-7.55906" fill="none" stroke="rgb(255,0,0)" stroke-width="14.8313" ev-style="Cutting" ev-style-annotation="false"/>
		<line x1="2706.07" y1="2264.26" x2="1284.21" y2="2264.26" stroke="rgb(0,255,0)" stroke-width="14.8313" ev-style="Creasing" ev-style-annotation="false"/>
		<line x1="2716.65" y1="621.866" x2="2569.63" y2="621.866" stroke="rgb(255,0,0)" stroke-width="14.8313" ev-style="Cutting" ev-style-annotation="false"/>
		<line x1="1420.65" y1="621.866" x2="1273.63" y2="621.866" stroke="rgb(255,0,0)" stroke-width="14.8313" ev-style="Cutting" ev-style-annotation="false"/>
		<line x1="1284.21" y1="1829.61" x2="2706.07" y2="1829.61" stroke="rgb(0,255,0)" stroke-width="14.8313" ev-style="Creasing" ev-style-annotation="false"/>
		<line x1="1243.01" y1="1833.02" x2="1098.98" y2="1833.02" stroke="rgb(255,0,0)" stroke-width="14.8313" ev-style="Cutting" ev-style-annotation="false"/>
		<line x1="1080.08" y1="1851.91" x2="1080.08" y2="2241.96" stroke="rgb(255,0,0)" stroke-width="14.8313" ev-style="Cutting" ev-style-annotation="false"/>
		<line x1="1098.98" y1="2260.86" x2="1243.01" y2="2260.86" stroke="rgb(255,0,0)" stroke-width="14.8313" ev-style="Cutting" ev-style-annotation="false"/>
		<line x1="1280.81" y1="1833.02" x2="1280.81" y2="1982.23" stroke="rgb(0,255,0)" stroke-width="14.8313" ev-style="Creasing" ev-style-annotation="false"/>
		<line x1="1280.81" y1="2108.24" x2="1280.81" y2="2260.86" stroke="rgb(0,255,0)" stroke-width="14.8313" ev-style="Creasing" ev-style-annotation="false"/>
		<line x1="2747.27" y1="2260.86" x2="2891.3" y2="2260.86" stroke="rgb(255,0,0)" stroke-width="14.8313" ev-style="Cutting" ev-style-annotation="false"/>
		<line x1="2910.2" y1="2241.96" x2="2910.2" y2="1851.91" stroke="rgb(255,0,0)" stroke-width="14.8313" ev-style="Cutting" ev-style-annotation="false"/>
		<line x1="2891.3" y1="1833.02" x2="2747.27" y2="1833.02" stroke="rgb(255,0,0)" stroke-width="14.8313" ev-style="Cutting" ev-style-annotation="false"/>
		<line x1="2709.47" y1="2260.86" x2="2709.47" y2="2108.24" stroke="rgb(0,255,0)" stroke-width="14.8313" ev-style="Creasing" ev-style-annotation="false"/>
		<line x1="2709.47" y1="1982.23" x2="2709.47" y2="1833.02" stroke="rgb(0,255,0)" stroke-width="14.8313" ev-style="Creasing" ev-style-annotation="false"/>
		<line x1="1273.63" y1="621.866" x2="909.282" y2="621.866" stroke="rgb(255,0,0)" stroke-width="14.8313" ev-style="Cutting" ev-style-annotation="false"/>
		<line x1="852.589" y1="678.559" x2="852.589" y2="864.543" stroke="rgb(255,0,0)" stroke-width="14.8313" ev-style="Cutting" ev-style-annotation="false"/>
		<line x1="852.589" y1="1580.13" x2="852.589" y2="1807.32" stroke="rgb(255,0,0)" stroke-width="14.8313" ev-style="Cutting" ev-style-annotation="false"/>
		<line x1="871.487" y1="1826.21" x2="1243.01" y2="1826.21" stroke="rgb(255,0,0)" stroke-width="14.8313" ev-style="Cutting" ev-style-annotation="false"/>
		<line x1="1273.63" y1="1826.21" x2="1273.63" y2="621.866" stroke="rgb(0,255,0)" stroke-width="14.8313" ev-style="Creasing" ev-style-annotation="false"/>
		<line x1="2716.65" y1="621.866" x2="3081" y2="621.866" stroke="rgb(255,0,0)" stroke-width="14.8313" ev-style="Cutting" ev-style-annotation="false"/>
		<line x1="3137.69" y1="678.559" x2="3137.69" y2="864.543" stroke="rgb(255,0,0)" stroke-width="14.8313" ev-style="Cutting" ev-style-annotation="false"/>
		<line x1="3137.69" y1="1580.13" x2="3137.69" y2="1807.32" stroke="rgb(255,0,0)" stroke-width="14.8313" ev-style="Cutting" ev-style-annotation="false"/>
		<line x1="3118.79" y1="1826.21" x2="2747.27" y2="1826.21" stroke="rgb(255,0,0)" stroke-width="14.8313" ev-style="Cutting" ev-style-annotation="false"/>
		<line x1="2716.65" y1="1826.21" x2="2716.65" y2="621.866" stroke="rgb(0,255,0)" stroke-width="14.8313" ev-style="Creasing" ev-style-annotation="false"/>
		<line x1="1243.01" y1="2260.86" x2="1280.81" y2="2260.86" stroke="rgb(255,0,0)" stroke-width="14.8313" ev-style="Cutting" ev-style-annotation="false"/>
		<line x1="1243.01" y1="2267.66" x2="1280.81" y2="2267.66" stroke="rgb(255,0,0)" stroke-width="14.8313" ev-style="Cutting" ev-style-annotation="false"/>
		<path d="M1280.81,2260.86 a3.40157 3.40157 0 0 1 0,6.80315" fill="none" stroke="rgb(255,0,0)" stroke-width="14.8313" ev-style="Cutting" ev-style-annotation="false"/>
		<line x1="1243.01" y1="1833.02" x2="1280.81" y2="1833.02" stroke="rgb(255,0,0)" stroke-width="14.8313" ev-style="Cutting" ev-style-annotation="false"/>
		<line x1="1243.01" y1="1826.21" x2="1280.81" y2="1826.21" stroke="rgb(255,0,0)" stroke-width="14.8313" ev-style="Cutting" ev-style-annotation="false"/>
		<path d="M1280.81,1833.02 a3.40157 3.40157 0 0 0 0,-6.80315" fill="none" stroke="rgb(255,0,0)" stroke-width="14.8313" ev-style="Cutting" ev-style-annotation="false"/>
		<line x1="2747.27" y1="2260.86" x2="2709.47" y2="2260.86" stroke="rgb(255,0,0)" stroke-width="14.8313" ev-style="Cutting" ev-style-annotation="false"/>
		<line x1="2747.27" y1="2267.66" x2="2709.47" y2="2267.66" stroke="rgb(255,0,0)" stroke-width="14.8313" ev-style="Cutting" ev-style-annotation="false"/>
		<path d="M2709.47,2260.86 a3.40157 3.40157 0 0 0 0,6.80315" fill="none" stroke="rgb(255,0,0)" stroke-width="14.8313" ev-style="Cutting" ev-style-annotation="false"/>
		<line x1="2747.27" y1="1833.02" x2="2709.47" y2="1833.02" stroke="rgb(255,0,0)" stroke-width="14.8313" ev-style="Cutting" ev-style-annotation="false"/>
		<line x1="2747.27" y1="1826.21" x2="2709.47" y2="1826.21" stroke="rgb(255,0,0)" stroke-width="14.8313" ev-style="Cutting" ev-style-annotation="false"/>
		<path d="M2709.47,1833.02 a3.40157 3.40157 0 0 1 0,-6.80315" fill="none" stroke="rgb(255,0,0)" stroke-width="14.8313" ev-style="Cutting" ev-style-annotation="false"/>
		<path d="M909.282,621.866 a56.6929 56.6929 0 0 0 -56.6929,56.6929" fill="none" stroke="rgb(255,0,0)" stroke-width="14.8313" ev-style="Cutting" ev-style-annotation="false"/>
		<path d="M3081,621.866 a56.6929 56.6929 0 0 1 56.6929,56.6929" fill="none" stroke="rgb(255,0,0)" stroke-width="14.8313" ev-style="Cutting" ev-style-annotation="false"/>
		<path d="M1098.98,1833.02 a18.8976 18.8976 0 0 0 -18.8976,18.8976" fill="none" stroke="rgb(255,0,0)" stroke-width="14.8313" ev-style="Cutting" ev-style-annotation="false"/>
		<path d="M1080.08,2241.96 a18.8976 18.8976 0 0 0 18.8976,18.8976" fill="none" stroke="rgb(255,0,0)" stroke-width="14.8313" ev-style="Cutting" ev-style-annotation="false"/>
		<path d="M2891.3,1833.02 a18.8976 18.8976 0 0 1 18.8976,18.8976" fill="none" stroke="rgb(255,0,0)" stroke-width="14.8313" ev-style="Cutting" ev-style-annotation="false"/>
		<path d="M2910.2,2241.96 a18.8976 18.8976 0 0 1 -18.8976,18.8976" fill="none" stroke="rgb(255,0,0)" stroke-width="14.8313" ev-style="Cutting" ev-style-annotation="false"/>
		<path d="M871.487,1826.21 a18.8976 18.8976 0 0 1 -18.8976,-18.8976" fill="none" stroke="rgb(255,0,0)" stroke-width="14.8313" ev-style="Cutting" ev-style-annotation="false"/>
		<path d="M3118.79,1826.21 a18.8976 18.8976 0 0 0 18.8976,-18.8976" fill="none" stroke="rgb(255,0,0)" stroke-width="14.8313" ev-style="Cutting" ev-style-annotation="false"/>
		<path d="M2569.63,621.866 a56.6929 56.6929 0 0 0 -56.6929,56.6929" fill="none" stroke="rgb(255,0,0)" stroke-width="14.8313" ev-style="Cutting" ev-style-annotation="false"/>
		<line x1="2512.94" y1="678.559" x2="2512.94" y2="1025.02" stroke="rgb(255,0,0)" stroke-width="14.8313" ev-style="Cutting" ev-style-annotation="false"/>
		<line x1="2512.94" y1="1025.02" x2="2138.76" y2="1025.02" stroke="rgb(255,0,0)" stroke-width="14.8313" ev-style="Cutting" ev-style-annotation="false"/>
		<line x1="1851.52" y1="1025.02" x2="1477.34" y2="1025.02" stroke="rgb(255,0,0)" stroke-width="14.8313" ev-style="Cutting" ev-style-annotation="false"/>
		<line x1="1477.34" y1="1025.02" x2="1477.34" y2="678.559" stroke="rgb(255,0,0)" stroke-width="14.8313" ev-style="Cutting" ev-style-annotation="false"/>
		<path d="M1477.34,678.559 a56.6929 56.6929 0 0 0 -56.6929,-56.6929" fill="none" stroke="rgb(255,0,0)" stroke-width="14.8313" ev-style="Cutting" ev-style-annotation="false"/>
		<line x1="1271.93" y1="3911.76" x2="1271.93" y2="4296.01" stroke="rgb(255,0,0)" stroke-width="14.8313" ev-style="Cutting" ev-style-annotation="false"/>
		<line x1="1271.93" y1="4296.01" x2="1309.72" y2="4314.91" stroke="rgb(255,0,0)" stroke-width="14.8313" ev-style="Cutting" ev-style-annotation="false"/>
		<line x1="1309.72" y1="4314.91" x2="1477.34" y2="4314.91" stroke="rgb(255,0,0)" stroke-width="14.8313" ev-style="Cutting" ev-style-annotation="false"/>
		<line x1="2512.94" y1="4314.91" x2="2680.56" y2="4314.91" stroke="rgb(255,0,0)" stroke-width="14.8313" ev-style="Cutting" ev-style-annotation="false"/>
		<line x1="2680.56" y1="4314.91" x2="2718.35" y2="4296.01" stroke="rgb(255,0,0)" stroke-width="14.8313" ev-style="Cutting" ev-style-annotation="false"/>
		<line x1="2718.35" y1="4296.01" x2="2718.35" y2="3911.76" stroke="rgb(255,0,0)" stroke-width="14.8313" ev-style="Cutting" ev-style-annotation="false"/>
		<line x1="2718.35" y1="3911.76" x2="1271.93" y2="3911.76" stroke="rgb(0,255,0)" stroke-width="14.8313" ev-style="Creasing" ev-style-annotation="false"/>
		<line x1="2456.24" y1="4466.09" x2="1534.04" y2="4466.09" stroke="rgb(255,0,0)" stroke-width="14.8313" ev-style="Cutting" ev-style-annotation="false"/>
		<line x1="2512.94" y1="4314.91" x2="2512.94" y2="4409.39" stroke="rgb(255,0,0)" stroke-width="14.8313" ev-style="Cutting" ev-style-annotation="false"/>
		<line x1="1477.34" y1="4409.39" x2="1477.34" y2="4314.91" stroke="rgb(255,0,0)" stroke-width="14.8313" ev-style="Cutting" ev-style-annotation="false"/>
		<path d="M1477.34,4409.39 a56.6929 56.6929 0 0 0 56.6929,56.6929" fill="none" stroke="rgb(255,0,0)" stroke-width="14.8313" ev-style="Cutting" ev-style-annotation="false"/>
		<path d="M2456.24,4466.09 a56.6929 56.6929 0 0 0 56.6929,-56.6929" fill="none" stroke="rgb(255,0,0)" stroke-width="14.8313" ev-style="Cutting" ev-style-annotation="false"/>
		<circle cx="1056.31" cy="810.843" r="37.7953" fill="none" stroke="rgb(255,0,0)" stroke-width="14.8313" ev-style="Cutting" ev-style-annotation="false"/>
		<circle cx="2933.97" cy="810.843" r="37.7953" fill="none" stroke="rgb(255,0,0)" stroke-width="14.8313" ev-style="Cutting" ev-style-annotation="false"/>
		<circle cx="1059.71" cy="3280.95" r="41.5748" fill="none" stroke="rgb(255,0,0)" stroke-width="14.8313" ev-style="Cutting" ev-style-annotation="false"/>
		<circle cx="2930.57" cy="3658.91" r="41.5748" fill="none" stroke="rgb(255,0,0)" stroke-width="14.8313" ev-style="Cutting" ev-style-annotation="false"/>
		<circle cx="2930.57" cy="3280.95" r="41.5748" fill="none" stroke="rgb(255,0,0)" stroke-width="14.8313" ev-style="Cutting" ev-style-annotation="false"/>
		<circle cx="1059.71" cy="3658.91" r="41.5748" fill="none" stroke="rgb(255,0,0)" stroke-width="14.8313" ev-style="Cutting" ev-style-annotation="false"/>
		<path d="M2138.76,1025.02 a37.7953 37.7953 0 0 0 -37.7953,37.7953" fill="none" stroke="rgb(255,0,0)" stroke-width="14.8313" ev-style="Cutting" ev-style-annotation="false"/>
		<line x1="2100.97" y1="1062.81" x2="2100.97" y2="1183.76" stroke="rgb(255,0,0)" stroke-width="14.8313" ev-style="Cutting" ev-style-annotation="false"/>
		<line x1="1889.31" y1="1183.76" x2="1889.31" y2="1062.81" stroke="rgb(255,0,0)" stroke-width="14.8313" ev-style="Cutting" ev-style-annotation="false"/>
		<path d="M1889.31,1062.81 a37.7953 37.7953 0 0 0 -37.7953,-37.7953" fill="none" stroke="rgb(255,0,0)" stroke-width="14.8313" ev-style="Cutting" ev-style-annotation="false"/>
		<line x1="1889.31" y1="1062.81" x2="2100.97" y2="1062.81" stroke="rgb(255,0,0)" stroke-width="14.8313" ev-style="Cutting" ev-style-annotation="false"/>
		<line x1="852.589" y1="1580.13" x2="842.384" y2="1580.13" stroke="rgb(255,0,0)" stroke-width="14.8313" ev-style="Cutting" ev-style-annotation="false"/>
		<line x1="842.384" y1="1580.13" x2="842.384" y2="1590.24" stroke="rgb(255,0,0)" stroke-width="14.8313" ev-style="Cutting" ev-style-annotation="false"/>
		<line x1="771.896" y1="1590.24" x2="771.896" y2="864.543" stroke="rgb(255,0,0)" stroke-width="14.8313" ev-style="Cutting" ev-style-annotation="false"/>
		<line x1="817.25" y1="819.189" x2="842.384" y2="819.189" stroke="rgb(255,0,0)" stroke-width="14.8313" ev-style="Cutting" ev-style-annotation="false"/>
		<line x1="842.384" y1="819.189" x2="842.384" y2="864.543" stroke="rgb(255,0,0)" stroke-width="14.8313" ev-style="Cutting" ev-style-annotation="false"/>
		<line x1="842.384" y1="864.543" x2="852.589" y2="864.543" stroke="rgb(255,0,0)" stroke-width="14.8313" ev-style="Cutting" ev-style-annotation="false"/>
		<line x1="847.487" y1="1580.13" x2="847.487" y2="864.543" stroke="rgb(0,255,0)" stroke-width="14.8313" ev-style="Creasing" ev-style-annotation="false"/>
		<line x1="3137.69" y1="1580.13" x2="3147.9" y2="1580.13" stroke="rgb(255,0,0)" stroke-width="14.8313" ev-style="Cutting" ev-style-annotation="false"/>
		<line x1="3147.9" y1="1580.13" x2="3147.9" y2="1590.24" stroke="rgb(255,0,0)" stroke-width="14.8313" ev-style="Cutting" ev-style-annotation="false"/>
		<line x1="3218.38" y1="1590.24" x2="3218.38" y2="864.543" stroke="rgb(255,0,0)" stroke-width="14.8313" ev-style="Cutting" ev-style-annotation="false"/>
		<line x1="3173.03" y1="819.189" x2="3147.9" y2="819.189" stroke="rgb(255,0,0)" stroke-width="14.8313" ev-style="Cutting" ev-style-annotation="false"/>
		<line x1="3147.9" y1="819.189" x2="3147.9" y2="864.543" stroke="rgb(255,0,0)" stroke-width="14.8313" ev-style="Cutting" ev-style-annotation="false"/>
		<line x1="3147.9" y1="864.543" x2="3137.69" y2="864.543" stroke="rgb(255,0,0)" stroke-width="14.8313" ev-style="Cutting" ev-style-annotation="false"/>
		<line x1="3142.79" y1="1580.13" x2="3142.79" y2="864.543" stroke="rgb(0,255,0)" stroke-width="14.8313" ev-style="Creasing" ev-style-annotation="false"/>
		<path d="M771.896,1590.24 a35.2441 35.2441 0 0 0 35.2441,35.2441" fill="none" stroke="rgb(255,0,0)" stroke-width="14.8313" ev-style="Cutting" ev-style-annotation="false"/>
		<path d="M807.14,1625.49 a35.2441 35.2441 0 0 0 35.2441,-35.2441" fill="none" stroke="rgb(255,0,0)" stroke-width="14.8313" ev-style="Cutting" ev-style-annotation="false"/>
		<path d="M3183.14,1625.49 a35.2441 35.2441 0 0 1 -35.2441,-35.2441" fill="none" stroke="rgb(255,0,0)" stroke-width="14.8313" ev-style="Cutting" ev-style-annotation="false"/>
		<path d="M3183.14,1625.49 a35.2441 35.2441 0 0 0 35.2441,-35.2441" fill="none" stroke="rgb(255,0,0)" stroke-width="14.8313" ev-style="Cutting" ev-style-annotation="false"/>
		<path d="M3173.03,819.189 a45.3543 45.3543 0 0 1 45.3543,45.3543" fill="none" stroke="rgb(255,0,0)" stroke-width="14.8313" ev-style="Cutting" ev-style-annotation="false"/>
		<path d="M817.25,819.189 a45.3543 45.3543 0 0 0 -45.3543,45.3543" fill="none" stroke="rgb(255,0,0)" stroke-width="14.8313" ev-style="Cutting" ev-style-annotation="false"/>
		<line x1="2718.35" y1="2502.78" x2="2721.75" y2="2506.56" stroke="rgb(255,0,0)" stroke-width="14.8313" ev-style="Cutting" ev-style-annotation="false"/>
		<line x1="2721.75" y1="2506.56" x2="2721.75" y2="3233.49" stroke="rgb(255,0,0)" stroke-width="14.8313" ev-style="Cutting" ev-style-annotation="false"/>
		<line x1="2721.75" y1="3233.49" x2="2718.35" y2="3237.27" stroke="rgb(255,0,0)" stroke-width="14.8313" ev-style="Cutting" ev-style-annotation="false"/>
		<line x1="2718.35" y1="2468.76" x2="2718.35" y2="3271.28" stroke="rgb(255,0,0)" stroke-width="14.8313" ev-style="Cutting" ev-style-annotation="false"/>
		<line x1="2718.35" y1="3271.28" x2="2698.13" y2="3275.06" stroke="rgb(255,0,0)" stroke-width="14.8313" ev-style="Cutting" ev-style-annotation="false"/>
		<line x1="2718.35" y1="2468.76" x2="2698.13" y2="2464.98" stroke="rgb(255,0,0)" stroke-width="14.8313" ev-style="Cutting" ev-style-annotation="false"/>
		<line x1="1271.93" y1="2502.78" x2="1268.53" y2="2506.56" stroke="rgb(255,0,0)" stroke-width="14.8313" ev-style="Cutting" ev-style-annotation="false"/>
		<line x1="1268.53" y1="2506.56" x2="1268.53" y2="3233.49" stroke="rgb(255,0,0)" stroke-width="14.8313" ev-style="Cutting" ev-style-annotation="false"/>
		<line x1="1268.53" y1="3233.49" x2="1271.93" y2="3237.27" stroke="rgb(255,0,0)" stroke-width="14.8313" ev-style="Cutting" ev-style-annotation="false"/>
		<line x1="1271.93" y1="2468.76" x2="1271.93" y2="3271.28" stroke="rgb(255,0,0)" stroke-width="14.8313" ev-style="Cutting" ev-style-annotation="false"/>
		<line x1="1271.93" y1="3271.28" x2="1292.15" y2="3275.06" stroke="rgb(255,0,0)" stroke-width="14.8313" ev-style="Cutting" ev-style-annotation="false"/>
		<line x1="1271.93" y1="2468.76" x2="1292.15" y2="2464.98" stroke="rgb(255,0,0)" stroke-width="14.8313" ev-style="Cutting" ev-style-annotation="false"/>
		<g id="evml.1" stroke="rgb(128,0,128)" stroke-width="5.9325" fill="rgb(128,0,128)" ev-style="Dimensions" ev-style-annotation="true">
			<g transform="translate(3299.32,2530.32) rotate(90) scale(1,-1) ">
				<text x="0" y="0" font-size="66.7407" font-weight="400" font-family="Arial" text-anchor="start" dominant-baseline="baseline">1073.90</text>
			</g>
			<line x1="3314.38" y1="4680.7" x2="3306.97" y2="4638.66"/>
			<line x1="3306.97" y1="4638.66" x2="3321.8" y2="4638.66"/>
			<line x1="3321.8" y1="4638.66" x2="3314.38" y2="4680.7"/>
			<line x1="3314.38" y1="621.866" x2="3321.8" y2="663.908"/>
			<line x1="3321.8" y1="663.908" x2="3306.97" y2="663.908"/>
			<line x1="3306.97" y1="663.908" x2="3314.38" y2="621.866"/>
			<line x1="3314.38" y1="4680.7" x2="3314.38" y2="621.866"/>
			<line x1="3240.36" y1="4680.7" x2="3356.43" y2="4680.7"/>
			<line x1="3240.36" y1="621.866" x2="3356.43" y2="621.866"/>
		</g>
		<g id="evml.2" stroke="rgb(128,0,128)" stroke-width="5.9325" fill="rgb(128,0,128)" ev-style="Dimensions" ev-style-annotation="true">
			<g transform="translate(1892.8,4791.77) rotate(0) scale(1,-1) ">
				<text x="0" y="0" font-size="66.7407" font-weight="400" font-family="Arial" text-anchor="start" dominant-baseline="baseline">647.30</text>
			</g>
			<line x1="771.896" y1="4776.7" x2="813.937" y2="4769.29"/>
			<line x1="813.937" y1="4769.29" x2="813.937" y2="4784.11"/>
			<line x1="813.937" y1="4784.11" x2="771.896" y2="4776.7"/>
			<line x1="3218.38" y1="4776.7" x2="3176.34" y2="4784.11"/>
			<line x1="3176.34" y1="4784.11" x2="3176.34" y2="4769.29"/>
			<line x1="3176.34" y1="4769.29" x2="3218.38" y2="4776.7"/>
			<line x1="771.896" y1="4776.7" x2="3218.38" y2="4776.7"/>
			<line x1="771.896" y1="4702.68" x2="771.896" y2="4818.74"/>
			<line x1="3218.38" y1="4702.68" x2="3218.38" y2="4818.74"/>
		</g>
		<g id="evml.1.1" stroke="rgb(128,0,128)" stroke-width="5.9325" fill="rgb(128,0,128)" ev-style="Dimensions" ev-style-annotation="true">
			<g transform="translate(1969,3283.6) rotate(0) scale(1,-1) ">
				<text x="0" y="0" font-size="66.7407" font-weight="400" font-family="Arial" text-anchor="start" dominant-baseline="baseline">L [380.00]</text>
			</g>
			<line x1="2713.25" y1="3268.54" x2="2671.21" y2="3275.95"/>
			<line x1="2671.21" y1="3275.95" x2="2671.21" y2="3261.12"/>
			<line x1="2671.21" y1="3261.12" x2="2713.25" y2="3268.54"/>
			<line x1="1277.03" y1="3268.54" x2="1319.07" y2="3261.12"/>
			<line x1="1319.07" y1="3261.12" x2="1319.07" y2="3275.95"/>
			<line x1="1319.07" y1="3275.95" x2="1277.03" y2="3268.54"/>
			<line x1="2713.25" y1="3268.54" x2="1277.03" y2="3268.54"/>
		</g>
		<g id="evml.1.2" stroke="rgb(128,0,128)" stroke-width="5.9325" fill="rgb(128,0,128)" ev-style="Dimensions" ev-style-annotation="true">
			<g transform="translate(1555.37,2438.21) rotate(90) scale(1,-1) ">
				<text x="0" y="0" font-size="66.7407" font-weight="400" font-family="Arial" text-anchor="start" dominant-baseline="baseline">H [320.00]</text>
			</g>
			<line x1="1570.44" y1="3473.71" x2="1563.03" y2="3431.67"/>
			<line x1="1563.03" y1="3431.67" x2="1577.85" y2="3431.67"/>
			<line x1="1577.85" y1="3431.67" x2="1570.44" y2="3473.71"/>
			<line x1="1570.44" y1="2264.26" x2="1577.85" y2="2306.3"/>
			<line x1="1577.85" y1="2306.3" x2="1563.03" y2="2306.3"/>
			<line x1="1563.03" y1="2306.3" x2="1570.44" y2="2264.26"/>
			<line x1="1570.44" y1="3473.71" x2="1570.44" y2="2264.26"/>
		</g>
		<g id="evml.96.11" stroke="rgb(128,0,128)" stroke-width="5.9325" fill="rgb(128,0,128)" ev-style="Dimensions" ev-style-annotation="true">
			<g transform="translate(1559.32,1882.89) rotate(90) scale(1,-1) ">
				<text x="0" y="0" font-size="66.7407" font-weight="400" font-family="Arial" text-anchor="start" dominant-baseline="baseline">W [115.00]</text>
			</g>
			<line x1="1574.38" y1="2264.26" x2="1566.97" y2="2222.22"/>
			<line x1="1566.97" y1="2222.22" x2="1581.8" y2="2222.22"/>
			<line x1="1581.8" y1="2222.22" x2="1574.38" y2="2264.26"/>
			<line x1="1574.38" y1="1829.61" x2="1581.8" y2="1871.66"/>
			<line x1="1581.8" y1="1871.66" x2="1566.97" y2="1871.66"/>
			<line x1="1566.97" y1="1871.66" x2="1574.38" y2="1829.61"/>
			<line x1="1574.38" y1="2264.26" x2="1574.38" y2="1829.61"/>
		</g>
	</g>
</svg>