<svg version="1.1" xmlns="http://www.w3.org/2000/svg" xmlns:xlink="http://www.w3.org/1999/xlink" width="1853.96" height="1549.36" viewBox="-15.4008 -130.704 1853.96 1549.36">
	<g transform="translate(-768.594,1894.1) scale(1,-1) ">
		<line x1="1104.97" y1="1563.39" x2="2159.46" y2="1563.39" stroke="rgb(0,255,0)" stroke-width="5.40202" ev-style="Creasing" ev-style-annotation="false"/>
		<line x1="2159.46" y1="807.481" x2="1104.97" y2="807.481" stroke="rgb(0,255,0)" stroke-width="5.40202" ev-style="Creasing" ev-style-annotation="false"/>
		<line x1="2161.35" y1="807.481" x2="2161.35" y2="1563.39" stroke="rgb(0,255,0)" stroke-width="5.40202" ev-style="Creasing" ev-style-annotation="false"/>
		<line x1="1103.08" y1="1563.39" x2="1103.08" y2="807.481" stroke="rgb(0,255,0)" stroke-width="5.40202" ev-style="Creasing" ev-style-annotation="false"/>
		<line x1="1104.97" y1="1674.88" x2="1104.97" y2="1731.58" stroke="rgb(255,0,0)" stroke-width="5.40202" ev-style="Cutting" ev-style-annotation="false"/>
		<line x1="2159.46" y1="1731.58" x2="2159.46" y2="1674.88" stroke="rgb(255,0,0)" stroke-width="5.40202" ev-style="Cutting" ev-style-annotation="false"/>
		<line x1="2159.46" y1="1674.88" x2="1104.97" y2="1674.88" stroke="rgb(0,255,0)" stroke-width="5.40202" ev-style="Creasing" ev-style-annotation="false"/>
		<line x1="1158.83" y1="1731.58" x2="2105.6" y2="1731.58" stroke="rgb(0,255,0)" stroke-width="5.40202" ev-style="Creasing" ev-style-annotation="false"/>
		<line x1="1158.83" y1="1841.18" x2="2105.6" y2="1841.18" stroke="rgb(0,255,0)" stroke-width="5.40202" ev-style="Creasing" ev-style-annotation="false"/>
		<line x1="2105.6" y1="1841.18" x2="2052.69" y2="1894.1" stroke="rgb(255,0,0)" stroke-width="5.40202" ev-style="Cutting" ev-style-annotation="false"/>
		<line x1="2052.69" y1="1894.1" x2="1211.74" y2="1894.1" stroke="rgb(255,0,0)" stroke-width="5.40202" ev-style="Cutting" ev-style-annotation="false"/>
		<line x1="1211.74" y1="1894.1" x2="1158.83" y2="1841.18" stroke="rgb(255,0,0)" stroke-width="5.40202" ev-style="Cutting" ev-style-annotation="false"/>
		<line x1="2105.6" y1="1731.58" x2="2105.6" y2="1894.1" stroke="rgb(255,0,0)" stroke-width="5.40202" ev-style="Cutting" ev-style-annotation="false"/>
		<line x1="2105.6" y1="1894.1" x2="2159.46" y2="1894.1" stroke="rgb(255,0,0)" stroke-width="5.40202" ev-style="Cutting" ev-style-annotation="false"/>
		<line x1="2159.46" y1="1894.1" x2="2159.46" y2="1731.58" stroke="rgb(255,0,0)" stroke-width="5.40202" ev-style="Cutting" ev-style-annotation="false"/>
		<line x1="1104.97" y1="1731.58" x2="1104.97" y2="1894.1" stroke="rgb(255,0,0)" stroke-width="5.40202" ev-style="Cutting" ev-style-annotation="false"/>
		<line x1="1104.97" y1="1894.1" x2="1158.83" y2="1894.1" stroke="rgb(255,0,0)" stroke-width="5.40202" ev-style="Cutting" ev-style-annotation="false"/>
		<line x1="1158.83" y1="1894.1" x2="1158.83" y2="1731.58" stroke="rgb(255,0,0)" stroke-width="5.40202" ev-style="Cutting" ev-style-annotation="false"/>
		<line x1="2159.46" y1="695.985" x2="2159.46" y2="639.292" stroke="rgb(255,0,0)" stroke-width="5.40202" ev-style="Cutting" ev-style-annotation="false"/>
		<line x1="1104.97" y1="639.292" x2="1104.97" y2="695.985" stroke="rgb(255,0,0)" stroke-width="5.40202" ev-style="Cutting" ev-style-annotation="false"/>
		<line x1="1104.97" y1="695.985" x2="2159.46" y2="695.985" stroke="rgb(0,255,0)" stroke-width="5.40202" ev-style="Creasing" ev-style-annotation="false"/>
		<line x1="2105.6" y1="639.292" x2="1158.83" y2="639.292" stroke="rgb(0,255,0)" stroke-width="5.40202" ev-style="Creasing" ev-style-annotation="false"/>
		<line x1="2105.6" y1="529.686" x2="1158.83" y2="529.686" stroke="rgb(0,255,0)" stroke-width="5.40202" ev-style="Creasing" ev-style-annotation="false"/>
		<line x1="1158.83" y1="529.686" x2="1211.74" y2="476.772" stroke="rgb(255,0,0)" stroke-width="5.40202" ev-style="Cutting" ev-style-annotation="false"/>
		<line x1="1211.74" y1="476.772" x2="2052.69" y2="476.772" stroke="rgb(255,0,0)" stroke-width="5.40202" ev-style="Cutting" ev-style-annotation="false"/>
		<line x1="2052.69" y1="476.772" x2="2105.6" y2="529.686" stroke="rgb(255,0,0)" stroke-width="5.40202" ev-style="Cutting" ev-style-annotation="false"/>
		<line x1="2159.46" y1="639.292" x2="2159.46" y2="476.772" stroke="rgb(255,0,0)" stroke-width="5.40202" ev-style="Cutting" ev-style-annotation="false"/>
		<line x1="2159.46" y1="476.772" x2="2105.6" y2="476.772" stroke="rgb(255,0,0)" stroke-width="5.40202" ev-style="Cutting" ev-style-annotation="false"/>
		<line x1="2105.6" y1="476.772" x2="2105.6" y2="639.292" stroke="rgb(255,0,0)" stroke-width="5.40202" ev-style="Cutting" ev-style-annotation="false"/>
		<line x1="1158.83" y1="639.292" x2="1158.83" y2="476.772" stroke="rgb(255,0,0)" stroke-width="5.40202" ev-style="Cutting" ev-style-annotation="false"/>
		<line x1="1158.83" y1="476.772" x2="1104.97" y2="476.772" stroke="rgb(255,0,0)" stroke-width="5.40202" ev-style="Cutting" ev-style-annotation="false"/>
		<line x1="1104.97" y1="476.772" x2="1104.97" y2="639.292" stroke="rgb(255,0,0)" stroke-width="5.40202" ev-style="Cutting" ev-style-annotation="false"/>
		<line x1="2159.46" y1="1674.88" x2="2331.43" y2="1674.88" stroke="rgb(255,0,0)" stroke-width="5.40202" ev-style="Cutting" ev-style-annotation="false"/>
		<line x1="2331.43" y1="1674.88" x2="2331.43" y2="1563.39" stroke="rgb(255,0,0)" stroke-width="5.40202" ev-style="Cutting" ev-style-annotation="false"/>
		<line x1="2331.43" y1="1563.39" x2="2159.46" y2="1563.39" stroke="rgb(255,0,0)" stroke-width="5.40202" ev-style="Cutting" ev-style-annotation="false"/>
		<line x1="2159.46" y1="1563.39" x2="2159.46" y2="1674.88" stroke="rgb(0,255,0)" stroke-width="5.40202" ev-style="Creasing" ev-style-annotation="false"/>
		<line x1="2159.46" y1="807.481" x2="2331.43" y2="807.481" stroke="rgb(255,0,0)" stroke-width="5.40202" ev-style="Cutting" ev-style-annotation="false"/>
		<line x1="2331.43" y1="807.481" x2="2331.43" y2="695.985" stroke="rgb(255,0,0)" stroke-width="5.40202" ev-style="Cutting" ev-style-annotation="false"/>
		<line x1="2331.43" y1="695.985" x2="2159.46" y2="695.985" stroke="rgb(255,0,0)" stroke-width="5.40202" ev-style="Cutting" ev-style-annotation="false"/>
		<line x1="2159.46" y1="695.985" x2="2159.46" y2="807.481" stroke="rgb(0,255,0)" stroke-width="5.40202" ev-style="Creasing" ev-style-annotation="false"/>
		<line x1="1104.97" y1="695.985" x2="933.003" y2="695.985" stroke="rgb(255,0,0)" stroke-width="5.40202" ev-style="Cutting" ev-style-annotation="false"/>
		<line x1="933.003" y1="695.985" x2="933.003" y2="807.481" stroke="rgb(255,0,0)" stroke-width="5.40202" ev-style="Cutting" ev-style-annotation="false"/>
		<line x1="933.003" y1="807.481" x2="1104.97" y2="807.481" stroke="rgb(255,0,0)" stroke-width="5.40202" ev-style="Cutting" ev-style-annotation="false"/>
		<line x1="1104.97" y1="807.481" x2="1104.97" y2="695.985" stroke="rgb(0,255,0)" stroke-width="5.40202" ev-style="Creasing" ev-style-annotation="false"/>
		<line x1="1104.97" y1="1563.39" x2="933.003" y2="1563.39" stroke="rgb(255,0,0)" stroke-width="5.40202" ev-style="Cutting" ev-style-annotation="false"/>
		<line x1="933.003" y1="1563.39" x2="933.003" y2="1674.88" stroke="rgb(255,0,0)" stroke-width="5.40202" ev-style="Cutting" ev-style-annotation="false"/>
		<line x1="933.003" y1="1674.88" x2="1104.97" y2="1674.88" stroke="rgb(255,0,0)" stroke-width="5.40202" ev-style="Cutting" ev-style-annotation="false"/>
		<line x1="1104.97" y1="1674.88" x2="1104.97" y2="1563.39" stroke="rgb(0,255,0)" stroke-width="5.40202" ev-style="Creasing" ev-style-annotation="false"/>
		<line x1="2274.74" y1="1563.39" x2="2331.43" y2="1504.8" stroke="rgb(255,0,0)" stroke-width="5.40202" ev-style="Cutting" ev-style-annotation="false"/>
		<line x1="2331.43" y1="866.064" x2="2274.74" y2="807.481" stroke="rgb(255,0,0)" stroke-width="5.40202" ev-style="Cutting" ev-style-annotation="false"/>
		<line x1="2274.74" y1="1563.39" x2="2274.74" y2="807.481" stroke="rgb(0,255,0)" stroke-width="5.40202" ev-style="Creasing" ev-style-annotation="false"/>
		<line x1="989.696" y1="807.481" x2="933.003" y2="866.064" stroke="rgb(255,0,0)" stroke-width="5.40202" ev-style="Cutting" ev-style-annotation="false"/>
		<line x1="933.003" y1="1504.8" x2="989.696" y2="1563.39" stroke="rgb(255,0,0)" stroke-width="5.40202" ev-style="Cutting" ev-style-annotation="false"/>
		<line x1="989.696" y1="807.481" x2="989.696" y2="1563.39" stroke="rgb(0,255,0)" stroke-width="5.40202" ev-style="Creasing" ev-style-annotation="false"/>
		<line x1="2331.43" y1="866.064" x2="2331.43" y2="1504.8" stroke="rgb(0,255,0)" stroke-width="5.40202" ev-style="Creasing" ev-style-annotation="false"/>
		<line x1="933.003" y1="1504.8" x2="933.003" y2="866.064" stroke="rgb(0,255,0)" stroke-width="5.40202" ev-style="Creasing" ev-style-annotation="false"/>
		<line x1="2442.92" y1="1504.8" x2="2442.92" y2="866.064" stroke="rgb(0,255,0)" stroke-width="5.40202" ev-style="Creasing" ev-style-annotation="false"/>
		<line x1="2442.92" y1="866.064" x2="2495.84" y2="918.977" stroke="rgb(255,0,0)" stroke-width="5.40202" ev-style="Cutting" ev-style-annotation="false"/>
		<line x1="2495.84" y1="918.977" x2="2495.84" y2="1451.89" stroke="rgb(255,0,0)" stroke-width="5.40202" ev-style="Cutting" ev-style-annotation="false"/>
		<line x1="2495.84" y1="1451.89" x2="2442.92" y2="1504.8" stroke="rgb(255,0,0)" stroke-width="5.40202" ev-style="Cutting" ev-style-annotation="false"/>
		<line x1="821.507" y1="866.064" x2="821.507" y2="1504.8" stroke="rgb(0,255,0)" stroke-width="5.40202" ev-style="Creasing" ev-style-annotation="false"/>
		<line x1="821.507" y1="1504.8" x2="768.594" y2="1451.89" stroke="rgb(255,0,0)" stroke-width="5.40202" ev-style="Cutting" ev-style-annotation="false"/>
		<line x1="768.594" y1="1451.89" x2="768.594" y2="918.977" stroke="rgb(255,0,0)" stroke-width="5.40202" ev-style="Cutting" ev-style-annotation="false"/>
		<line x1="768.594" y1="918.977" x2="821.507" y2="866.064" stroke="rgb(255,0,0)" stroke-width="5.40202" ev-style="Cutting" ev-style-annotation="false"/>
		<path d="M821.507,1504.8 a110.344 110.344 0 0 0 111.496,0" fill="none" stroke="rgb(255,0,0)" stroke-width="5.40202" ev-style="Cutting" ev-style-annotation="false"/>
		<path d="M933.003,866.064 a110.344 110.344 0 0 0 -111.496,0" fill="none" stroke="rgb(255,0,0)" stroke-width="5.40202" ev-style="Cutting" ev-style-annotation="false"/>
		<path d="M2442.92,866.064 a110.344 110.344 0 0 0 -111.496,0" fill="none" stroke="rgb(255,0,0)" stroke-width="5.40202" ev-style="Cutting" ev-style-annotation="false"/>
		<path d="M2331.43,1504.8 a110.344 110.344 0 0 0 111.496,0" fill="none" stroke="rgb(255,0,0)" stroke-width="5.40202" ev-style="Cutting" ev-style-annotation="false"/>
		<g id="evml.3" stroke="rgb(128,0,128)" stroke-width="2.16081" fill="rgb(128,0,128)" ev-style="Dimensions" ev-style-annotation="true">
			<g transform="translate(1151.96,1509.3) rotate(0) scale(1,-1) ">
				<text x="0" y="0" font-size="24.3091" font-weight="400" font-family="Arial" text-anchor="start" dominant-baseline="baseline">0.50</text>
			</g>
			<line x1="1103.08" y1="1499.01" x2="1087.77" y2="1501.71"/>
			<line x1="1087.77" y1="1501.71" x2="1087.77" y2="1496.31"/>
			<line x1="1087.77" y1="1496.31" x2="1103.08" y2="1499.01"/>
			<line x1="1104.97" y1="1499.01" x2="1120.28" y2="1496.31"/>
			<line x1="1120.28" y1="1496.31" x2="1120.28" y2="1501.71"/>
			<line x1="1120.28" y1="1501.71" x2="1104.97" y2="1499.01"/>
			<line x1="1093.08" y1="1499.01" x2="1103.08" y2="1499.01"/>
			<line x1="1114.97" y1="1499.01" x2="1104.97" y2="1499.01"/>
			<line x1="1104.97" y1="1555.73" x2="1104.97" y2="1483.7"/>
			<line x1="1104.97" y1="1499.01" x2="1175.67" y2="1499.01"/>
		</g>
		<g id="evml.4" stroke="rgb(128,0,128)" stroke-width="2.16081" fill="rgb(128,0,128)" ev-style="Dimensions" ev-style-annotation="true">
			<g transform="translate(2581.54,1148.16) rotate(90) scale(1,-1) ">
				<text x="0" y="0" font-size="24.3091" font-weight="400" font-family="Arial" text-anchor="start" dominant-baseline="baseline">375.00</text>
			</g>
			<line x1="2591.84" y1="1894.1" x2="2589.14" y2="1878.78"/>
			<line x1="2589.14" y1="1878.78" x2="2594.54" y2="1878.78"/>
			<line x1="2594.54" y1="1878.78" x2="2591.84" y2="1894.1"/>
			<line x1="2591.84" y1="476.772" x2="2594.54" y2="492.085"/>
			<line x1="2594.54" y1="492.085" x2="2589.14" y2="492.085"/>
			<line x1="2589.14" y1="492.085" x2="2591.84" y2="476.772"/>
			<line x1="2591.84" y1="1894.1" x2="2591.84" y2="476.772"/>
			<line x1="2504.45" y1="1894.1" x2="2607.15" y2="1894.1"/>
			<line x1="2504.45" y1="476.772" x2="2607.15" y2="476.772"/>
		</g>
		<g id="evml.5" stroke="rgb(128,0,128)" stroke-width="2.16081" fill="rgb(128,0,128)" ev-style="Dimensions" ev-style-annotation="true">
			<g transform="translate(1594.94,2000.39) rotate(0) scale(1,-1) ">
				<text x="0" y="0" font-size="24.3091" font-weight="400" font-family="Arial" text-anchor="start" dominant-baseline="baseline">457.00</text>
			</g>
			<line x1="768.594" y1="1990.1" x2="783.907" y2="1987.39"/>
			<line x1="783.907" y1="1987.39" x2="783.907" y2="1992.8"/>
			<line x1="783.907" y1="1992.8" x2="768.594" y2="1990.1"/>
			<line x1="2495.84" y1="1990.1" x2="2480.53" y2="1992.8"/>
			<line x1="2480.53" y1="1992.8" x2="2480.53" y2="1987.39"/>
			<line x1="2480.53" y1="1987.39" x2="2495.84" y2="1990.1"/>
			<line x1="768.594" y1="1990.1" x2="2495.84" y2="1990.1"/>
			<line x1="768.594" y1="1902.71" x2="768.594" y2="2005.41"/>
			<line x1="2495.84" y1="1902.71" x2="2495.84" y2="2005.41"/>
		</g>
		<g id="evml.6" stroke="rgb(128,0,128)" stroke-width="2.16081" fill="rgb(128,0,128)" ev-style="Dimensions" ev-style-annotation="true">
			<g transform="translate(1080.5,1950.46) rotate(0) scale(1,-1) ">
				<text x="0" y="0" font-size="24.3091" font-weight="400" font-family="Arial" text-anchor="start" dominant-baseline="baseline">TW [14.25]</text>
			</g>
			<line x1="1104.97" y1="1940.16" x2="1120.28" y2="1937.46"/>
			<line x1="1120.28" y1="1937.46" x2="1120.28" y2="1942.86"/>
			<line x1="1120.28" y1="1942.86" x2="1104.97" y2="1940.16"/>
			<line x1="1158.83" y1="1940.16" x2="1143.52" y2="1942.86"/>
			<line x1="1143.52" y1="1942.86" x2="1143.52" y2="1937.46"/>
			<line x1="1143.52" y1="1937.46" x2="1158.83" y2="1940.16"/>
			<line x1="1104.97" y1="1940.16" x2="1158.83" y2="1940.16"/>
			<line x1="1104.97" y1="1901.75" x2="1104.97" y2="1955.48"/>
			<line x1="1158.83" y1="1901.75" x2="1158.83" y2="1955.48"/>
		</g>
		<g id="evml.1.1" stroke="rgb(128,0,128)" stroke-width="2.16081" fill="rgb(128,0,128)" ev-style="Dimensions" ev-style-annotation="true">
			<g transform="translate(1538.15,1026.46) rotate(0) scale(1,-1) ">
				<text x="0" y="0" font-size="24.3091" font-weight="400" font-family="Arial" text-anchor="start" dominant-baseline="baseline">L [280.00]</text>
			</g>
			<line x1="1103.08" y1="1016.17" x2="1118.39" y2="1013.47"/>
			<line x1="1118.39" y1="1013.47" x2="1118.39" y2="1018.87"/>
			<line x1="1118.39" y1="1018.87" x2="1103.08" y2="1016.17"/>
			<line x1="2161.35" y1="1016.17" x2="2146.04" y2="1018.87"/>
			<line x1="2146.04" y1="1018.87" x2="2146.04" y2="1013.47"/>
			<line x1="2146.04" y1="1013.47" x2="2161.35" y2="1016.17"/>
			<line x1="1103.08" y1="1016.17" x2="2161.35" y2="1016.17"/>
		</g>
		<g id="evml.1.2" stroke="rgb(128,0,128)" stroke-width="2.16081" fill="rgb(128,0,128)" ev-style="Dimensions" ev-style-annotation="true">
			<g transform="translate(1909.2,1221.85) rotate(90) scale(1,-1) ">
				<text x="0" y="0" font-size="24.3091" font-weight="400" font-family="Arial" text-anchor="start" dominant-baseline="baseline">W [200.00]</text>
			</g>
			<line x1="1919.49" y1="807.481" x2="1922.19" y2="822.794"/>
			<line x1="1922.19" y1="822.794" x2="1916.79" y2="822.794"/>
			<line x1="1916.79" y1="822.794" x2="1919.49" y2="807.481"/>
			<line x1="1919.49" y1="1563.39" x2="1916.79" y2="1548.07"/>
			<line x1="1916.79" y1="1548.07" x2="1922.19" y2="1548.07"/>
			<line x1="1922.19" y1="1548.07" x2="1919.49" y2="1563.39"/>
			<line x1="1919.49" y1="807.481" x2="1919.49" y2="1563.39"/>
		</g>
		<g id="evml.2.11" stroke="rgb(128,0,128)" stroke-width="2.16081" fill="rgb(128,0,128)" ev-style="Dimensions" ev-style-annotation="true">
			<g transform="translate(1909.2,1563.07) rotate(90) scale(1,-1) ">
				<text x="0" y="0" font-size="24.3091" font-weight="400" font-family="Arial" text-anchor="start" dominant-baseline="baseline">H1 [29.50]</text>
			</g>
			<line x1="1919.49" y1="1563.39" x2="1922.19" y2="1578.7"/>
			<line x1="1922.19" y1="1578.7" x2="1916.79" y2="1578.7"/>
			<line x1="1916.79" y1="1578.7" x2="1919.49" y2="1563.39"/>
			<line x1="1919.49" y1="1674.88" x2="1916.79" y2="1659.57"/>
			<line x1="1916.79" y1="1659.57" x2="1922.19" y2="1659.57"/>
			<line x1="1922.19" y1="1659.57" x2="1919.49" y2="1674.88"/>
			<line x1="1919.49" y1="1563.39" x2="1919.49" y2="1674.88"/>
		</g>
		<g id="evml.6.2" stroke="rgb(128,0,128)" stroke-width="2.16081" fill="rgb(128,0,128)" ev-style="Dimensions" ev-style-annotation="true">
			<g transform="translate(2168.62,1026.46) rotate(0) scale(1,-1) ">
				<text x="0" y="0" font-size="24.3091" font-weight="400" font-family="Arial" text-anchor="start" dominant-baseline="baseline">H [30.00]</text>
			</g>
			<line x1="2274.74" y1="1016.17" x2="2259.42" y2="1018.87"/>
			<line x1="2259.42" y1="1018.87" x2="2259.42" y2="1013.47"/>
			<line x1="2259.42" y1="1013.47" x2="2274.74" y2="1016.17"/>
			<line x1="2161.35" y1="1016.17" x2="2176.66" y2="1013.47"/>
			<line x1="2176.66" y1="1013.47" x2="2176.66" y2="1018.87"/>
			<line x1="2176.66" y1="1018.87" x2="2161.35" y2="1016.17"/>
			<line x1="2274.74" y1="1016.17" x2="2161.35" y2="1016.17"/>
		</g>
		<g id="evml.48.2" stroke="rgb(128,0,128)" stroke-width="2.16081" fill="rgb(128,0,128)" ev-style="Dimensions" ev-style-annotation="true">
			<g transform="translate(1385.49,1530.95) rotate(90) scale(1,-1) ">
				<text x="0" y="0" font-size="24.3091" font-weight="400" font-family="Arial" text-anchor="start" dominant-baseline="baseline">BW [15.00]</text>
			</g>
			<line x1="1395.78" y1="1731.58" x2="1393.08" y2="1716.26"/>
			<line x1="1393.08" y1="1716.26" x2="1398.49" y2="1716.26"/>
			<line x1="1398.49" y1="1716.26" x2="1395.78" y2="1731.58"/>
			<line x1="1395.78" y1="1674.88" x2="1398.49" y2="1690.2"/>
			<line x1="1398.49" y1="1690.2" x2="1393.08" y2="1690.2"/>
			<line x1="1393.08" y1="1690.2" x2="1395.78" y2="1674.88"/>
			<line x1="1395.78" y1="1731.58" x2="1395.78" y2="1674.88"/>
			<line x1="1395.78" y1="1674.88" x2="1395.78" y2="1591.32"/>
		</g>
		<g id="evml.49.11" stroke="rgb(128,0,128)" stroke-width="2.16081" fill="rgb(128,0,128)" ev-style="Dimensions" ev-style-annotation="true">
			<g transform="translate(1909.2,1715.56) rotate(90) scale(1,-1) ">
				<text x="0" y="0" font-size="24.3091" font-weight="400" font-family="Arial" text-anchor="start" dominant-baseline="baseline">PH1 [29.00]</text>
			</g>
			<line x1="1919.49" y1="1731.58" x2="1922.19" y2="1746.89"/>
			<line x1="1922.19" y1="1746.89" x2="1916.79" y2="1746.89"/>
			<line x1="1916.79" y1="1746.89" x2="1919.49" y2="1731.58"/>
			<line x1="1919.49" y1="1841.18" x2="1916.79" y2="1825.87"/>
			<line x1="1916.79" y1="1825.87" x2="1922.19" y2="1825.87"/>
			<line x1="1922.19" y1="1825.87" x2="1919.49" y2="1841.18"/>
			<line x1="1919.49" y1="1731.58" x2="1919.49" y2="1841.18"/>
		</g>
		<g id="evml.52.2" stroke="rgb(128,0,128)" stroke-width="2.16081" fill="rgb(128,0,128)" ev-style="Dimensions" ev-style-annotation="true">
			<g transform="translate(1055.3,1795.7) rotate(90) scale(1,-1) ">
				<text x="0" y="0" font-size="24.3091" font-weight="400" font-family="Arial" text-anchor="start" dominant-baseline="baseline">TH [43.00]</text>
			</g>
			<line x1="1065.59" y1="1894.1" x2="1062.89" y2="1878.78"/>
			<line x1="1062.89" y1="1878.78" x2="1068.29" y2="1878.78"/>
			<line x1="1068.29" y1="1878.78" x2="1065.59" y2="1894.1"/>
			<line x1="1065.59" y1="1731.58" x2="1068.29" y2="1746.89"/>
			<line x1="1068.29" y1="1746.89" x2="1062.89" y2="1746.89"/>
			<line x1="1062.89" y1="1746.89" x2="1065.59" y2="1731.58"/>
			<line x1="1065.59" y1="1894.1" x2="1065.59" y2="1731.58"/>
			<line x1="1097.32" y1="1894.1" x2="1050.28" y2="1894.1"/>
			<line x1="1097.32" y1="1731.58" x2="1050.28" y2="1731.58"/>
		</g>
		<g id="evml.55.2" stroke="rgb(128,0,128)" stroke-width="2.16081" fill="rgb(128,0,128)" ev-style="Dimensions" ev-style-annotation="true">
			<g transform="translate(1912.37,516.507) rotate(90) scale(1,-1) ">
				<text x="0" y="0" font-size="24.3091" font-weight="400" font-family="Arial" text-anchor="start" dominant-baseline="baseline">GP [14.00]</text>
			</g>
			<line x1="1922.66" y1="476.772" x2="1925.36" y2="492.085"/>
			<line x1="1925.36" y1="492.085" x2="1919.96" y2="492.085"/>
			<line x1="1919.96" y1="492.085" x2="1922.66" y2="476.772"/>
			<line x1="1922.66" y1="529.686" x2="1919.96" y2="514.373"/>
			<line x1="1919.96" y1="514.373" x2="1925.36" y2="514.373"/>
			<line x1="1925.36" y1="514.373" x2="1922.66" y2="529.686"/>
			<line x1="1922.66" y1="476.772" x2="1922.66" y2="529.686"/>
			<line x1="1922.66" y1="529.686" x2="1922.66" y2="574.545"/>
		</g>
		<g id="evml.62.2" stroke="rgb(128,0,128)" stroke-width="2.16081" fill="rgb(128,0,128)" ev-style="Dimensions" ev-style-annotation="true">
			<g transform="translate(2191.14,1703.39) rotate(0) scale(1,-1) ">
				<text x="0" y="0" font-size="24.3091" font-weight="400" font-family="Arial" text-anchor="start" dominant-baseline="baseline">FH [45.50]</text>
			</g>
			<line x1="2331.43" y1="1693.09" x2="2316.12" y2="1695.79"/>
			<line x1="2316.12" y1="1695.79" x2="2316.12" y2="1690.39"/>
			<line x1="2316.12" y1="1690.39" x2="2331.43" y2="1693.09"/>
			<line x1="2159.46" y1="1693.09" x2="2174.77" y2="1690.39"/>
			<line x1="2174.77" y1="1690.39" x2="2174.77" y2="1695.79"/>
			<line x1="2174.77" y1="1695.79" x2="2159.46" y2="1693.09"/>
			<line x1="2331.43" y1="1693.09" x2="2159.46" y2="1693.09"/>
			<line x1="2331.43" y1="1682.54" x2="2331.43" y2="1708.41"/>
			<line x1="2159.46" y1="1682.54" x2="2159.46" y2="1708.41"/>
		</g>
		<g id="evml.66.2" stroke="rgb(128,0,128)" stroke-width="2.16081" fill="rgb(128,0,128)" ev-style="Dimensions" ev-style-annotation="true">
			<g transform="translate(2339.19,1275.64) rotate(0) scale(1,-1) ">
				<text x="0" y="0" font-size="24.3091" font-weight="400" font-family="Arial" text-anchor="start" dominant-baseline="baseline">BW [15.00]</text>
			</g>
			<line x1="2331.43" y1="1265.35" x2="2316.12" y2="1268.05"/>
			<line x1="2316.12" y1="1268.05" x2="2316.12" y2="1262.65"/>
			<line x1="2316.12" y1="1262.65" x2="2331.43" y2="1265.35"/>
			<line x1="2274.74" y1="1265.35" x2="2290.05" y2="1262.65"/>
			<line x1="2290.05" y1="1262.65" x2="2290.05" y2="1268.05"/>
			<line x1="2290.05" y1="1268.05" x2="2274.74" y2="1265.35"/>
			<line x1="2331.43" y1="1265.35" x2="2274.74" y2="1265.35"/>
			<line x1="2331.43" y1="1265.35" x2="2399.56" y2="1265.35"/>
		</g>
		<g id="evml.67.11" stroke="rgb(128,0,128)" stroke-width="2.16081" fill="rgb(128,0,128)" ev-style="Dimensions" ev-style-annotation="true">
			<g transform="translate(777.604,729.894) rotate(90) scale(1,-1) ">
				<text x="0" y="0" font-size="24.3091" font-weight="400" font-family="Arial" text-anchor="start" dominant-baseline="baseline">DxTB1 [15.50]</text>
			</g>
			<line x1="787.897" y1="807.481" x2="790.597" y2="822.794"/>
			<line x1="790.597" y1="822.794" x2="785.197" y2="822.794"/>
			<line x1="785.197" y1="822.794" x2="787.897" y2="807.481"/>
			<line x1="787.897" y1="866.064" x2="785.197" y2="850.751"/>
			<line x1="785.197" y1="850.751" x2="790.597" y2="850.751"/>
			<line x1="790.597" y1="850.751" x2="787.897" y2="866.064"/>
			<line x1="787.897" y1="807.481" x2="787.897" y2="866.064"/>
			<line x1="982.04" y1="807.481" x2="772.585" y2="807.481"/>
			<line x1="925.347" y1="866.064" x2="772.585" y2="866.064"/>
		</g>
		<g id="evml.67.12" stroke="rgb(128,0,128)" stroke-width="2.16081" fill="rgb(128,0,128)" ev-style="Dimensions" ev-style-annotation="true">
			<g transform="translate(1035.19,1322.01) rotate(90) scale(1,-1) ">
				<text x="0" y="0" font-size="24.3091" font-weight="400" font-family="Arial" text-anchor="start" dominant-baseline="baseline">DxTB1 [15.50]</text>
			</g>
			<line x1="1045.49" y1="1563.39" x2="1042.79" y2="1548.07"/>
			<line x1="1042.79" y1="1548.07" x2="1048.19" y2="1548.07"/>
			<line x1="1048.19" y1="1548.07" x2="1045.49" y2="1563.39"/>
			<line x1="1045.49" y1="1504.8" x2="1048.19" y2="1520.12"/>
			<line x1="1048.19" y1="1520.12" x2="1042.79" y2="1520.12"/>
			<line x1="1042.79" y1="1520.12" x2="1045.49" y2="1504.8"/>
			<line x1="1045.49" y1="1563.39" x2="1045.49" y2="1504.8"/>
			<line x1="997.353" y1="1563.39" x2="1060.8" y2="1563.39"/>
			<line x1="940.66" y1="1504.8" x2="1060.8" y2="1504.8"/>
			<line x1="1045.49" y1="1504.8" x2="1045.49" y2="1399.6"/>
		</g>
		<g id="evml.68.2" stroke="rgb(128,0,128)" stroke-width="2.16081" fill="rgb(128,0,128)" ev-style="Dimensions" ev-style-annotation="true">
			<g transform="translate(2342.13,1026.46) rotate(0) scale(1,-1) ">
				<text x="0" y="0" font-size="24.3091" font-weight="400" font-family="Arial" text-anchor="start" dominant-baseline="baseline">PH [29.50]</text>
			</g>
			<line x1="2442.92" y1="1016.17" x2="2427.61" y2="1018.87"/>
			<line x1="2427.61" y1="1018.87" x2="2427.61" y2="1013.47"/>
			<line x1="2427.61" y1="1013.47" x2="2442.92" y2="1016.17"/>
			<line x1="2331.43" y1="1016.17" x2="2346.74" y2="1013.47"/>
			<line x1="2346.74" y1="1013.47" x2="2346.74" y2="1018.87"/>
			<line x1="2346.74" y1="1018.87" x2="2331.43" y2="1016.17"/>
			<line x1="2442.92" y1="1016.17" x2="2331.43" y2="1016.17"/>
		</g>
		<g id="evml.71.2" stroke="rgb(128,0,128)" stroke-width="2.16081" fill="rgb(128,0,128)" ev-style="Dimensions" ev-style-annotation="true">
			<g transform="translate(862.896,1034.02) rotate(0) scale(1,-1) ">
				<text x="0" y="0" font-size="24.3091" font-weight="400" font-family="Arial" text-anchor="start" dominant-baseline="baseline">GP [14.00]</text>
			</g>
			<line x1="768.594" y1="1023.73" x2="783.907" y2="1021.03"/>
			<line x1="783.907" y1="1021.03" x2="783.907" y2="1026.43"/>
			<line x1="783.907" y1="1026.43" x2="768.594" y2="1023.73"/>
			<line x1="821.507" y1="1023.73" x2="806.195" y2="1026.43"/>
			<line x1="806.195" y1="1026.43" x2="806.195" y2="1021.03"/>
			<line x1="806.195" y1="1021.03" x2="821.507" y2="1023.73"/>
			<line x1="768.594" y1="1023.73" x2="821.507" y2="1023.73"/>
			<line x1="821.507" y1="1023.73" x2="920.934" y2="1023.73"/>
		</g>
		<g id="evml.79.3" stroke="rgb(128,0,128)" stroke-width="2.16081" fill="rgb(128,0,128)" ev-style="Dimensions" ev-style-annotation="true">
			<g transform="translate(2535.52,1361.99) rotate(90) scale(1,-1) ">
				<text x="0" y="0" font-size="24.3091" font-weight="400" font-family="Arial" text-anchor="start" dominant-baseline="baseline">CH [4.00]</text>
			</g>
			<line x1="2545.81" y1="1519.92" x2="2548.51" y2="1535.23"/>
			<line x1="2548.51" y1="1535.23" x2="2543.11" y2="1535.23"/>
			<line x1="2543.11" y1="1535.23" x2="2545.81" y2="1519.92"/>
			<line x1="2545.81" y1="1504.8" x2="2543.11" y2="1489.49"/>
			<line x1="2543.11" y1="1489.49" x2="2548.51" y2="1489.49"/>
			<line x1="2548.51" y1="1489.49" x2="2545.81" y2="1504.8"/>
			<line x1="2545.81" y1="1529.92" x2="2545.81" y2="1519.92"/>
			<line x1="2545.81" y1="1494.8" x2="2545.81" y2="1504.8"/>
			<line x1="2394.83" y1="1519.92" x2="2561.12" y2="1519.92"/>
			<line x1="2450.58" y1="1504.8" x2="2561.12" y2="1504.8"/>
			<line x1="2545.81" y1="1504.8" x2="2545.81" y2="1413.34"/>
		</g>
	</g>
</svg>