<svg version="1.1" xmlns="http://www.w3.org/2000/svg" xmlns:xlink="http://www.w3.org/1999/xlink" width="2494.82" height="1380.51" viewBox="-1.33333 -135.95 2494.82 1380.51">
	<g transform="translate(-1492.56,1523.15) scale(1,-1) ">
		<line x1="3091.3" y1="570.709" x2="3091.3" y2="950.551" stroke="rgb(0,255,0)" stroke-width="6.44587" ev-style="Wheel Creasing" ev-style-annotation="false"/>
		<line x1="3091.3" y1="950.551" x2="3385.16" y2="950.551" stroke="rgb(255,0,0)" stroke-width="6.44587" ev-style="Cutting" ev-style-annotation="false"/>
		<line x1="3483.43" y1="950.551" x2="3777.28" y2="950.551" stroke="rgb(255,0,0)" stroke-width="6.44587" ev-style="Cutting" ev-style-annotation="false"/>
		<line x1="2632.09" y1="950.551" x2="2632.09" y2="570.709" stroke="rgb(0,255,0)" stroke-width="6.44587" ev-style="Wheel Creasing" ev-style-annotation="false"/>
		<line x1="1946.1" y1="570.709" x2="1946.1" y2="950.551" stroke="rgb(0,255,0)" stroke-width="6.44587" ev-style="Wheel Creasing" ev-style-annotation="false"/>
		<line x1="1492.56" y1="950.551" x2="1492.56" y2="566.929" stroke="rgb(255,0,0)" stroke-width="6.44587" ev-style="Wheel Cutting" ev-style-annotation="false"/>
		<line x1="2626.42" y1="1409.76" x2="2626.42" y2="1466.46" stroke="rgb(255,0,0)" stroke-width="6.44587" ev-style="Cutting" ev-style-annotation="false"/>
		<line x1="2569.72" y1="1523.15" x2="2008.47" y2="1523.15" stroke="rgb(255,0,0)" stroke-width="6.44587" ev-style="Wheel Cutting" ev-style-annotation="false"/>
		<line x1="1951.77" y1="1466.46" x2="1951.77" y2="1409.76" stroke="rgb(255,0,0)" stroke-width="6.44587" ev-style="Cutting" ev-style-annotation="false"/>
		<line x1="1943.27" y1="1409.76" x2="1951.77" y2="1409.76" stroke="rgb(255,0,0)" stroke-width="6.44587" ev-style="Cutting" ev-style-annotation="false"/>
		<line x1="1951.77" y1="1409.76" x2="2241.85" y2="1409.76" stroke="rgb(0,255,0)" stroke-width="6.44587" ev-style="Wheel Creasing" ev-style-annotation="false"/>
		<line x1="2336.34" y1="1409.76" x2="2626.42" y2="1409.76" stroke="rgb(0,255,0)" stroke-width="6.44587" ev-style="Wheel Creasing" ev-style-annotation="false"/>
		<line x1="2626.42" y1="1409.76" x2="2634.92" y2="1409.76" stroke="rgb(255,0,0)" stroke-width="6.44587" ev-style="Cutting" ev-style-annotation="false"/>
		<path d="M2569.72,1523.15 a56.6929 56.6929 0 0 0 56.6929,-56.6929" fill="none" stroke="rgb(255,0,0)" stroke-width="6.44587" ev-style="Cutting" ev-style-annotation="false"/>
		<path d="M2008.47,1523.15 a56.6929 56.6929 0 0 1 -56.6929,-56.6929" fill="none" stroke="rgb(255,0,0)" stroke-width="6.44587" ev-style="Cutting" ev-style-annotation="false"/>
		<line x1="3082.8" y1="1026.14" x2="3082.8" y2="950.551" stroke="rgb(255,0,0)" stroke-width="6.44587" ev-style="Cutting" ev-style-annotation="false"/>
		<line x1="2634.92" y1="1236.85" x2="3026.34" y2="1236.85" stroke="rgb(255,0,0)" stroke-width="6.44587" ev-style="Cutting" ev-style-annotation="false"/>
		<line x1="2634.92" y1="956.22" x2="2634.92" y2="1236.85" stroke="rgb(255,0,0)" stroke-width="6.44587" ev-style="Cutting" ev-style-annotation="false"/>
		<line x1="2632.09" y1="950.551" x2="2634.92" y2="956.22" stroke="rgb(255,0,0)" stroke-width="6.44587" ev-style="Cutting" ev-style-annotation="false"/>
		<line x1="3091.3" y1="950.551" x2="3082.8" y2="950.551" stroke="rgb(255,0,0)" stroke-width="6.44587" ev-style="Cutting" ev-style-annotation="false"/>
		<line x1="3082.8" y1="950.551" x2="2632.09" y2="950.551" stroke="rgb(0,255,0)" stroke-width="6.44587" ev-style="Creasing" ev-style-annotation="false"/>
		<line x1="3082.8" y1="1026.14" x2="3026.34" y2="1236.85" stroke="rgb(255,0,0)" stroke-width="6.44587" ev-style="Cutting" ev-style-annotation="false"/>
		<line x1="1492.56" y1="1026.14" x2="1492.56" y2="950.551" stroke="rgb(255,0,0)" stroke-width="6.44587" ev-style="Cutting" ev-style-annotation="false"/>
		<line x1="1943.27" y1="1236.85" x2="1549.02" y2="1236.85" stroke="rgb(255,0,0)" stroke-width="6.44587" ev-style="Cutting" ev-style-annotation="false"/>
		<line x1="1943.27" y1="956.22" x2="1943.27" y2="1236.85" stroke="rgb(255,0,0)" stroke-width="6.44587" ev-style="Cutting" ev-style-annotation="false"/>
		<line x1="1946.1" y1="950.551" x2="1943.27" y2="956.22" stroke="rgb(255,0,0)" stroke-width="6.44587" ev-style="Cutting" ev-style-annotation="false"/>
		<line x1="1492.56" y1="950.551" x2="1492.56" y2="950.551" stroke="rgb(255,0,0)" stroke-width="6.44587" ev-style="Cutting" ev-style-annotation="false"/>
		<line x1="1492.56" y1="950.551" x2="1946.1" y2="950.551" stroke="rgb(0,255,0)" stroke-width="6.44587" ev-style="Creasing" ev-style-annotation="false"/>
		<line x1="1492.56" y1="1026.14" x2="1549.02" y2="1236.85" stroke="rgb(255,0,0)" stroke-width="6.44587" ev-style="Cutting" ev-style-annotation="false"/>
		<line x1="2336.34" y1="1409.76" x2="2328.78" y2="1419.21" stroke="rgb(255,0,0)" stroke-width="6.44587" ev-style="Cutting" ev-style-annotation="false"/>
		<line x1="2328.78" y1="1419.21" x2="2249.41" y2="1419.21" stroke="rgb(255,0,0)" stroke-width="6.44587" ev-style="Cutting" ev-style-annotation="false"/>
		<line x1="2249.41" y1="1419.21" x2="2241.85" y2="1409.76" stroke="rgb(255,0,0)" stroke-width="6.44587" ev-style="Cutting" ev-style-annotation="false"/>
		<line x1="2336.34" y1="1409.76" x2="2341.06" y2="1403.86" stroke="rgb(255,0,0)" stroke-width="6.44587" ev-style="Cutting" ev-style-annotation="false"/>
		<line x1="2241.85" y1="1409.76" x2="2237.13" y2="1403.86" stroke="rgb(255,0,0)" stroke-width="6.44587" ev-style="Cutting" ev-style-annotation="false"/>
		<path d="M3091.3,570.709 a7.55906 7.55906 0 0 1 -7.10319,-4.97371" fill="none" stroke="rgb(255,0,0)" stroke-width="6.44587" ev-style="Cutting" ev-style-annotation="false"/>
		<line x1="3084.2" y1="565.735" x2="3001.06" y2="337.323" stroke="rgb(255,0,0)" stroke-width="6.44587" ev-style="Cutting" ev-style-annotation="false"/>
		<path d="M2632.09,570.709 a7.55906 7.55906 0 0 0 5.34506,-2.214" fill="none" stroke="rgb(255,0,0)" stroke-width="6.44587" ev-style="Cutting" ev-style-annotation="false"/>
		<line x1="2637.43" y1="568.495" x2="2868.6" y2="337.323" stroke="rgb(255,0,0)" stroke-width="6.44587" ev-style="Cutting" ev-style-annotation="false"/>
		<line x1="3001.06" y1="337.323" x2="2868.6" y2="337.323" stroke="rgb(255,0,0)" stroke-width="6.44587" ev-style="Cutting" ev-style-annotation="false"/>
		<line x1="3084.75" y1="566.929" x2="2638.63" y2="566.929" stroke="rgb(0,255,0)" stroke-width="6.44587" ev-style="Creasing" ev-style-annotation="false"/>
		<path d="M1946.1,570.709 a7.55906 7.55906 0 0 1 -7.10319,-4.97371" fill="none" stroke="rgb(255,0,0)" stroke-width="6.44587" ev-style="Cutting" ev-style-annotation="false"/>
		<line x1="1939" y1="565.735" x2="1855.86" y2="337.323" stroke="rgb(255,0,0)" stroke-width="6.44587" ev-style="Cutting" ev-style-annotation="false"/>
		<line x1="1492.56" y1="566.929" x2="1722.17" y2="337.323" stroke="rgb(255,0,0)" stroke-width="6.44587" ev-style="Cutting" ev-style-annotation="false"/>
		<line x1="1855.86" y1="337.323" x2="1722.17" y2="337.323" stroke="rgb(255,0,0)" stroke-width="6.44587" ev-style="Cutting" ev-style-annotation="false"/>
		<line x1="1939.56" y1="566.929" x2="1492.56" y2="566.929" stroke="rgb(0,255,0)" stroke-width="6.44587" ev-style="Creasing" ev-style-annotation="false"/>
		<line x1="3098.86" y1="509.546" x2="3098.86" y2="279.921" stroke="rgb(255,0,0)" stroke-width="6.44587" ev-style="Cutting" ev-style-annotation="false"/>
		<line x1="3098.86" y1="279.921" x2="3263.5" y2="279.921" stroke="rgb(255,0,0)" stroke-width="6.44587" ev-style="Cutting" ev-style-annotation="false"/>
		<line x1="3263.5" y1="279.921" x2="3320.91" y2="337.323" stroke="rgb(255,0,0)" stroke-width="6.44587" ev-style="Cutting" ev-style-annotation="false"/>
		<line x1="3320.91" y1="337.323" x2="3434.29" y2="337.323" stroke="rgb(255,0,0)" stroke-width="6.44587" ev-style="Cutting" ev-style-annotation="false"/>
		<line x1="3434.29" y1="337.323" x2="3434.29" y2="322.205" stroke="rgb(255,0,0)" stroke-width="6.44587" ev-style="Cutting" ev-style-annotation="false"/>
		<line x1="3434.29" y1="322.205" x2="3476.58" y2="279.921" stroke="rgb(255,0,0)" stroke-width="6.44587" ev-style="Cutting" ev-style-annotation="false"/>
		<line x1="3476.58" y1="279.921" x2="3762.24" y2="279.921" stroke="rgb(255,0,0)" stroke-width="6.44587" ev-style="Cutting" ev-style-annotation="false"/>
		<line x1="3777.28" y1="566.929" x2="3777.28" y2="566.929" stroke="rgb(255,0,0)" stroke-width="6.44587" ev-style="Cutting" ev-style-annotation="false"/>
		<line x1="3777.28" y1="566.929" x2="3762.24" y2="279.921" stroke="rgb(255,0,0)" stroke-width="6.44587" ev-style="Cutting" ev-style-annotation="false"/>
		<line x1="3777.28" y1="566.929" x2="3097.85" y2="566.929" stroke="rgb(0,255,0)" stroke-width="6.44587" ev-style="Creasing" ev-style-annotation="false"/>
		<line x1="3098.86" y1="509.546" x2="3127.23" y2="537.913" stroke="rgb(255,0,0)" stroke-width="6.44587" ev-style="Cutting" ev-style-annotation="false"/>
		<line x1="3096.64" y1="568.495" x2="3127.23" y2="537.913" stroke="rgb(255,0,0)" stroke-width="6.44587" ev-style="Cutting" ev-style-annotation="false"/>
		<path d="M3091.3,570.709 a7.55906 7.55906 0 0 0 5.34506,-2.214" fill="none" stroke="rgb(255,0,0)" stroke-width="6.44587" ev-style="Cutting" ev-style-annotation="false"/>
		<line x1="3320.91" y1="337.323" x2="3123.77" y2="534.458" stroke="rgb(0,255,0)" stroke-width="6.44587" ev-style="Creasing" ev-style-annotation="false"/>
		<path d="M2632.09,570.709 a7.55906 7.55906 0 0 1 -7.5487,-7.16344" fill="none" stroke="rgb(255,0,0)" stroke-width="6.44587" ev-style="Cutting" ev-style-annotation="false"/>
		<line x1="1953.66" y1="509.546" x2="1953.66" y2="279.921" stroke="rgb(255,0,0)" stroke-width="6.44587" ev-style="Cutting" ev-style-annotation="false"/>
		<line x1="1953.66" y1="279.921" x2="2118.31" y2="279.921" stroke="rgb(255,0,0)" stroke-width="6.44587" ev-style="Cutting" ev-style-annotation="false"/>
		<line x1="2118.31" y1="279.921" x2="2175.71" y2="337.323" stroke="rgb(255,0,0)" stroke-width="6.44587" ev-style="Cutting" ev-style-annotation="false"/>
		<line x1="2175.71" y1="337.323" x2="2289.1" y2="337.323" stroke="rgb(255,0,0)" stroke-width="6.44587" ev-style="Cutting" ev-style-annotation="false"/>
		<line x1="2289.1" y1="337.323" x2="2289.1" y2="322.205" stroke="rgb(255,0,0)" stroke-width="6.44587" ev-style="Cutting" ev-style-annotation="false"/>
		<line x1="2289.1" y1="322.205" x2="2331.38" y2="279.921" stroke="rgb(255,0,0)" stroke-width="6.44587" ev-style="Cutting" ev-style-annotation="false"/>
		<line x1="2331.38" y1="279.921" x2="2609.67" y2="279.921" stroke="rgb(255,0,0)" stroke-width="6.44587" ev-style="Cutting" ev-style-annotation="false"/>
		<line x1="2624.54" y1="563.545" x2="2609.67" y2="279.921" stroke="rgb(255,0,0)" stroke-width="6.44587" ev-style="Cutting" ev-style-annotation="false"/>
		<line x1="2625.54" y1="566.929" x2="1952.65" y2="566.929" stroke="rgb(0,255,0)" stroke-width="6.44587" ev-style="Creasing" ev-style-annotation="false"/>
		<line x1="1953.66" y1="509.546" x2="1982.03" y2="537.913" stroke="rgb(255,0,0)" stroke-width="6.44587" ev-style="Cutting" ev-style-annotation="false"/>
		<line x1="1951.45" y1="568.495" x2="1982.03" y2="537.913" stroke="rgb(255,0,0)" stroke-width="6.44587" ev-style="Cutting" ev-style-annotation="false"/>
		<path d="M1946.1,570.709 a7.55906 7.55906 0 0 0 5.34506,-2.214" fill="none" stroke="rgb(255,0,0)" stroke-width="6.44587" ev-style="Cutting" ev-style-annotation="false"/>
		<line x1="2175.71" y1="337.323" x2="1978.57" y2="534.458" stroke="rgb(0,255,0)" stroke-width="6.44587" ev-style="Creasing" ev-style-annotation="false"/>
		<line x1="3777.28" y1="566.929" x2="3871.77" y2="661.417" stroke="rgb(255,0,0)" stroke-width="6.44587" ev-style="Cutting" ev-style-annotation="false"/>
		<line x1="3871.77" y1="661.417" x2="3871.77" y2="925.233" stroke="rgb(255,0,0)" stroke-width="6.44587" ev-style="Cutting" ev-style-annotation="false"/>
		<line x1="3871.77" y1="925.233" x2="3777.28" y2="950.551" stroke="rgb(255,0,0)" stroke-width="6.44587" ev-style="Cutting" ev-style-annotation="false"/>
		<line x1="3777.28" y1="566.929" x2="3777.28" y2="950.551" stroke="rgb(0,255,0)" stroke-width="6.44587" ev-style="Creasing" ev-style-annotation="false"/>
		<line x1="1943.27" y1="1236.85" x2="1943.27" y2="1409.76" stroke="rgb(255,0,0)" stroke-width="6.44587" ev-style="Cutting" ev-style-annotation="false"/>
		<line x1="2634.92" y1="1409.76" x2="2634.92" y2="1236.85" stroke="rgb(255,0,0)" stroke-width="6.44587" ev-style="Cutting" ev-style-annotation="false"/>
		<line x1="1943.27" y1="956.22" x2="2634.92" y2="956.22" stroke="rgb(0,255,0)" stroke-width="6.44587" ev-style="Wheel Creasing" ev-style-annotation="false"/>
		<line x1="3385.16" y1="950.551" x2="3385.16" y2="944.882" stroke="rgb(255,0,0)" stroke-width="6.44587" ev-style="Cutting" ev-style-annotation="false"/>
		<line x1="3385.16" y1="944.882" x2="3483.43" y2="944.882" stroke="rgb(255,0,0)" stroke-width="6.44587" ev-style="Cutting" ev-style-annotation="false"/>
		<line x1="3483.43" y1="944.882" x2="3483.43" y2="950.551" stroke="rgb(255,0,0)" stroke-width="6.44587" ev-style="Cutting" ev-style-annotation="false"/>
		<line x1="1492.56" y1="950.551" x2="1492.56" y2="950.551" stroke="rgb(255,0,0)" stroke-width="6.44587" ev-style="Cutting" ev-style-annotation="false"/>
		<line x1="2289.1" y1="1098.39" x2="2289.1" y2="994.016" stroke="rgb(64,128,128)" stroke-width="0"/>
		<line x1="2321.16" y1="1028.81" x2="2321.16" y2="994.016" stroke="rgb(64,128,128)" stroke-width="0"/>
		<line x1="2305.13" y1="1063.6" x2="2305.13" y2="994.016" stroke="rgb(64,128,128)" stroke-width="0"/>
		<line x1="2273.06" y1="1133.18" x2="2273.06" y2="994.016" stroke="rgb(64,128,128)" stroke-width="0"/>
		<line x1="2257.03" y1="1167.97" x2="2257.03" y2="994.016" stroke="rgb(64,128,128)" stroke-width="0"/>
		<line x1="2241" y1="1202.76" x2="2241" y2="994.016" stroke="rgb(64,128,128)" stroke-width="0"/>
		<line x1="2337.19" y1="994.016" x2="2241" y2="994.016" stroke="rgb(64,128,128)" stroke-width="0"/>
		<line x1="2241" y1="1202.76" x2="2347.86" y2="1095.73" stroke="rgb(64,128,128)" stroke-width="0"/>
		<path d="M2347.86,1095.73 a100.552 100.552 0 0 1 -10.668,-101.714" fill="none" stroke="rgb(64,128,128)" stroke-width="0"/>
		<line x1="2337.19" y1="994.016" x2="2241" y2="1202.76" stroke="rgb(64,128,128)" stroke-width="0"/>
		<g id="evml.3" stroke="rgb(128,0,128)" stroke-width="2.57835" fill="rgb(128,0,128)" ev-style="Dimensions" ev-style-annotation="true">
			<g transform="translate(3956.95,857.059) rotate(90) scale(1,-1) ">
				<text x="0" y="0" font-size="29.0064" font-weight="400" font-family="Arial" text-anchor="start" dominant-baseline="baseline">328.94</text>
			</g>
			<line x1="3967.77" y1="1523.15" x2="3964.55" y2="1504.88"/>
			<line x1="3964.55" y1="1504.88" x2="3970.99" y2="1504.88"/>
			<line x1="3970.99" y1="1504.88" x2="3967.77" y2="1523.15"/>
			<line x1="3967.77" y1="279.921" x2="3970.99" y2="298.193"/>
			<line x1="3970.99" y1="298.193" x2="3964.55" y2="298.193"/>
			<line x1="3964.55" y1="298.193" x2="3967.77" y2="279.921"/>
			<line x1="3967.77" y1="1523.15" x2="3967.77" y2="279.921"/>
			<line x1="3881.87" y1="1523.15" x2="3986.04" y2="1523.15"/>
			<line x1="3881.87" y1="279.921" x2="3986.04" y2="279.921"/>
		</g>
		<g id="evml.4" stroke="rgb(128,0,128)" stroke-width="2.57835" fill="rgb(128,0,128)" ev-style="Dimensions" ev-style-annotation="true">
			<g transform="translate(2637.69,1629.97) rotate(0) scale(1,-1) ">
				<text x="0" y="0" font-size="29.0064" font-weight="400" font-family="Arial" text-anchor="start" dominant-baseline="baseline">629.50</text>
			</g>
			<line x1="1492.56" y1="1619.15" x2="1510.83" y2="1615.93"/>
			<line x1="1510.83" y1="1615.93" x2="1510.83" y2="1622.37"/>
			<line x1="1510.83" y1="1622.37" x2="1492.56" y2="1619.15"/>
			<line x1="3871.77" y1="1619.15" x2="3853.5" y2="1622.37"/>
			<line x1="3853.5" y1="1622.37" x2="3853.5" y2="1615.93"/>
			<line x1="3853.5" y1="1615.93" x2="3871.77" y2="1619.15"/>
			<line x1="1492.56" y1="1619.15" x2="3871.77" y2="1619.15"/>
			<line x1="1492.56" y1="1533.25" x2="1492.56" y2="1637.42"/>
			<line x1="3871.77" y1="1533.25" x2="3871.77" y2="1637.42"/>
		</g>
		<g id="evml.1.35" stroke="rgb(128,0,128)" stroke-width="2.57835" fill="rgb(128,0,128)" ev-style="Dimensions" ev-style-annotation="true">
			<g transform="translate(3347.15,673.026) rotate(0) scale(1,-1) ">
				<text x="0" y="0" font-size="29.0064" font-weight="400" font-family="Arial" text-anchor="start" dominant-baseline="baseline">Lss1 [181.50]</text>
			</g>
			<line x1="3777.28" y1="662.204" x2="3759.01" y2="665.425"/>
			<line x1="3759.01" y1="665.425" x2="3759.01" y2="658.982"/>
			<line x1="3759.01" y1="658.982" x2="3777.28" y2="662.204"/>
			<line x1="3091.3" y1="662.204" x2="3109.57" y2="658.982"/>
			<line x1="3109.57" y1="658.982" x2="3109.57" y2="665.425"/>
			<line x1="3109.57" y1="665.425" x2="3091.3" y2="662.204"/>
			<line x1="3777.28" y1="662.204" x2="3091.3" y2="662.204"/>
		</g>
		<g id="evml.1.36" stroke="rgb(128,0,128)" stroke-width="2.57835" fill="rgb(128,0,128)" ev-style="Dimensions" ev-style-annotation="true">
			<g transform="translate(2210.05,672.24) rotate(0) scale(1,-1) ">
				<text x="0" y="0" font-size="29.0064" font-weight="400" font-family="Arial" text-anchor="start" dominant-baseline="baseline">Lss [181.50]</text>
			</g>
			<line x1="2632.09" y1="661.417" x2="2613.82" y2="664.639"/>
			<line x1="2613.82" y1="664.639" x2="2613.82" y2="658.196"/>
			<line x1="2613.82" y1="658.196" x2="2632.09" y2="661.417"/>
			<line x1="1946.1" y1="661.417" x2="1964.37" y2="658.196"/>
			<line x1="1964.37" y1="658.196" x2="1964.37" y2="664.639"/>
			<line x1="1964.37" y1="664.639" x2="1946.1" y2="661.417"/>
			<line x1="2632.09" y1="661.417" x2="1946.1" y2="661.417"/>
		</g>
		<g id="evml.1.37" stroke="rgb(128,0,128)" stroke-width="2.57835" fill="rgb(128,0,128)" ev-style="Dimensions" ev-style-annotation="true">
			<g transform="translate(2776.73,672.24) rotate(0) scale(1,-1) ">
				<text x="0" y="0" font-size="29.0064" font-weight="400" font-family="Arial" text-anchor="start" dominant-baseline="baseline">Wss [121.50]</text>
			</g>
			<line x1="3091.3" y1="661.417" x2="3073.03" y2="664.639"/>
			<line x1="3073.03" y1="664.639" x2="3073.03" y2="658.196"/>
			<line x1="3073.03" y1="658.196" x2="3091.3" y2="661.417"/>
			<line x1="2632.09" y1="661.417" x2="2650.36" y2="658.196"/>
			<line x1="2650.36" y1="658.196" x2="2650.36" y2="664.639"/>
			<line x1="2650.36" y1="664.639" x2="2632.09" y2="661.417"/>
			<line x1="3091.3" y1="661.417" x2="2632.09" y2="661.417"/>
		</g>
		<g id="evml.1.38" stroke="rgb(128,0,128)" stroke-width="2.57835" fill="rgb(128,0,128)" ev-style="Dimensions" ev-style-annotation="true">
			<g transform="translate(2695.47,677.281) rotate(90) scale(1,-1) ">
				<text x="0" y="0" font-size="29.0064" font-weight="400" font-family="Arial" text-anchor="start" dominant-baseline="baseline">Hss [101.50]</text>
			</g>
			<line x1="2706.29" y1="950.551" x2="2703.07" y2="932.279"/>
			<line x1="2703.07" y1="932.279" x2="2709.51" y2="932.279"/>
			<line x1="2709.51" y1="932.279" x2="2706.29" y2="950.551"/>
			<line x1="2706.29" y1="566.929" x2="2709.51" y2="585.201"/>
			<line x1="2709.51" y1="585.201" x2="2703.07" y2="585.201"/>
			<line x1="2703.07" y1="585.201" x2="2706.29" y2="566.929"/>
			<line x1="2706.29" y1="950.551" x2="2706.29" y2="566.929"/>
		</g>
		<g id="evml.1.39" stroke="rgb(128,0,128)" stroke-width="2.57835" fill="rgb(128,0,128)" ev-style="Dimensions" ev-style-annotation="true">
			<g transform="translate(1626.27,672.24) rotate(0) scale(1,-1) ">
				<text x="0" y="0" font-size="29.0064" font-weight="400" font-family="Arial" text-anchor="start" dominant-baseline="baseline">Wss1 [120.00]</text>
			</g>
			<line x1="1946.1" y1="661.417" x2="1927.83" y2="664.639"/>
			<line x1="1927.83" y1="664.639" x2="1927.83" y2="658.196"/>
			<line x1="1927.83" y1="658.196" x2="1946.1" y2="661.417"/>
			<line x1="1492.56" y1="661.417" x2="1510.83" y2="658.196"/>
			<line x1="1510.83" y1="658.196" x2="1510.83" y2="664.639"/>
			<line x1="1510.83" y1="664.639" x2="1492.56" y2="661.417"/>
			<line x1="1946.1" y1="661.417" x2="1492.56" y2="661.417"/>
		</g>
	</g>
</svg>