<svg version="1.1" xmlns="http://www.w3.org/2000/svg" xmlns:xlink="http://www.w3.org/1999/xlink" width="1971.07" height="2018.97" viewBox="-1.33333 -138.979 1971.07 2018.97">
	<g transform="translate(-328.953,2088.86) scale(1,-1) ">
		<line x1="1623.86" y1="1621.97" x2="887.8" y2="1621.97" stroke="rgb(0,255,0)" stroke-width="7.04883" ev-style="Creasing" ev-style-annotation="false"/>
		<line x1="682.509" y1="599.277" x2="662.519" y2="585.239" stroke="rgb(255,0,0)" stroke-width="7.04883" ev-style="Cutting" ev-style-annotation="false"/>
		<line x1="775.905" y1="1719.1" x2="789.616" y2="1707.2" stroke="rgb(255,0,0)" stroke-width="7.04883" ev-style="Cutting" ev-style-annotation="false"/>
		<line x1="887.8" y1="1621.97" x2="793.311" y2="677.089" stroke="rgb(0,255,0)" stroke-width="7.04883" ev-style="Creasing" ev-style-annotation="false"/>
		<line x1="1718.35" y1="677.089" x2="793.311" y2="677.089" stroke="rgb(0,255,0)" stroke-width="7.04883" ev-style="Creasing" ev-style-annotation="false"/>
		<line x1="662.519" y1="585.239" x2="549.696" y2="596.521" stroke="rgb(255,0,0)" stroke-width="7.04883" ev-style="Cutting" ev-style-annotation="false"/>
		<line x1="663.082" y1="1730.38" x2="775.905" y2="1719.1" stroke="rgb(255,0,0)" stroke-width="7.04883" ev-style="Cutting" ev-style-annotation="false"/>
		<line x1="775.905" y1="1719.1" x2="662.519" y2="585.239" stroke="rgb(0,255,0)" stroke-width="7.04883" ev-style="Creasing" ev-style-annotation="false"/>
		<line x1="802.289" y1="1742.97" x2="1709.38" y2="1742.97" stroke="rgb(0,255,0)" stroke-width="7.04883" ev-style="Creasing" ev-style-annotation="false"/>
		<line x1="688.903" y1="556.085" x2="1822.76" y2="556.085" stroke="rgb(0,255,0)" stroke-width="7.04883" ev-style="Creasing" ev-style-annotation="false"/>
		<line x1="1829.16" y1="599.277" x2="1849.15" y2="585.239" stroke="rgb(255,0,0)" stroke-width="7.04883" ev-style="Cutting" ev-style-annotation="false"/>
		<line x1="1735.76" y1="1719.1" x2="1722.05" y2="1707.2" stroke="rgb(255,0,0)" stroke-width="7.04883" ev-style="Cutting" ev-style-annotation="false"/>
		<line x1="1623.86" y1="1621.97" x2="1718.35" y2="677.089" stroke="rgb(0,255,0)" stroke-width="7.04883" ev-style="Creasing" ev-style-annotation="false"/>
		<line x1="1735.76" y1="1719.1" x2="1848.58" y2="1730.38" stroke="rgb(255,0,0)" stroke-width="7.04883" ev-style="Cutting" ev-style-annotation="false"/>
		<line x1="1961.97" y1="596.521" x2="1849.15" y2="585.239" stroke="rgb(255,0,0)" stroke-width="7.04883" ev-style="Cutting" ev-style-annotation="false"/>
		<line x1="1849.15" y1="585.239" x2="1735.76" y2="1719.1" stroke="rgb(0,255,0)" stroke-width="7.04883" ev-style="Creasing" ev-style-annotation="false"/>
		<line x1="1718.35" y1="677.089" x2="1822.76" y2="556.085" stroke="rgb(0,255,0)" stroke-width="7.04883" ev-style="Creasing" ev-style-annotation="false"/>
		<line x1="1822.76" y1="556.085" x2="1829.16" y2="599.277" stroke="rgb(255,0,0)" stroke-width="7.04883" ev-style="Cutting" ev-style-annotation="false"/>
		<line x1="1829.16" y1="599.277" x2="1718.35" y2="677.089" stroke="rgb(255,0,0)" stroke-width="7.04883" ev-style="Cutting" ev-style-annotation="false"/>
		<line x1="793.311" y1="677.089" x2="688.903" y2="556.085" stroke="rgb(0,255,0)" stroke-width="7.04883" ev-style="Creasing" ev-style-annotation="false"/>
		<line x1="688.903" y1="556.085" x2="682.509" y2="599.277" stroke="rgb(255,0,0)" stroke-width="7.04883" ev-style="Cutting" ev-style-annotation="false"/>
		<line x1="682.509" y1="599.277" x2="793.311" y2="677.089" stroke="rgb(255,0,0)" stroke-width="7.04883" ev-style="Cutting" ev-style-annotation="false"/>
		<line x1="1623.86" y1="1621.97" x2="1709.38" y2="1742.97" stroke="rgb(0,255,0)" stroke-width="7.04883" ev-style="Creasing" ev-style-annotation="false"/>
		<line x1="1709.38" y1="1742.97" x2="1722.05" y2="1707.2" stroke="rgb(255,0,0)" stroke-width="7.04883" ev-style="Cutting" ev-style-annotation="false"/>
		<line x1="1722.05" y1="1707.2" x2="1623.86" y2="1621.97" stroke="rgb(255,0,0)" stroke-width="7.04883" ev-style="Cutting" ev-style-annotation="false"/>
		<line x1="887.8" y1="1621.97" x2="802.289" y2="1742.97" stroke="rgb(0,255,0)" stroke-width="7.04883" ev-style="Creasing" ev-style-annotation="false"/>
		<line x1="802.289" y1="1742.97" x2="789.616" y2="1707.2" stroke="rgb(255,0,0)" stroke-width="7.04883" ev-style="Cutting" ev-style-annotation="false"/>
		<line x1="789.616" y1="1707.2" x2="887.8" y2="1621.97" stroke="rgb(255,0,0)" stroke-width="7.04883" ev-style="Cutting" ev-style-annotation="false"/>
		<line x1="1973.94" y1="446.478" x2="1973.94" y2="515.576" stroke="rgb(255,0,0)" stroke-width="7.04883" ev-style="Cutting" ev-style-annotation="false"/>
		<line x1="1822.76" y1="556.085" x2="1973.94" y2="515.576" stroke="rgb(255,0,0)" stroke-width="7.04883" ev-style="Cutting" ev-style-annotation="false"/>
		<line x1="1973.94" y1="446.478" x2="1822.76" y2="446.478" stroke="rgb(255,0,0)" stroke-width="7.04883" ev-style="Cutting" ev-style-annotation="false"/>
		<line x1="1822.76" y1="556.085" x2="1822.76" y2="556.085" stroke="rgb(255,0,0)" stroke-width="7.04883" ev-style="Cutting" ev-style-annotation="false"/>
		<line x1="1822.76" y1="556.085" x2="1822.76" y2="446.478" stroke="rgb(0,255,0)" stroke-width="7.04883" ev-style="Creasing" ev-style-annotation="false"/>
		<line x1="537.722" y1="446.478" x2="537.722" y2="515.576" stroke="rgb(255,0,0)" stroke-width="7.04883" ev-style="Cutting" ev-style-annotation="false"/>
		<line x1="688.903" y1="556.085" x2="537.722" y2="515.576" stroke="rgb(255,0,0)" stroke-width="7.04883" ev-style="Cutting" ev-style-annotation="false"/>
		<line x1="537.722" y1="446.478" x2="688.903" y2="446.478" stroke="rgb(255,0,0)" stroke-width="7.04883" ev-style="Cutting" ev-style-annotation="false"/>
		<line x1="688.903" y1="556.085" x2="688.903" y2="556.085" stroke="rgb(255,0,0)" stroke-width="7.04883" ev-style="Cutting" ev-style-annotation="false"/>
		<line x1="688.903" y1="556.085" x2="688.903" y2="446.478" stroke="rgb(0,255,0)" stroke-width="7.04883" ev-style="Creasing" ev-style-annotation="false"/>
		<line x1="1860.56" y1="1852.58" x2="1860.56" y2="1783.48" stroke="rgb(255,0,0)" stroke-width="7.04883" ev-style="Cutting" ev-style-annotation="false"/>
		<line x1="1709.38" y1="1742.97" x2="1860.56" y2="1783.48" stroke="rgb(255,0,0)" stroke-width="7.04883" ev-style="Cutting" ev-style-annotation="false"/>
		<line x1="1860.56" y1="1852.58" x2="1709.38" y2="1852.58" stroke="rgb(255,0,0)" stroke-width="7.04883" ev-style="Cutting" ev-style-annotation="false"/>
		<line x1="1709.38" y1="1742.97" x2="1709.38" y2="1742.97" stroke="rgb(255,0,0)" stroke-width="7.04883" ev-style="Cutting" ev-style-annotation="false"/>
		<line x1="1709.38" y1="1742.97" x2="1709.38" y2="1852.58" stroke="rgb(0,255,0)" stroke-width="7.04883" ev-style="Creasing" ev-style-annotation="false"/>
		<line x1="651.108" y1="1852.58" x2="651.108" y2="1783.48" stroke="rgb(255,0,0)" stroke-width="7.04883" ev-style="Cutting" ev-style-annotation="false"/>
		<line x1="802.289" y1="1742.97" x2="651.108" y2="1783.48" stroke="rgb(255,0,0)" stroke-width="7.04883" ev-style="Cutting" ev-style-annotation="false"/>
		<line x1="651.108" y1="1852.58" x2="802.289" y2="1852.58" stroke="rgb(255,0,0)" stroke-width="7.04883" ev-style="Cutting" ev-style-annotation="false"/>
		<line x1="802.289" y1="1742.97" x2="802.289" y2="1742.97" stroke="rgb(255,0,0)" stroke-width="7.04883" ev-style="Cutting" ev-style-annotation="false"/>
		<line x1="802.289" y1="1742.97" x2="802.289" y2="1852.58" stroke="rgb(0,255,0)" stroke-width="7.04883" ev-style="Creasing" ev-style-annotation="false"/>
		<line x1="2074.42" y1="611.564" x2="1961.78" y2="1737.9" stroke="rgb(0,255,0)" stroke-width="7.04883" ev-style="Creasing" ev-style-annotation="false"/>
		<line x1="1961.78" y1="1737.9" x2="2088.68" y2="1666" stroke="rgb(255,0,0)" stroke-width="7.04883" ev-style="Cutting" ev-style-annotation="false"/>
		<line x1="2088.68" y1="1666" x2="2182.71" y2="725.684" stroke="rgb(255,0,0)" stroke-width="7.04883" ev-style="Cutting" ev-style-annotation="false"/>
		<line x1="2182.71" y1="725.684" x2="2074.42" y2="611.564" stroke="rgb(255,0,0)" stroke-width="7.04883" ev-style="Cutting" ev-style-annotation="false"/>
		<line x1="437.249" y1="611.564" x2="549.882" y2="1737.9" stroke="rgb(0,255,0)" stroke-width="7.04883" ev-style="Creasing" ev-style-annotation="false"/>
		<line x1="549.882" y1="1737.9" x2="422.984" y2="1666" stroke="rgb(255,0,0)" stroke-width="7.04883" ev-style="Cutting" ev-style-annotation="false"/>
		<line x1="422.984" y1="1666" x2="328.953" y2="725.684" stroke="rgb(255,0,0)" stroke-width="7.04883" ev-style="Cutting" ev-style-annotation="false"/>
		<line x1="328.953" y1="725.684" x2="437.249" y2="611.564" stroke="rgb(255,0,0)" stroke-width="7.04883" ev-style="Cutting" ev-style-annotation="false"/>
		<line x1="692.683" y1="329.313" x2="1818.98" y2="329.313" stroke="rgb(0,255,0)" stroke-width="7.04883" ev-style="Creasing" ev-style-annotation="false"/>
		<line x1="1818.98" y1="329.313" x2="1716.2" y2="210.199" stroke="rgb(255,0,0)" stroke-width="7.04883" ev-style="Cutting" ev-style-annotation="false"/>
		<line x1="1716.2" y1="210.199" x2="795.46" y2="210.199" stroke="rgb(255,0,0)" stroke-width="7.04883" ev-style="Cutting" ev-style-annotation="false"/>
		<line x1="795.46" y1="210.199" x2="692.683" y2="329.313" stroke="rgb(255,0,0)" stroke-width="7.04883" ev-style="Cutting" ev-style-annotation="false"/>
		<line x1="806.068" y1="1969.75" x2="1705.6" y2="1969.75" stroke="rgb(0,255,0)" stroke-width="7.04883" ev-style="Creasing" ev-style-annotation="false"/>
		<line x1="1705.6" y1="1969.75" x2="1621.42" y2="2088.86" stroke="rgb(255,0,0)" stroke-width="7.04883" ev-style="Cutting" ev-style-annotation="false"/>
		<line x1="1621.42" y1="2088.86" x2="890.244" y2="2088.86" stroke="rgb(255,0,0)" stroke-width="7.04883" ev-style="Cutting" ev-style-annotation="false"/>
		<line x1="890.244" y1="2088.86" x2="806.068" y2="1969.75" stroke="rgb(255,0,0)" stroke-width="7.04883" ev-style="Cutting" ev-style-annotation="false"/>
		<line x1="802.289" y1="1852.58" x2="806.068" y2="1969.75" stroke="rgb(255,0,0)" stroke-width="7.04883" ev-style="Cutting" ev-style-annotation="false"/>
		<line x1="1705.6" y1="1969.75" x2="1709.38" y2="1852.58" stroke="rgb(255,0,0)" stroke-width="7.04883" ev-style="Cutting" ev-style-annotation="false"/>
		<line x1="802.411" y1="1856.36" x2="1709.25" y2="1856.36" stroke="rgb(0,255,0)" stroke-width="7.04883" ev-style="Creasing" ev-style-annotation="false"/>
		<line x1="1822.76" y1="446.478" x2="1818.98" y2="329.313" stroke="rgb(255,0,0)" stroke-width="7.04883" ev-style="Cutting" ev-style-annotation="false"/>
		<line x1="692.683" y1="329.313" x2="688.903" y2="446.478" stroke="rgb(255,0,0)" stroke-width="7.04883" ev-style="Cutting" ev-style-annotation="false"/>
		<line x1="1822.64" y1="442.699" x2="689.025" y2="442.699" stroke="rgb(0,255,0)" stroke-width="7.04883" ev-style="Creasing" ev-style-annotation="false"/>
		<line x1="1848.58" y1="1730.38" x2="1961.78" y2="1737.9" stroke="rgb(255,0,0)" stroke-width="7.04883" ev-style="Cutting" ev-style-annotation="false"/>
		<line x1="2074.42" y1="611.564" x2="1961.97" y2="596.521" stroke="rgb(255,0,0)" stroke-width="7.04883" ev-style="Cutting" ev-style-annotation="false"/>
		<line x1="1848.58" y1="1730.38" x2="1961.97" y2="596.521" stroke="rgb(0,255,0)" stroke-width="7.04883" ev-style="Creasing" ev-style-annotation="false"/>
		<line x1="549.696" y1="596.521" x2="437.249" y2="611.564" stroke="rgb(255,0,0)" stroke-width="7.04883" ev-style="Cutting" ev-style-annotation="false"/>
		<line x1="549.882" y1="1737.9" x2="663.082" y2="1730.38" stroke="rgb(255,0,0)" stroke-width="7.04883" ev-style="Cutting" ev-style-annotation="false"/>
		<line x1="549.696" y1="596.521" x2="663.082" y2="1730.38" stroke="rgb(0,255,0)" stroke-width="7.04883" ev-style="Creasing" ev-style-annotation="false"/>
		<g id="evml.3" stroke="rgb(128,0,128)" stroke-width="2.81953" fill="rgb(128,0,128)" ev-style="Dimensions" ev-style-annotation="true">
			<g transform="translate(2267.58,1100.89) rotate(90) scale(1,-1) ">
				<text x="0" y="0" font-size="31.7197" font-weight="400" font-family="Arial" text-anchor="start" dominant-baseline="baseline">497.06</text>
			</g>
			<line x1="2278.71" y1="2088.86" x2="2275.19" y2="2068.88"/>
			<line x1="2275.19" y1="2068.88" x2="2282.24" y2="2068.88"/>
			<line x1="2282.24" y1="2068.88" x2="2278.71" y2="2088.86"/>
			<line x1="2278.71" y1="210.199" x2="2282.24" y2="230.18"/>
			<line x1="2282.24" y1="230.18" x2="2275.19" y2="230.18"/>
			<line x1="2275.19" y1="230.18" x2="2278.71" y2="210.199"/>
			<line x1="2278.71" y1="2088.86" x2="2278.71" y2="210.199"/>
			<line x1="2193.66" y1="2088.86" x2="2298.69" y2="2088.86"/>
			<line x1="2193.66" y1="210.199" x2="2298.69" y2="210.199"/>
		</g>
		<g id="evml.4" stroke="rgb(128,0,128)" stroke-width="2.81953" fill="rgb(128,0,128)" ev-style="Dimensions" ev-style-annotation="true">
			<g transform="translate(1207.2,2195.99) rotate(0) scale(1,-1) ">
				<text x="0" y="0" font-size="31.7197" font-weight="400" font-family="Arial" text-anchor="start" dominant-baseline="baseline">490.47</text>
			</g>
			<line x1="328.953" y1="2184.86" x2="348.933" y2="2181.34"/>
			<line x1="348.933" y1="2181.34" x2="348.933" y2="2188.38"/>
			<line x1="348.933" y1="2188.38" x2="328.953" y2="2184.86"/>
			<line x1="2182.71" y1="2184.86" x2="2162.73" y2="2188.38"/>
			<line x1="2162.73" y1="2188.38" x2="2162.73" y2="2181.34"/>
			<line x1="2162.73" y1="2181.34" x2="2182.71" y2="2184.86"/>
			<line x1="328.953" y1="2184.86" x2="2182.71" y2="2184.86"/>
			<line x1="328.953" y1="2099.81" x2="328.953" y2="2204.84"/>
			<line x1="2182.71" y1="2099.81" x2="2182.71" y2="2204.84"/>
		</g>
		<g id="evml.5" stroke="rgb(128,0,128)" stroke-width="2.81953" fill="rgb(128,0,128)" ev-style="Dimensions" ev-style-annotation="true">
			<g transform="translate(1147.5,507.207) rotate(0) scale(1,-1) ">
				<text x="0" y="0" font-size="31.7197" font-weight="400" font-family="Arial" text-anchor="start" dominant-baseline="baseline">B [300.00]</text>
			</g>
			<line x1="688.903" y1="496.079" x2="708.884" y2="492.556"/>
			<line x1="708.884" y1="492.556" x2="708.884" y2="499.602"/>
			<line x1="708.884" y1="499.602" x2="688.903" y2="496.079"/>
			<line x1="1822.76" y1="496.079" x2="1802.78" y2="499.602"/>
			<line x1="1802.78" y1="499.602" x2="1802.78" y2="492.556"/>
			<line x1="1802.78" y1="492.556" x2="1822.76" y2="496.079"/>
			<line x1="688.903" y1="496.079" x2="1822.76" y2="496.079"/>
			<line x1="688.903" y1="546.094" x2="688.903" y2="476.098"/>
			<line x1="1822.76" y1="546.094" x2="1822.76" y2="476.098"/>
		</g>
		<g id="evml.6" stroke="rgb(128,0,128)" stroke-width="2.81953" fill="rgb(128,0,128)" ev-style="Dimensions" ev-style-annotation="true">
			<g transform="translate(1153.15,1800.75) rotate(0) scale(1,-1) ">
				<text x="0" y="0" font-size="31.7197" font-weight="400" font-family="Arial" text-anchor="start" dominant-baseline="baseline">B1 [240.00]</text>
			</g>
			<line x1="802.289" y1="1789.62" x2="822.27" y2="1786.09"/>
			<line x1="822.27" y1="1786.09" x2="822.27" y2="1793.14"/>
			<line x1="822.27" y1="1793.14" x2="802.289" y2="1789.62"/>
			<line x1="1709.38" y1="1789.62" x2="1689.39" y2="1793.14"/>
			<line x1="1689.39" y1="1793.14" x2="1689.39" y2="1786.09"/>
			<line x1="1689.39" y1="1786.09" x2="1709.38" y2="1789.62"/>
			<line x1="802.289" y1="1789.62" x2="1709.38" y2="1789.62"/>
			<line x1="802.289" y1="1752.96" x2="802.289" y2="1809.6"/>
			<line x1="1709.38" y1="1752.96" x2="1709.38" y2="1809.6"/>
		</g>
		<g id="evml.1.1" stroke="rgb(128,0,128)" stroke-width="2.81953" fill="rgb(128,0,128)" ev-style="Dimensions" ev-style-annotation="true">
			<g transform="translate(1336.47,1068.38) rotate(90) scale(1,-1) ">
				<text x="0" y="0" font-size="31.7197" font-weight="400" font-family="Arial" text-anchor="start" dominant-baseline="baseline">A1 [250.00]</text>
			</g>
			<line x1="1347.59" y1="1621.97" x2="1344.07" y2="1601.99"/>
			<line x1="1344.07" y1="1601.99" x2="1351.12" y2="1601.99"/>
			<line x1="1351.12" y1="1601.99" x2="1347.59" y2="1621.97"/>
			<line x1="1347.59" y1="677.089" x2="1351.12" y2="697.07"/>
			<line x1="1351.12" y1="697.07" x2="1344.07" y2="697.07"/>
			<line x1="1344.07" y1="697.07" x2="1347.59" y2="677.089"/>
			<line x1="1347.59" y1="1621.97" x2="1347.59" y2="677.089"/>
		</g>
		<g id="evml.7.2" stroke="rgb(128,0,128)" stroke-width="2.81953" fill="rgb(128,0,128)" ev-style="Dimensions" ev-style-annotation="true">
			<g transform="translate(578.252,1177.45) rotate(354.3) scale(1,-1) ">
				<text x="0" y="0" font-size="31.7197" font-weight="400" font-family="Arial" text-anchor="start" dominant-baseline="baseline">H [30.00]</text>
			</g>
			<line x1="606.389" y1="1163.45" x2="625.92" y2="1157.96"/>
			<line x1="625.92" y1="1157.96" x2="626.621" y2="1164.97"/>
			<line x1="626.621" y1="1164.97" x2="606.389" y2="1163.45"/>
			<line x1="719.212" y1="1152.17" x2="699.681" y2="1157.66"/>
			<line x1="699.681" y1="1157.66" x2="698.98" y2="1150.65"/>
			<line x1="698.98" y1="1150.65" x2="719.212" y2="1152.17"/>
			<line x1="606.389" y1="1163.45" x2="719.212" y2="1152.17"/>
		</g>
		<g id="evml.11.5" stroke="rgb(128,0,128)" stroke-width="2.81953" fill="rgb(128,0,128)" ev-style="Dimensions" ev-style-annotation="true">
			<g transform="translate(1661.97,1204.17) rotate(5.7) scale(1,-1) ">
				<text x="0" y="0" font-size="31.7197" font-weight="400" font-family="Arial" text-anchor="start" dominant-baseline="baseline">TPH [32.02]</text>
			</g>
			<line x1="1666.72" y1="1193.46" x2="1686.95" y2="1191.95"/>
			<line x1="1686.95" y1="1191.95" x2="1686.25" y2="1198.96"/>
			<line x1="1686.25" y1="1198.96" x2="1666.72" y2="1193.46"/>
			<line x1="1787.12" y1="1205.5" x2="1766.89" y2="1207.02"/>
			<line x1="1766.89" y1="1207.02" x2="1767.59" y2="1200.01"/>
			<line x1="1767.59" y1="1200.01" x2="1787.12" y2="1205.5"/>
			<line x1="1666.72" y1="1193.46" x2="1787.12" y2="1205.5"/>
		</g>
		<g id="evml.42.2" stroke="rgb(128,0,128)" stroke-width="2.81953" fill="rgb(128,0,128)" ev-style="Dimensions" ev-style-annotation="true">
			<g transform="translate(1733.74,1882.57) rotate(0) scale(1,-1) ">
				<text x="0" y="0" font-size="31.7197" font-weight="400" font-family="Arial" text-anchor="start" dominant-baseline="baseline">FH [40.00]</text>
			</g>
			<line x1="1860.56" y1="1871.44" x2="1840.58" y2="1874.96"/>
			<line x1="1840.58" y1="1874.96" x2="1840.58" y2="1867.92"/>
			<line x1="1840.58" y1="1867.92" x2="1860.56" y2="1871.44"/>
			<line x1="1709.38" y1="1871.44" x2="1729.36" y2="1867.92"/>
			<line x1="1729.36" y1="1867.92" x2="1729.36" y2="1874.96"/>
			<line x1="1729.36" y1="1874.96" x2="1709.38" y2="1871.44"/>
			<line x1="1860.56" y1="1871.44" x2="1709.38" y2="1871.44"/>
			<line x1="1860.56" y1="1862.57" x2="1860.56" y2="1891.42"/>
		</g>
		<g id="evml.43.13" stroke="rgb(128,0,128)" stroke-width="2.81953" fill="rgb(128,0,128)" ev-style="Dimensions" ev-style-annotation="true">
			<g transform="translate(594.185,1810.88) rotate(90) scale(1,-1) ">
				<text x="0" y="0" font-size="31.7197" font-weight="400" font-family="Arial" text-anchor="start" dominant-baseline="baseline">FC [1.00]</text>
			</g>
			<line x1="605.313" y1="1852.58" x2="601.79" y2="1832.6"/>
			<line x1="601.79" y1="1832.6" x2="608.836" y2="1832.6"/>
			<line x1="608.836" y1="1832.6" x2="605.313" y2="1852.58"/>
			<line x1="605.313" y1="1856.36" x2="608.836" y2="1876.34"/>
			<line x1="608.836" y1="1876.34" x2="601.79" y2="1876.34"/>
			<line x1="601.79" y1="1876.34" x2="605.313" y2="1856.36"/>
			<line x1="605.313" y1="1842.58" x2="605.313" y2="1852.58"/>
			<line x1="605.313" y1="1866.36" x2="605.313" y2="1856.36"/>
			<line x1="792.298" y1="1852.58" x2="585.332" y2="1852.58"/>
			<line x1="792.298" y1="1856.36" x2="585.332" y2="1856.36"/>
			<line x1="605.313" y1="1856.36" x2="605.313" y2="1876.04"/>
		</g>
		<g id="evml.59.2" stroke="rgb(128,0,128)" stroke-width="2.81953" fill="rgb(128,0,128)" ev-style="Dimensions" ev-style-annotation="true">
			<g transform="translate(2037.2,1241.7) rotate(5.7) scale(1,-1) ">
				<text x="0" y="0" font-size="31.7197" font-weight="400" font-family="Arial" text-anchor="start" dominant-baseline="baseline">TPH1 [31.52]</text>
			</g>
			<line x1="2131.29" y1="1239.92" x2="2111.06" y2="1241.44"/>
			<line x1="2111.06" y1="1241.44" x2="2111.76" y2="1234.43"/>
			<line x1="2111.76" y1="1234.43" x2="2131.29" y2="1239.92"/>
			<line x1="2012.77" y1="1228.07" x2="2033" y2="1226.55"/>
			<line x1="2033" y1="1226.55" x2="2032.3" y2="1233.56"/>
			<line x1="2032.3" y1="1233.56" x2="2012.77" y2="1228.07"/>
			<line x1="2131.29" y1="1239.92" x2="2012.77" y2="1228.07"/>
		</g>
		<g id="evml.72.11" stroke="rgb(128,0,128)" stroke-width="2.81953" fill="rgb(128,0,128)" ev-style="Dimensions" ev-style-annotation="true">
			<g transform="translate(1849.12,283.879) rotate(0) scale(1,-1) ">
				<text x="0" y="0" font-size="31.7197" font-weight="400" font-family="Arial" text-anchor="start" dominant-baseline="baseline">DxTB [1.00]</text>
			</g>
			<line x1="1822.76" y1="272.752" x2="1842.74" y2="269.228"/>
			<line x1="1842.74" y1="269.228" x2="1842.74" y2="276.275"/>
			<line x1="1842.74" y1="276.275" x2="1822.76" y2="272.752"/>
			<line x1="1818.98" y1="272.752" x2="1799" y2="276.275"/>
			<line x1="1799" y1="276.275" x2="1799" y2="269.228"/>
			<line x1="1799" y1="269.228" x2="1818.98" y2="272.752"/>
			<line x1="1832.76" y1="272.752" x2="1822.76" y2="272.752"/>
			<line x1="1808.98" y1="272.752" x2="1818.98" y2="272.752"/>
			<line x1="1822.76" y1="432.708" x2="1822.76" y2="252.771"/>
			<line x1="1818.98" y1="319.323" x2="1818.98" y2="252.771"/>
			<line x1="1822.76" y1="272.752" x2="1932.65" y2="272.752"/>
		</g>
	</g>
</svg>